{
.appVersion = "923";
classes = (
{
automatic = 1;

glyphs = (
{
glyphname = exclam;
lastChange = "2016-09-25 07:29:42 +0000";
layers = (
{
background = {
paths = (
{
closed = 1;
nodes = (
"180 193 LINE",
"180 264 LINE SMOOTH",
"180 436 OFFCURVE",
"221 576 OFFCURVE",
"221 650 CURVE SMOOTH",
"221 693 OFFCURVE",
"195 714 OFFCURVE",
"157 714 CURVE SMOOTH",
"119 714 OFFCURVE",
"87 694 OFFCURVE",
"87 649 CURVE SMOOTH",
"87 567 OFFCURVE",
"124 422 OFFCURVE",
"124 265 CURVE SMOOTH",
"124 193 LINE"
);
},
{
closed = 1;
nodes = (
"194 -14 OFFCURVE",
"223 16 OFFCURVE",
"223 56 CURVE SMOOTH",
"223 97 OFFCURVE",
"194 126 OFFCURVE",
"153 126 CURVE SMOOTH",
"112 126 OFFCURVE",
"82 97 OFFCURVE",
"82 55 CURVE SMOOTH",
"82 15 OFFCURVE",
"112 -14 OFFCURVE",
"153 -14 CURVE SMOOTH"
);
}
);
};
hints = (
{
place = "{93, 141}";
},
{
place = "{142, 48}";
},
{
horizontal = 1;
place = "{-14, 133}";
},
{
horizontal = 1;
place = "{715, -20}";
target = down;
type = TopGhost;
}
);
layerId = UUID0;
paths = (
{
closed = 1;
nodes = (
"132 194 LINE",
"179 194 LINE",
"196 486 OFFCURVE",
"224 605 OFFCURVE",
"253 691 CURVE",
"241 703 OFFCURVE",
"219 715 OFFCURVE",
"194 715 CURVE SMOOTH",
"158 715 OFFCURVE",
"134 695 OFFCURVE",
"132 651 CURVE SMOOTH",
"131 621 OFFCURVE",
"131 583 OFFCURVE",
"131 533 CURVE SMOOTH"
);
},
{
closed = 1;
nodes = (
"82 9 OFFCURVE",
"109 -14 OFFCURVE",
"150 -14 CURVE SMOOTH",
"191 -14 OFFCURVE",
"223 10 OFFCURVE",
"223 51 CURVE SMOOTH",
"223 92 OFFCURVE",
"196 119 OFFCURVE",
"155 119 CURVE SMOOTH",
"114 119 OFFCURVE",
"82 92 OFFCURVE",
"82 50 CURVE SMOOTH"
);
}
);
width = 329;
},
{
background = {
paths = (
{
closed = 1;
nodes = (
"188 188 LINE",
"188 225 LINE SMOOTH",
"188 378 OFFCURVE",
"237 560 OFFCURVE",
"237 641 CURVE SMOOTH",
"237 690 OFFCURVE",
"205 714 OFFCURVE",
"154 714 CURVE SMOOTH",
"110 714 OFFCURVE",
"71 690 OFFCURVE",
"71 637 CURVE SMOOTH",
"71 566 OFFCURVE",
"116 387 OFFCURVE",
"116 226 CURVE SMOOTH",
"116 188 LINE"
);
},
{
closed = 1;
nodes = (
"203 -15 OFFCURVE",
"237 7 OFFCURVE",
"237 63 CURVE SMOOTH",
"237 118 OFFCURVE",
"203 140 OFFCURVE",
"153 140 CURVE SMOOTH",
"105 140 OFFCURVE",
"71 117 OFFCURVE",
"71 61 CURVE SMOOTH",
"71 6 OFFCURVE",
"105 -15 OFFCURVE",
"153 -15 CURVE SMOOTH"
);
}
);
};
hints = (
{
place = "{75, 178}";
},
{
place = "{124, 77}";
},
{
horizontal = 1;
place = "{-15, 157}";
},
{
horizontal = 1;
place = "{715, -20}";
target = down;
type = TopGhost;
}
);
layerId = "D537FF15-C70F-4B12-AACC-84E5BB5FCF97";
paths = (
{
closed = 1;
nodes = (
"119 194 LINE",
"191 194 LINE",
"208 486 OFFCURVE",
"245 590 OFFCURVE",
"274 676 CURVE",
"252 701 OFFCURVE",
"215 715 OFFCURVE",
"185 715 CURVE SMOOTH",
"139 715 OFFCURVE",
"113 688 OFFCURVE",
"111 644 CURVE SMOOTH",
"110 614 OFFCURVE",
"109 583 OFFCURVE",
"110 533 CURVE SMOOTH"
);
},
{
closed = 1;
nodes = (
"65 11 OFFCURVE",
"99 -15 OFFCURVE",
"151 -15 CURVE SMOOTH",
"203 -15 OFFCURVE",
"243 12 OFFCURVE",
"243 62 CURVE SMOOTH",
"243 110 OFFCURVE",
"209 142 OFFCURVE",
"157 142 CURVE SMOOTH",
"105 142 OFFCURVE",
"65 110 OFFCURVE",
"65 61 CURVE SMOOTH"
);
}
);
width = 344;
}
);
unicode = 0021;
},
{
glyphname = quotedbl;
lastChange = "2016-09-25 07:29:42 +0000";
layers = (
{
background = {
paths = (
{
closed = 1;
nodes = (
"322 549 LINE",
"352 719 LINE SMOOTH",
"354 730 OFFCURVE",
"355 738 OFFCURVE",
"355 745 CURVE SMOOTH",
"355 768 OFFCURVE",
"332 782 OFFCURVE",
"313 782 CURVE SMOOTH",
"280 782 OFFCURVE",
"260 755 OFFCURVE",
"260 726 CURVE SMOOTH",
"260 720 OFFCURVE",
"261 714 OFFCURVE",
"262 707 CURVE SMOOTH",
"288 549 LINE"
);
},
{
closed = 1;
nodes = (
"171 549 LINE",
"201 719 LINE SMOOTH",
"203 730 OFFCURVE",
"204 738 OFFCURVE",
"204 745 CURVE SMOOTH",
"204 768 OFFCURVE",
"181 782 OFFCURVE",
"162 782 CURVE SMOOTH",
"129 782 OFFCURVE",
"109 755 OFFCURVE",
"109 726 CURVE SMOOTH",
"109 720 OFFCURVE",
"110 714 OFFCURVE",
"111 707 CURVE SMOOTH",
"137 549 LINE"
);
}
);
};
components = (
{
name = quotesingle;
transform = "{1, 0, 0, 1, 24, 0}";
},
{
name = quotesingle;
transform = "{1, 0, 0, 1, 176, 0}";
}
);
layerId = UUID0;
width = 401;
},
{
background = {
paths = (
{
closed = 1;
nodes = (
"329 540 LINE",
"367 716 LINE SMOOTH",
"369 724 OFFCURVE",
"370 735 OFFCURVE",
"370 739 CURVE SMOOTH",
"370 770 OFFCURVE",
"340 787 OFFCURVE",
"315 787 CURVE SMOOTH",
"276 787 OFFCURVE",
"253 761 OFFCURVE",
"253 728 CURVE SMOOTH",
"253 723 OFFCURVE",
"255 709 OFFCURVE",
"257 697 CURVE SMOOTH",
"285 540 LINE"
);
},
{
closed = 1;
nodes = (
"172 540 LINE",
"210 716 LINE SMOOTH",
"212 724 OFFCURVE",
"213 735 OFFCURVE",
"213 739 CURVE SMOOTH",
"213 770 OFFCURVE",
"183 787 OFFCURVE",
"158 787 CURVE SMOOTH",
"119 787 OFFCURVE",
"96 761 OFFCURVE",
"96 728 CURVE SMOOTH",
"96 723 OFFCURVE",
"98 709 OFFCURVE",
"100 697 CURVE SMOOTH",
"128 540 LINE"
);
}
);
};
components = (
{
name = quotesingle;
transform = "{1, 0, 0, 1, 24, 0}";
},
{
name = quotesingle;
transform = "{1, 0, 0, 1, 176, 0}";
}
);
layerId = "D537FF15-C70F-4B12-AACC-84E5BB5FCF97";
width = 401;
}
);
leftKerningGroup = quotesingle;
rightKerningGroup = quotesingle;
unicode = 0022;
},
{
glyphname = numbersign;
lastChange = "2016-09-25 07:29:42 +0000";
layers = (
{
background = {
paths = (
{
closed = 1;
nodes = (
"195 0 LINE",
"217 140 LINE",
"402 140 LINE",
"380 0 LINE",
"434 0 LINE",
"456 140 LINE",
"585 140 LINE",
"594 191 LINE",
"464 191 LINE",
"491 367 LINE",
"614 367 LINE",
"623 419 LINE",
"498 419 LINE",
"518 550 LINE",
"463 550 LINE",
"444 419 LINE",
"260 419 LINE",
"280 550 LINE",
"226 550 LINE",
"206 419 LINE",
"83 419 LINE",
"73 367 LINE",
"198 367 LINE",
"171 191 LINE",
"50 191 LINE",
"39 140 LINE",
"162 140 LINE",
"141 0 LINE"
);
},
{
closed = 1;
nodes = (
"251 367 LINE",
"437 367 LINE",
"410 191 LINE",
"225 191 LINE"
);
}
);
};
hints = (
{
horizontal = 1;
place = "{0, 191}";
},
{
horizontal = 1;
place = "{140, 51}";
},
{
horizontal = 1;
place = "{367, 52}";
},
{
horizontal = 1;
place = "{367, 183}";
}
);
layerId = UUID0;
paths = (
{
closed = 1;
nodes = (
"195 0 LINE",
"221 140 LINE",
"406 140 LINE",
"380 0 LINE",
"434 0 LINE",
"460 140 LINE",
"589 140 LINE",
"600 191 LINE",
"470 191 LINE",
"503 367 LINE",
"626 367 LINE",
"637 419 LINE",
"512 419 LINE",
"537 550 LINE",
"482 550 LINE",
"458 419 LINE",
"274 419 LINE",
"299 550 LINE",
"245 550 LINE",
"220 419 LINE",
"97 419 LINE",
"85 367 LINE",
"210 367 LINE",
"177 191 LINE",
"56 191 LINE",
"43 140 LINE",
"166 140 LINE",
"141 0 LINE"
);
},
{
closed = 1;
nodes = (
"449 367 LINE",
"416 191 LINE",
"231 191 LINE",
"263 367 LINE"
);
}
);
width = 674;
},
{
background = {
paths = (
{
closed = 1;
nodes = (
"215 -7 LINE",
"237 133 LINE",
"382 133 LINE",
"360 -7 LINE",
"445 -7 LINE",
"467 133 LINE",
"601 133 LINE",
"613 197 LINE",
"477 197 LINE",
"501 362 LINE",
"631 362 LINE",
"642 426 LINE",
"512 426 LINE",
"533 557 LINE",
"448 557 LINE",
"428 426 LINE",
"282 426 LINE",
"303 557 LINE",
"218 557 LINE",
"198 426 LINE",
"73 426 LINE",
"61 362 LINE",
"188 362 LINE",
"163 197 LINE",
"39 197 LINE",
"26 133 LINE",
"152 133 LINE",
"130 -7 LINE"
);
},
{
closed = 1;
nodes = (
"271 362 LINE",
"418 362 LINE",
"393 197 LINE",
"247 197 LINE"
);
}
);
};
hints = (
{
horizontal = 1;
place = "{136, 65}";
},
{
horizontal = 1;
place = "{363, 66}";
},
{
horizontal = 1;
place = "{363, 187}";
},
{
horizontal = 1;
place = "{0, 21}";
target = up;
type = BottomGhost;
}
);
layerId = "D537FF15-C70F-4B12-AACC-84E5BB5FCF97";
paths = (
{
closed = 1;
nodes = (
"215 0 LINE",
"241 136 LINE",
"396 136 LINE",
"370 0 LINE",
"454 0 LINE",
"480 136 LINE",
"589 136 LINE",
"602 201 LINE",
"492 201 LINE",
"523 363 LINE",
"626 363 LINE",
"639 429 LINE",
"534 429 LINE",
"557 550 LINE",
"472 550 LINE",
"450 429 LINE",
"296 429 LINE",
"319 550 LINE",
"235 550 LINE",
"212 429 LINE",
"99 429 LINE",
"85 363 LINE",
"200 363 LINE",
"169 201 LINE",
"58 201 LINE",
"43 136 LINE",
"156 136 LINE",
"131 0 LINE"
);
},
{
closed = 1;
nodes = (
"439 363 LINE",
"408 201 LINE",
"253 201 LINE",
"283 363 LINE"
);
}
);
width = 674;
}
);
unicode = 0023;
},
{
glyphname = dollar;
lastChange = "2016-09-25 07:29:42 +0000";
layers = (
{
background = {
paths = (
{
closed = 1;
nodes = (
"276 -96 LINE",
"276 -11 LINE",
"401 -5 OFFCURVE",
"460 82 OFFCURVE",
"460 160 CURVE SMOOTH",
"460 279 OFFCURVE",
"362 306 OFFCURVE",
"276 333 CURVE",
"276 512 LINE",
"323 507 OFFCURVE",
"365 482 OFFCURVE",
"390 400 CURVE",
"446 406 LINE",
"428 568 LINE",
"379 568 LINE",
"369 528 LINE",
"347 547 OFFCURVE",
"312 560 OFFCURVE",
"276 565 CURVE",
"276 658 LINE",
"226 658 LINE",
"226 567 LINE",
"116 560 OFFCURVE",
"58 490 OFFCURVE",
"58 416 CURVE SMOOTH",
"58 302 OFFCURVE",
"144 272 OFFCURVE",
"226 248 CURVE",
"226 52 LINE",
"175 61 OFFCURVE",
"128 94 OFFCURVE",
"99 176 CURVE",
"42 172 LINE",
"58 -5 LINE",
"104 -5 LINE",
"117 42 LINE",
"136 22 OFFCURVE",
"175 0 OFFCURVE",
"226 -8 CURVE",
"226 -96 LINE"
);
},
{
closed = 1;
nodes = (
"180 367 OFFCURVE",
"147 390 OFFCURVE",
"147 438 CURVE SMOOTH",
"147 485 OFFCURVE",
"181 507 OFFCURVE",
"226 512 CURVE",
"226 350 LINE"
);
},
{
closed = 1;
nodes = (
"276 232 LINE",
"329 214 OFFCURVE",
"371 191 OFFCURVE",
"371 136 CURVE SMOOTH",
"371 84 OFFCURVE",
"334 54 OFFCURVE",
"276 49 CURVE"
);
}
);
};
hints = (
{
place = "{40, 112}";
},
{
place = "{75, 77}";
},
{
place = "{235, 41}";
},
{
place = "{360, 77}";
},
{
place = "{360, 91}";
},
{
horizontal = 1;
place = "{-11, 53}";
},
{
horizontal = 1;
place = "{407, 161}";
},
{
horizontal = 1;
place = "{516, 52}";
},
{
horizontal = 1;
place = "{-11, 170}";
},
{
horizontal = 1;
place = "{-75, 21}";
target = up;
type = BottomGhost;
},
{
horizontal = 1;
place = "{638, -20}";
target = down;
type = TopGhost;
}
);
layerId = UUID0;
paths = (
{
closed = 1;
nodes = (
"278 558 LINE",
"281 638 LINE",
"240 638 LINE",
"237 556 LINE"
);
},
{
closed = 1;
nodes = (
"270 312 LINE",
"277 527 LINE",
"235 525 LINE",
"229 331 LINE"
);
},
{
closed = 1;
nodes = (
"260 34 LINE",
"267 239 LINE",
"226 257 LINE",
"219 32 LINE"
);
},
{
closed = 1;
nodes = (
"217 -1 LINE",
"215 -75 LINE",
"256 -75 LINE",
"258 1 LINE"
);
},
{
closed = 1;
nodes = (
"246 -10 LINE",
"355 -2 OFFCURVE",
"429 67 OFFCURVE",
"429 160 CURVE SMOOTH",
"429 252 OFFCURVE",
"338 292 OFFCURVE",
"259 328 CURVE",
"242 336 LINE",
"188 362 OFFCURVE",
"144 387 OFFCURVE",
"144 432 CURVE SMOOTH",
"144 476 OFFCURVE",
"170 512 OFFCURVE",
"252 515 CURVE",
"258 516 LINE",
"327 519 OFFCURVE",
"347 494 OFFCURVE",
"340 463 CURVE",
"334 426 LINE",
"343 417 OFFCURVE",
"364 407 OFFCURVE",
"390 407 CURVE SMOOTH",
"421 407 OFFCURVE",
"443 427 OFFCURVE",
"443 461 CURVE SMOOTH",
"443 522 OFFCURVE",
"363 570 OFFCURVE",
"265 568 CURVE",
"253 567 LINE",
"115 560 OFFCURVE",
"67 474 OFFCURVE",
"67 408 CURVE SMOOTH",
"67 310 OFFCURVE",
"157 275 OFFCURVE",
"237 242 CURVE",
"255 234 LINE",
"307 209 OFFCURVE",
"352 184 OFFCURVE",
"352 135 CURVE SMOOTH",
"352 84 OFFCURVE",
"314 47 OFFCURVE",
"247 43 CURVE",
"233 42 LINE",
"168 40 OFFCURVE",
"127 74 OFFCURVE",
"135 115 CURVE SMOOTH",
"140 145 LINE",
"129 152 OFFCURVE",
"109 159 OFFCURVE",
"91 159 CURVE SMOOTH",
"59 159 OFFCURVE",
"32 141 OFFCURVE",
"32 100 CURVE SMOOTH",
"32 36 OFFCURVE",
"114 -13 OFFCURVE",
"232 -11 CURVE"
);
}
);
width = 498;
},
{
background = {
paths = (
{
closed = 1;
nodes = (
"294 -99 LINE",
"294 -12 LINE",
"385 0 OFFCURVE",
"463 59 OFFCURVE",
"463 163 CURVE SMOOTH",
"463 273 OFFCURVE",
"381 306 OFFCURVE",
"294 339 CURVE",
"294 493 LINE",
"328 481 OFFCURVE",
"354 452 OFFCURVE",
"376 390 CURVE",
"448 401 LINE",
"434 574 LINE",
"381 574 LINE",
"370 533 LINE",
"349 546 OFFCURVE",
"321 558 OFFCURVE",
"294 565 CURVE",
"294 670 LINE",
"226 670 LINE",
"226 574 LINE",
"98 569 OFFCURVE",
"42 492 OFFCURVE",
"42 405 CURVE SMOOTH",
"42 308 OFFCURVE",
"93 259 OFFCURVE",
"226 218 CURVE",
"226 64 LINE",
"162 70 OFFCURVE",
"121 114 OFFCURVE",
"96 170 CURVE",
"29 161 LINE",
"44 -13 LINE",
"103 -13 LINE",
"116 27 LINE",
"140 7 OFFCURVE",
"188 -6 OFFCURVE",
"226 -12 CURVE",
"226 -99 LINE"
);
},
{
closed = 1;
nodes = (
"190 382 OFFCURVE",
"171 398 OFFCURVE",
"171 432 CURVE SMOOTH",
"171 467 OFFCURVE",
"192 490 OFFCURVE",
"226 497 CURVE",
"226 366 LINE"
);
},
{
closed = 1;
nodes = (
"294 192 LINE",
"318 178 OFFCURVE",
"331 161 OFFCURVE",
"331 134 CURVE SMOOTH",
"331 114 OFFCURVE",
"323 88 OFFCURVE",
"294 73 CURVE"
);
}
);
};
hints = (
{
place = "{31, 132}";
},
{
place = "{58, 105}";
},
{
place = "{227, 49}";
},
{
place = "{354, 116}";
},
{
horizontal = 1;
place = "{-14, 59}";
},
{
horizontal = 1;
place = "{394, 174}";
},
{
horizontal = 1;
place = "{511, 57}";
},
{
horizontal = 1;
place = "{-14, 177}";
},
{
horizontal = 1;
place = "{-75, 21}";
target = up;
type = BottomGhost;
},
{
horizontal = 1;
place = "{638, -20}";
target = down;
type = TopGhost;
}
);
layerId = "D537FF15-C70F-4B12-AACC-84E5BB5FCF97";
paths = (
{
closed = 1;
nodes = (
"277 556 LINE",
"281 638 LINE",
"232 638 LINE",
"228 554 LINE"
);
},
{
closed = 1;
nodes = (
"270 329 LINE",
"276 523 LINE",
"227 519 LINE",
"222 348 LINE"
);
},
{
closed = 1;
nodes = (
"260 36 LINE",
"266 232 LINE",
"218 250 LINE",
"211 33 LINE"
);
},
{
closed = 1;
nodes = (
"209 -2 LINE",
"207 -75 LINE",
"256 -75 LINE",
"258 0 LINE"
);
},
{
closed = 1;
nodes = (
"243 -13 LINE",
"368 -6 OFFCURVE",
"462 64 OFFCURVE",
"462 167 CURVE SMOOTH",
"462 281 OFFCURVE",
"347 313 OFFCURVE",
"258 346 CURVE",
"237 354 LINE",
"190 374 OFFCURVE",
"155 396 OFFCURVE",
"155 434 CURVE SMOOTH",
"155 477 OFFCURVE",
"186 503 OFFCURVE",
"243 509 CURVE",
"252 511 LINE",
"338 515 OFFCURVE",
"353 487 OFFCURVE",
"339 448 CURVE SMOOTH",
"327 413 LINE",
"338 402 OFFCURVE",
"358 394 OFFCURVE",
"387 394 CURVE SMOOTH",
"424 394 OFFCURVE",
"452 418 OFFCURVE",
"452 454 CURVE SMOOTH",
"452 527 OFFCURVE",
"379 569 OFFCURVE",
"260 568 CURVE",
"248 567 LINE",
"102 560 OFFCURVE",
"50 478 OFFCURVE",
"50 403 CURVE SMOOTH",
"50 296 OFFCURVE",
"147 263 OFFCURVE",
"230 233 CURVE",
"251 225 LINE",
"303 204 OFFCURVE",
"346 183 OFFCURVE",
"346 140 CURVE SMOOTH",
"346 82 OFFCURVE",
"306 52 OFFCURVE",
"246 46 CURVE",
"237 45 LINE",
"138 40 OFFCURVE",
"138 77 OFFCURVE",
"148 112 CURVE SMOOTH",
"155 138 LINE",
"143 152 OFFCURVE",
"124 163 OFFCURVE",
"92 163 CURVE SMOOTH",
"45 163 OFFCURVE",
"23 134 OFFCURVE",
"23 96 CURVE SMOOTH",
"23 40 OFFCURVE",
"80 -17 OFFCURVE",
"230 -14 CURVE"
);
}
);
width = 498;
}
);
unicode = 0024;
},
{
glyphname = percent;
lastChange = "2016-09-25 07:29:42 +0000";
layers = (
{
background = {
paths = (
{
closed = 1;
nodes = (
"289 -14 LINE",
"651 597 LINE",
"577 597 LINE",
"214 -14 LINE"
);
},
{
closed = 1;
nodes = (
"299 274 OFFCURVE",
"370 333 OFFCURVE",
"370 445 CURVE SMOOTH",
"370 548 OFFCURVE",
"299 597 OFFCURVE",
"217 597 CURVE SMOOTH",
"136 597 OFFCURVE",
"57 553 OFFCURVE",
"57 429 CURVE SMOOTH",
"57 339 OFFCURVE",
"115 274 OFFCURVE",
"212 274 CURVE SMOOTH"
);
},
{
closed = 1;
nodes = (
"166 331 OFFCURVE",
"135 375 OFFCURVE",
"135 440 CURVE SMOOTH",
"135 510 OFFCURVE",
"167 542 OFFCURVE",
"210 542 CURVE SMOOTH",
"260 542 OFFCURVE",
"290 503 OFFCURVE",
"290 435 CURVE SMOOTH",
"290 364 OFFCURVE",
"263 331 OFFCURVE",
"217 331 CURVE SMOOTH"
);
},
{
closed = 1;
nodes = (
"743 -14 OFFCURVE",
"814 45 OFFCURVE",
"814 157 CURVE SMOOTH",
"814 260 OFFCURVE",
"743 309 OFFCURVE",
"661 309 CURVE SMOOTH",
"580 309 OFFCURVE",
"501 265 OFFCURVE",
"501 141 CURVE SMOOTH",
"501 51 OFFCURVE",
"559 -14 OFFCURVE",
"656 -14 CURVE SMOOTH"
);
},
{
closed = 1;
nodes = (
"610 43 OFFCURVE",
"579 87 OFFCURVE",
"579 152 CURVE SMOOTH",
"579 222 OFFCURVE",
"611 254 OFFCURVE",
"654 254 CURVE SMOOTH",
"704 254 OFFCURVE",
"734 215 OFFCURVE",
"734 147 CURVE SMOOTH",
"734 76 OFFCURVE",
"707 43 OFFCURVE",
"661 43 CURVE SMOOTH"
);
}
);
};
hints = (
{
place = "{55, 73}";
},
{
place = "{279, 74}";
},
{
place = "{478, 73}";
},
{
place = "{702, 74}";
},
{
horizontal = 1;
place = "{-11, 52}";
},
{
horizontal = 1;
place = "{262, 50}";
},
{
horizontal = 1;
place = "{274, 52}";
},
{
horizontal = 1;
place = "{547, 50}";
}
);
layerId = UUID0;
paths = (
{
closed = 1;
nodes = (
"201 -11 LINE",
"271 -11 LINE",
"652 597 LINE",
"583 597 LINE"
);
},
{
closed = 1;
nodes = (
"65 339 OFFCURVE",
"117 274 OFFCURVE",
"207 274 CURVE SMOOTH",
"292 274 OFFCURVE",
"363 333 OFFCURVE",
"363 443 CURVE SMOOTH",
"363 551 OFFCURVE",
"295 597 OFFCURVE",
"223 597 CURVE SMOOTH",
"145 597 OFFCURVE",
"65 553 OFFCURVE",
"65 429 CURVE SMOOTH"
);
},
{
closed = 1;
nodes = (
"138 511 OFFCURVE",
"170 547 OFFCURVE",
"214 547 CURVE SMOOTH",
"265 547 OFFCURVE",
"289 506 OFFCURVE",
"289 442 CURVE SMOOTH",
"289 363 OFFCURVE",
"260 326 OFFCURVE",
"213 326 CURVE SMOOTH",
"161 326 OFFCURVE",
"138 375 OFFCURVE",
"138 433 CURVE SMOOTH"
);
},
{
closed = 1;
nodes = (
"488 54 OFFCURVE",
"540 -11 OFFCURVE",
"630 -11 CURVE SMOOTH",
"715 -11 OFFCURVE",
"786 48 OFFCURVE",
"786 158 CURVE SMOOTH",
"786 266 OFFCURVE",
"718 312 OFFCURVE",
"646 312 CURVE SMOOTH",
"568 312 OFFCURVE",
"488 268 OFFCURVE",
"488 144 CURVE SMOOTH"
);
},
{
closed = 1;
nodes = (
"561 226 OFFCURVE",
"593 262 OFFCURVE",
"637 262 CURVE SMOOTH",
"688 262 OFFCURVE",
"712 221 OFFCURVE",
"712 157 CURVE SMOOTH",
"712 78 OFFCURVE",
"683 41 OFFCURVE",
"636 41 CURVE SMOOTH",
"584 41 OFFCURVE",
"561 90 OFFCURVE",
"561 148 CURVE SMOOTH"
);
}
);
width = 833;
},
{
background = {
paths = (
{
closed = 1;
nodes = (
"295 -14 LINE",
"658 597 LINE",
"558 597 LINE",
"193 -14 LINE"
);
},
{
closed = 1;
nodes = (
"309 274 OFFCURVE",
"386 333 OFFCURVE",
"386 444 CURVE SMOOTH",
"386 547 OFFCURVE",
"309 596 OFFCURVE",
"219 596 CURVE SMOOTH",
"131 596 OFFCURVE",
"44 548 OFFCURVE",
"44 425 CURVE SMOOTH",
"44 335 OFFCURVE",
"109 274 OFFCURVE",
"214 274 CURVE SMOOTH"
);
},
{
closed = 1;
nodes = (
"182 336 OFFCURVE",
"161 372 OFFCURVE",
"161 439 CURVE SMOOTH",
"161 512 OFFCURVE",
"183 535 OFFCURVE",
"212 535 CURVE SMOOTH",
"246 535 OFFCURVE",
"267 509 OFFCURVE",
"267 434 CURVE SMOOTH",
"267 359 OFFCURVE",
"248 336 OFFCURVE",
"217 336 CURVE SMOOTH"
);
},
{
closed = 1;
nodes = (
"737 -14 OFFCURVE",
"814 45 OFFCURVE",
"814 156 CURVE SMOOTH",
"814 259 OFFCURVE",
"737 308 OFFCURVE",
"647 308 CURVE SMOOTH",
"559 308 OFFCURVE",
"472 259 OFFCURVE",
"472 136 CURVE SMOOTH",
"472 46 OFFCURVE",
"537 -14 OFFCURVE",
"642 -14 CURVE SMOOTH"
);
},
{
closed = 1;
nodes = (
"610 48 OFFCURVE",
"589 84 OFFCURVE",
"589 151 CURVE SMOOTH",
"589 224 OFFCURVE",
"611 247 OFFCURVE",
"640 247 CURVE SMOOTH",
"674 247 OFFCURVE",
"695 221 OFFCURVE",
"695 146 CURVE SMOOTH",
"695 71 OFFCURVE",
"676 48 OFFCURVE",
"645 48 CURVE SMOOTH"
);
}
);
};
hints = (
{
place = "{45, 89}";
},
{
place = "{252, 91}";
},
{
place = "{469, 89}";
},
{
place = "{676, 91}";
},
{
horizontal = 1;
place = "{-14, 60}";
},
{
horizontal = 1;
place = "{251, 58}";
},
{
horizontal = 1;
place = "{274, 60}";
},
{
horizontal = 1;
place = "{539, 58}";
},
{
horizontal = 1;
place = "{-11, 21}";
target = up;
type = BottomGhost;
}
);
layerId = "D537FF15-C70F-4B12-AACC-84E5BB5FCF97";
paths = (
{
closed = 1;
nodes = (
"187 -11 LINE",
"265 -11 LINE",
"646 597 LINE",
"569 597 LINE"
);
},
{
closed = 1;
nodes = (
"54 339 OFFCURVE",
"106 274 OFFCURVE",
"196 274 CURVE SMOOTH",
"281 274 OFFCURVE",
"352 333 OFFCURVE",
"352 443 CURVE SMOOTH",
"352 551 OFFCURVE",
"284 597 OFFCURVE",
"212 597 CURVE SMOOTH",
"134 597 OFFCURVE",
"54 553 OFFCURVE",
"54 429 CURVE SMOOTH"
);
},
{
closed = 1;
nodes = (
"143 511 OFFCURVE",
"166 539 OFFCURVE",
"203 539 CURVE SMOOTH",
"246 539 OFFCURVE",
"261 506 OFFCURVE",
"261 442 CURVE SMOOTH",
"261 362 OFFCURVE",
"242 334 OFFCURVE",
"202 334 CURVE SMOOTH",
"158 334 OFFCURVE",
"143 372 OFFCURVE",
"143 433 CURVE SMOOTH"
);
},
{
closed = 1;
nodes = (
"478 51 OFFCURVE",
"530 -14 OFFCURVE",
"620 -14 CURVE SMOOTH",
"705 -14 OFFCURVE",
"776 45 OFFCURVE",
"776 155 CURVE SMOOTH",
"776 263 OFFCURVE",
"708 309 OFFCURVE",
"636 309 CURVE SMOOTH",
"558 309 OFFCURVE",
"478 265 OFFCURVE",
"478 141 CURVE SMOOTH"
);
},
{
closed = 1;
nodes = (
"567 223 OFFCURVE",
"590 251 OFFCURVE",
"627 251 CURVE SMOOTH",
"670 251 OFFCURVE",
"685 218 OFFCURVE",
"685 154 CURVE SMOOTH",
"685 74 OFFCURVE",
"666 46 OFFCURVE",
"626 46 CURVE SMOOTH",
"582 46 OFFCURVE",
"567 84 OFFCURVE",
"567 145 CURVE SMOOTH"
);
}
);
width = 807;
}
);
unicode = 0025;
},
{
glyphname = ampersand;
lastChange = "2016-09-25 07:29:43 +0000";
layers = (
{
background = {
paths = (
{
closed = 1;
nodes = (
"382 -14 OFFCURVE",
"450 37 OFFCURVE",
"484 95 CURVE",
"549 32 OFFCURVE",
"594 7 OFFCURVE",
"634 7 CURVE SMOOTH",
"686 7 OFFCURVE",
"718 35 OFFCURVE",
"761 95 CURVE",
"741 129 LINE",
"698 97 OFFCURVE",
"679 92 OFFCURVE",
"664 92 CURVE SMOOTH",
"632 92 OFFCURVE",
"599 110 OFFCURVE",
"520 188 CURVE",
"550 360 OFFCURVE",
"606 412 OFFCURVE",
"640 419 CURVE",
"656 381 OFFCURVE",
"664 357 OFFCURVE",
"698 357 CURVE SMOOTH",
"729 357 OFFCURVE",
"747 386 OFFCURVE",
"747 418 CURVE SMOOTH",
"747 460 OFFCURVE",
"712 487 OFFCURVE",
"670 487 CURVE SMOOTH",
"601 487 OFFCURVE",
"524 443 OFFCURVE",
"477 231 CURVE",
"320 394 LINE",
"399 433 OFFCURVE",
"450 491 OFFCURVE",
"450 573 CURVE SMOOTH",
"450 656 OFFCURVE",
"389 714 OFFCURVE",
"300 714 CURVE SMOOTH",
"192 714 OFFCURVE",
"114 653 OFFCURVE",
"114 544 CURVE SMOOTH",
"114 474 OFFCURVE",
"158 421 OFFCURVE",
"196 383 CURVE",
"112 348 OFFCURVE",
"40 289 OFFCURVE",
"40 181 CURVE SMOOTH",
"40 58 OFFCURVE",
"140 -14 OFFCURVE",
"275 -14 CURVE SMOOTH"
);
},
{
closed = 1;
nodes = (
"205 45 OFFCURVE",
"142 99 OFFCURVE",
"142 198 CURVE SMOOTH",
"142 281 OFFCURVE",
"182 324 OFFCURVE",
"228 349 CURVE",
"299 277 OFFCURVE",
"371 205 OFFCURVE",
"442 133 CURVE",
"416 80 OFFCURVE",
"366 45 OFFCURVE",
"296 45 CURVE SMOOTH"
);
},
{
closed = 1;
nodes = (
"237 473 OFFCURVE",
"201 515 OFFCURVE",
"201 568 CURVE SMOOTH",
"201 625 OFFCURVE",
"238 659 OFFCURVE",
"294 659 CURVE SMOOTH",
"344 659 OFFCURVE",
"385 634 OFFCURVE",
"385 570 CURVE SMOOTH",
"385 525 OFFCURVE",
"362 467 OFFCURVE",
"286 426 CURVE"
);
}
);
};
hints = (
{
place = "{70, 97}";
},
{
place = "{88, 79}";
},
{
place = "{507, 77}";
},
{
place = "{507, 211}";
},
{
place = "{88, 97}";
},
{
horizontal = 1;
place = "{-14, 57}";
},
{
horizontal = 1;
place = "{524, 191}";
},
{
horizontal = 1;
place = "{662, 53}";
}
);
layerId = UUID0;
paths = (
{
closed = 1;
nodes = (
"478 -14 OFFCURVE",
"575 85 OFFCURVE",
"579 203 CURVE SMOOTH",
"581 244 OFFCURVE",
"568 283 OFFCURVE",
"539 328 CURVE",
"533 336 LINE",
"549 333 OFFCURVE",
"583 328 OFFCURVE",
"612 328 CURVE SMOOTH",
"661 328 OFFCURVE",
"713 352 OFFCURVE",
"713 409 CURVE SMOOTH",
"713 451 OFFCURVE",
"686 472 OFFCURVE",
"653 472 CURVE SMOOTH",
"636 473 OFFCURVE",
"618 468 OFFCURVE",
"600 459 CURVE",
"615 420 LINE SMOOTH",
"627 387 OFFCURVE",
"606 369 OFFCURVE",
"569 374 CURVE SMOOTH",
"505 382 LINE",
"475 339 LINE",
"498 292 OFFCURVE",
"502 249 OFFCURVE",
"502 211 CURVE SMOOTH",
"502 110 OFFCURVE",
"426 43 OFFCURVE",
"311 43 CURVE SMOOTH",
"192 43 OFFCURVE",
"162 105 OFFCURVE",
"162 175 CURVE SMOOTH",
"162 263 OFFCURVE",
"232 331 OFFCURVE",
"386 344 CURVE",
"381 393 LINE",
"358 389 OFFCURVE",
"341 387 OFFCURVE",
"318 387 CURVE SMOOTH",
"246 387 OFFCURVE",
"180 405 OFFCURVE",
"180 506 CURVE SMOOTH",
"180 609 OFFCURVE",
"261 662 OFFCURVE",
"355 662 CURVE SMOOTH",
"429 662 OFFCURVE",
"462 624 OFFCURVE",
"436 582 CURVE SMOOTH",
"419 555 LINE",
"429 537 OFFCURVE",
"450 524 OFFCURVE",
"473 524 CURVE SMOOTH",
"514 524 OFFCURVE",
"544 556 OFFCURVE",
"545 593 CURVE SMOOTH",
"548 681 OFFCURVE",
"448 715 OFFCURVE",
"370 715 CURVE SMOOTH",
"200 715 OFFCURVE",
"83 612 OFFCURVE",
"83 494 CURVE SMOOTH",
"83 403 OFFCURVE",
"145 364 OFFCURVE",
"236 355 CURVE",
"235 347 LINE",
"148 323 OFFCURVE",
"65 260 OFFCURVE",
"65 159 CURVE SMOOTH",
"65 24 OFFCURVE",
"188 -14 OFFCURVE",
"296 -14 CURVE SMOOTH"
);
}
);
width = 725;
},
{
background = {
paths = (
{
closed = 1;
nodes = (
"405 -14 OFFCURVE",
"461 39 OFFCURVE",
"495 89 CURVE",
"556 25 OFFCURVE",
"602 0 OFFCURVE",
"659 0 CURVE SMOOTH",
"706 0 OFFCURVE",
"752 31 OFFCURVE",
"800 97 CURVE",
"766 136 LINE",
"737 114 OFFCURVE",
"713 100 OFFCURVE",
"694 100 CURVE SMOOTH",
"657 100 OFFCURVE",
"626 129 OFFCURVE",
"542 211 CURVE",
"569 345 OFFCURVE",
"615 394 OFFCURVE",
"660 419 CURVE",
"677 373 OFFCURVE",
"689 349 OFFCURVE",
"728 349 CURVE SMOOTH",
"760 349 OFFCURVE",
"784 381 OFFCURVE",
"784 418 CURVE SMOOTH",
"784 466 OFFCURVE",
"741 496 OFFCURVE",
"694 496 CURVE SMOOTH",
"621 496 OFFCURVE",
"534 447 OFFCURVE",
"485 269 CURVE",
"365 396 LINE",
"440 430 OFFCURVE",
"492 488 OFFCURVE",
"492 567 CURVE SMOOTH",
"492 654 OFFCURVE",
"420 715 OFFCURVE",
"314 715 CURVE SMOOTH",
"211 715 OFFCURVE",
"118 657 OFFCURVE",
"118 544 CURVE SMOOTH",
"118 479 OFFCURVE",
"158 428 OFFCURVE",
"200 381 CURVE",
"115 346 OFFCURVE",
"49 278 OFFCURVE",
"49 181 CURVE SMOOTH",
"49 37 OFFCURVE",
"177 -14 OFFCURVE",
"279 -14 CURVE SMOOTH"
);
},
{
closed = 1;
nodes = (
"251 69 OFFCURVE",
"193 114 OFFCURVE",
"193 207 CURVE SMOOTH",
"193 268 OFFCURVE",
"218 312 OFFCURVE",
"244 333 CURVE",
"310 265 OFFCURVE",
"375 198 OFFCURVE",
"438 135 CURVE",
"417 94 OFFCURVE",
"372 69 OFFCURVE",
"321 69 CURVE SMOOTH"
);
},
{
closed = 1;
nodes = (
"283 480 OFFCURVE",
"243 525 OFFCURVE",
"243 578 CURVE SMOOTH",
"243 635 OFFCURVE",
"287 655 OFFCURVE",
"320 655 CURVE SMOOTH",
"362 655 OFFCURVE",
"398 627 OFFCURVE",
"398 572 CURVE SMOOTH",
"398 532 OFFCURVE",
"381 482 OFFCURVE",
"325 440 CURVE"
);
}
);
};
hints = (
{
place = "{85, 137}";
},
{
place = "{103, 119}";
},
{
place = "{536, 103}";
},
{
place = "{103, 137}";
},
{
horizontal = 1;
place = "{-14, 65}";
},
{
horizontal = 1;
place = "{319, 164}";
},
{
horizontal = 1;
place = "{337, 55}";
},
{
horizontal = 1;
place = "{516, 199}";
},
{
horizontal = 1;
place = "{654, 61}";
}
);
layerId = "D537FF15-C70F-4B12-AACC-84E5BB5FCF97";
paths = (
{
closed = 1;
nodes = (
"530 -14 OFFCURVE",
"633 90 OFFCURVE",
"634 200 CURVE SMOOTH",
"634 244 OFFCURVE",
"619 279 OFFCURVE",
"580 324 CURVE",
"582 328 LINE",
"598 325 OFFCURVE",
"625 319 OFFCURVE",
"660 319 CURVE SMOOTH",
"717 319 OFFCURVE",
"760 346 OFFCURVE",
"760 407 CURVE SMOOTH",
"760 451 OFFCURVE",
"735 483 OFFCURVE",
"682 483 CURVE SMOOTH",
"664 483 OFFCURVE",
"644 478 OFFCURVE",
"624 465 CURVE",
"641 417 LINE SMOOTH",
"653 384 OFFCURVE",
"641 371 OFFCURVE",
"604 374 CURVE SMOOTH",
"535 380 LINE",
"502 331 LINE",
"525 284 OFFCURVE",
"531 241 OFFCURVE",
"531 208 CURVE SMOOTH",
"531 102 OFFCURVE",
"449 51 OFFCURVE",
"350 51 CURVE SMOOTH",
"255 51 OFFCURVE",
"217 108 OFFCURVE",
"217 175 CURVE SMOOTH",
"217 258 OFFCURVE",
"281 328 OFFCURVE",
"422 337 CURVE",
"417 398 LINE",
"394 394 OFFCURVE",
"377 392 OFFCURVE",
"354 392 CURVE SMOOTH",
"282 392 OFFCURVE",
"235 427 OFFCURVE",
"235 506 CURVE SMOOTH",
"235 609 OFFCURVE",
"316 654 OFFCURVE",
"390 654 CURVE SMOOTH",
"464 654 OFFCURVE",
"487 621 OFFCURVE",
"461 579 CURVE SMOOTH",
"444 552 LINE",
"454 534 OFFCURVE",
"485 516 OFFCURVE",
"515 516 CURVE SMOOTH",
"565 516 OFFCURVE",
"593 552 OFFCURVE",
"593 589 CURVE SMOOTH",
"593 677 OFFCURVE",
"493 715 OFFCURVE",
"398 715 CURVE SMOOTH",
"214 715 OFFCURVE",
"98 617 OFFCURVE",
"98 494 CURVE SMOOTH",
"98 403 OFFCURVE",
"160 364 OFFCURVE",
"251 355 CURVE",
"250 347 LINE",
"149 319 OFFCURVE",
"80 260 OFFCURVE",
"80 159 CURVE SMOOTH",
"80 24 OFFCURVE",
"214 -14 OFFCURVE",
"331 -14 CURVE SMOOTH"
);
}
);
width = 795;
}
);
unicode = 0026;
},
{
glyphname = quotesingle;
lastChange = "2016-09-25 07:29:43 +0000";
layers = (
{
background = {
paths = (
{
closed = 1;
nodes = (
"171 549 LINE",
"201 719 LINE SMOOTH",
"203 730 OFFCURVE",
"204 738 OFFCURVE",
"204 745 CURVE SMOOTH",
"204 768 OFFCURVE",
"181 782 OFFCURVE",
"162 782 CURVE SMOOTH",
"129 782 OFFCURVE",
"109 755 OFFCURVE",
"109 726 CURVE SMOOTH",
"109 720 OFFCURVE",
"110 714 OFFCURVE",
"111 707 CURVE SMOOTH",
"137 549 LINE"
);
}
);
};
hints = (
{
horizontal = 1;
place = "{780, -20}";
target = down;
type = TopGhost;
},
{
horizontal = 1;
place = "{547, 21}";
target = up;
type = BottomGhost;
}
);
layerId = UUID0;
paths = (
{
closed = 1;
nodes = (
"226 717 LINE SMOOTH",
"229 728 OFFCURVE",
"230 736 OFFCURVE",
"230 743 CURVE SMOOTH",
"231 766 OFFCURVE",
"210 780 OFFCURVE",
"191 780 CURVE SMOOTH",
"158 780 OFFCURVE",
"136 753 OFFCURVE",
"135 724 CURVE SMOOTH",
"134 718 OFFCURVE",
"134 712 OFFCURVE",
"135 705 CURVE SMOOTH",
"153 547 LINE",
"187 547 LINE"
);
}
);
width = 250;
},
{
background = {
paths = (
{
closed = 1;
nodes = (
"172 540 LINE",
"210 716 LINE SMOOTH",
"212 724 OFFCURVE",
"213 735 OFFCURVE",
"213 739 CURVE SMOOTH",
"213 770 OFFCURVE",
"183 787 OFFCURVE",
"158 787 CURVE SMOOTH",
"119 787 OFFCURVE",
"96 761 OFFCURVE",
"96 728 CURVE SMOOTH",
"96 723 OFFCURVE",
"98 709 OFFCURVE",
"100 697 CURVE SMOOTH",
"128 540 LINE"
);
}
);
};
hints = (
{
horizontal = 1;
place = "{780, -20}";
target = down;
type = TopGhost;
},
{
horizontal = 1;
place = "{547, 21}";
target = up;
type = BottomGhost;
}
);
layerId = "D537FF15-C70F-4B12-AACC-84E5BB5FCF97";
paths = (
{
closed = 1;
nodes = (
"236 714 LINE SMOOTH",
"239 725 OFFCURVE",
"240 733 OFFCURVE",
"240 740 CURVE SMOOTH",
"241 763 OFFCURVE",
"221 780 OFFCURVE",
"191 780 CURVE SMOOTH",
"151 780 OFFCURVE",
"126 753 OFFCURVE",
"125 724 CURVE SMOOTH",
"124 718 OFFCURVE",
"124 712 OFFCURVE",
"125 705 CURVE SMOOTH",
"150 547 LINE",
"197 547 LINE"
);
}
);
width = 250;
}
);
leftKerningGroup = quotesingle;
rightKerningGroup = quotesingle;
unicode = 0027;
},
{
glyphname = asterisk;
lastChange = "2016-09-25 07:29:43 +0000";
layers = (
{
background = {
paths = (
{
closed = 1;
nodes = (
"280 407 OFFCURVE",
"290 438 OFFCURVE",
"285 465 CURVE SMOOTH",
"266 568 LINE",
"353 491 LINE SMOOTH",
"372 474 OFFCURVE",
"397 467 OFFCURVE",
"410 493 CURVE SMOOTH",
"426 522 OFFCURVE",
"407 546 OFFCURVE",
"380 556 CURVE SMOOTH",
"280 594 LINE",
"390 633 LINE SMOOTH",
"416 642 OFFCURVE",
"432 659 OFFCURVE",
"417 684 CURVE SMOOTH",
"401 713 OFFCURVE",
"370 708 OFFCURVE",
"348 689 CURVE SMOOTH",
"266 619 LINE",
"289 734 LINE SMOOTH",
"295 762 OFFCURVE",
"284 782 OFFCURVE",
"258 782 CURVE SMOOTH",
"224 782 OFFCURVE",
"212 755 OFFCURVE",
"218 724 CURVE SMOOTH",
"237 620 LINE",
"150 697 LINE SMOOTH",
"133 712 OFFCURVE",
"105 717 OFFCURVE",
"92 692 CURVE SMOOTH",
"76 663 OFFCURVE",
"91 642 OFFCURVE",
"123 631 CURVE SMOOTH",
"222 595 LINE",
"113 555 LINE SMOOTH",
"92 548 OFFCURVE",
"72 530 OFFCURVE",
"89 501 CURVE SMOOTH",
"105 472 OFFCURVE",
"137 481 OFFCURVE",
"155 499 CURVE SMOOTH",
"236 569 LINE",
"214 456 LINE SMOOTH",
"209 430 OFFCURVE",
"217 407 OFFCURVE",
"246 407 CURVE SMOOTH"
);
}
);
};
hints = (
{
horizontal = 1;
place = "{782, -20}";
target = down;
type = TopGhost;
}
);
layerId = UUID0;
paths = (
{
closed = 1;
nodes = (
"163 708 LINE",
"129 704 OFFCURVE",
"116 687 OFFCURVE",
"116 668 CURVE SMOOTH",
"116 651 OFFCURVE",
"122 640 OFFCURVE",
"147 631 CURVE SMOOTH",
"243 599 LINE",
"109 555 LINE",
"106 546 OFFCURVE",
"106 535 OFFCURVE",
"106 528 CURVE SMOOTH",
"106 485 OFFCURVE",
"153 487 OFFCURVE",
"172 503 CURVE SMOOTH",
"253 574 LINE",
"225 441 LINE",
"235 424 OFFCURVE",
"256 416 OFFCURVE",
"268 417 CURVE SMOOTH",
"292 418 OFFCURVE",
"305 437 OFFCURVE",
"301 463 CURVE SMOOTH",
"283 573 LINE",
"381 479 LINE",
"412 481 OFFCURVE",
"426 499 OFFCURVE",
"426 518 CURVE SMOOTH",
"426 533 OFFCURVE",
"417 549 OFFCURVE",
"399 556 CURVE SMOOTH",
"299 596 LINE",
"428 641 LINE",
"432 652 OFFCURVE",
"433 661 OFFCURVE",
"433 669 CURVE SMOOTH",
"433 707 OFFCURVE",
"395 710 OFFCURVE",
"377 694 CURVE SMOOTH",
"287 619 LINE",
"317 765 LINE",
"306 776 OFFCURVE",
"292 782 OFFCURVE",
"279 782 CURVE SMOOTH",
"253 782 OFFCURVE",
"238 766 OFFCURVE",
"243 727 CURVE SMOOTH",
"258 620 LINE"
);
}
);
width = 473;
},
{
background = {
paths = (
{
closed = 1;
nodes = (
"272 404 OFFCURVE",
"290 432 OFFCURVE",
"282 469 CURVE SMOOTH",
"261 564 LINE",
"340 489 LINE",
"377 459 OFFCURVE",
"412 476 OFFCURVE",
"412 519 CURVE SMOOTH",
"412 546 OFFCURVE",
"394 558 OFFCURVE",
"373 565 CURVE SMOOTH",
"280 597 LINE",
"383 630 LINE SMOOTH",
"405 637 OFFCURVE",
"420 650 OFFCURVE",
"420 674 CURVE SMOOTH",
"420 706 OFFCURVE",
"383 739 OFFCURVE",
"339 699 CURVE SMOOTH",
"262 629 LINE",
"286 740 LINE SMOOTH",
"292 770 OFFCURVE",
"277 791 OFFCURVE",
"247 791 CURVE SMOOTH",
"218 791 OFFCURVE",
"195 773 OFFCURVE",
"202 738 CURVE SMOOTH",
"223 632 LINE",
"145 704 LINE SMOOTH",
"111 734 OFFCURVE",
"74 717 OFFCURVE",
"74 676 CURVE SMOOTH",
"74 649 OFFCURVE",
"91 637 OFFCURVE",
"111 630 CURVE SMOOTH",
"202 598 LINE",
"102 564 LINE SMOOTH",
"76 555 OFFCURVE",
"66 545 OFFCURVE",
"66 525 CURVE SMOOTH",
"66 487 OFFCURVE",
"114 465 OFFCURVE",
"150 497 CURVE",
"222 564 LINE",
"199 460 LINE SMOOTH",
"192 428 OFFCURVE",
"205 404 OFFCURVE",
"236 404 CURVE SMOOTH"
);
}
);
};
hints = (
{
horizontal = 1;
place = "{417, 21}";
target = up;
type = BottomGhost;
},
{
horizontal = 1;
place = "{782, -20}";
target = down;
type = TopGhost;
}
);
layerId = "D537FF15-C70F-4B12-AACC-84E5BB5FCF97";
paths = (
{
closed = 1;
nodes = (
"170 711 LINE",
"136 707 OFFCURVE",
"115 687 OFFCURVE",
"115 668 CURVE SMOOTH",
"115 651 OFFCURVE",
"121 641 OFFCURVE",
"146 631 CURVE SMOOTH",
"229 599 LINE",
"110 563 LINE",
"107 554 OFFCURVE",
"105 535 OFFCURVE",
"105 528 CURVE SMOOTH",
"105 485 OFFCURVE",
"152 487 OFFCURVE",
"171 503 CURVE SMOOTH",
"247 565 LINE",
"217 444 LINE",
"227 427 OFFCURVE",
"250 417 OFFCURVE",
"266 417 CURVE SMOOTH",
"290 417 OFFCURVE",
"303 437 OFFCURVE",
"300 463 CURVE SMOOTH",
"288 562 LINE",
"372 476 LINE",
"403 479 OFFCURVE",
"425 496 OFFCURVE",
"425 518 CURVE SMOOTH",
"425 533 OFFCURVE",
"419 547 OFFCURVE",
"398 556 CURVE SMOOTH",
"310 596 LINE",
"427 633 LINE",
"431 644 OFFCURVE",
"432 661 OFFCURVE",
"432 669 CURVE SMOOTH",
"432 707 OFFCURVE",
"399 711 OFFCURVE",
"376 694 CURVE SMOOTH",
"293 632 LINE",
"324 763 LINE",
"313 774 OFFCURVE",
"291 782 OFFCURVE",
"278 782 CURVE SMOOTH",
"252 782 OFFCURVE",
"238 766 OFFCURVE",
"242 727 CURVE SMOOTH",
"251 632 LINE"
);
}
);
width = 473;
}
);
unicode = 002A;
},
{
glyphname = plus;
lastChange = "2016-09-25 07:29:42 +0000";
layers = (
{
background = {
paths = (
{
closed = 1;
nodes = (
"323 81 LINE",
"323 276 LINE",
"507 276 LINE",
"507 339 LINE",
"323 339 LINE",
"323 521 LINE",
"256 521 LINE",
"256 339 LINE",
"79 339 LINE",
"79 276 LINE",
"256 276 LINE",
"256 81 LINE"
);
}
);
};
hints = (
{
place = "{259, 67}";
},
{
horizontal = 1;
place = "{276, 63}";
},
{
horizontal = 1;
place = "{276, 245}";
},
{
horizontal = 1;
place = "{81, 21}";
target = up;
type = BottomGhost;
}
);
layerId = UUID0;
paths = (
{
closed = 1;
nodes = (
"516 276 LINE",
"518 339 LINE",
"334 339 LINE",
"341 521 LINE",
"274 521 LINE",
"267 339 LINE",
"90 339 LINE",
"88 276 LINE",
"265 276 LINE",
"258 81 LINE",
"325 81 LINE",
"332 276 LINE"
);
}
);
width = 582;
},
{
background = {
paths = (
{
closed = 1;
nodes = (
"346 81 LINE",
"346 262 LINE",
"517 262 LINE",
"517 356 LINE",
"346 356 LINE",
"346 533 LINE",
"238 533 LINE",
"238 356 LINE",
"67 356 LINE",
"67 262 LINE",
"238 262 LINE",
"238 81 LINE"
);
}
);
};
hints = (
{
place = "{242, 102}";
},
{
horizontal = 1;
place = "{265, 89}";
},
{
horizontal = 1;
place = "{533, -20}";
target = down;
type = TopGhost;
},
{
horizontal = 1;
place = "{81, 21}";
target = up;
type = BottomGhost;
}
);
layerId = "D537FF15-C70F-4B12-AACC-84E5BB5FCF97";
paths = (
{
closed = 1;
nodes = (
"521 265 LINE",
"525 354 LINE",
"353 354 LINE",
"360 533 LINE",
"258 533 LINE",
"251 354 LINE",
"79 354 LINE",
"75 265 LINE",
"247 265 LINE",
"239 81 LINE",
"341 81 LINE",
"349 265 LINE"
);
}
);
width = 582;
}
);
unicode = 002B;
},
{
glyphname = comma;
lastChange = "2016-09-25 07:29:42 +0000";
layers = (
{
background = {
paths = (
{
closed = 1;
nodes = (
"183 -117 OFFCURVE",
"225 -28 OFFCURVE",
"225 31 CURVE SMOOTH",
"225 83 OFFCURVE",
"199 129 OFFCURVE",
"140 129 CURVE SMOOTH",
"96 129 OFFCURVE",
"67 97 OFFCURVE",
"67 55 CURVE SMOOTH",
"67 21 OFFCURVE",
"86 0 OFFCURVE",
"129 0 CURVE SMOOTH",
"153 0 LINE",
"149 -44 OFFCURVE",
"126 -85 OFFCURVE",
"66 -131 CURVE",
"95 -168 LINE"
);
}
);
};
hints = (
{
place = "{163, 83}";
},
{
horizontal = 1;
place = "{-168, 21}";
target = up;
type = BottomGhost;
},
{
horizontal = 1;
place = "{121, -20}";
target = down;
type = TopGhost;
}
);
layerId = UUID0;
paths = (
{
closed = 1;
nodes = (
"61 -131 LINE",
"93 -107 OFFCURVE",
"143 -61 OFFCURVE",
"143 -27 CURVE SMOOTH",
"143 -16 OFFCURVE",
"138 -5 OFFCURVE",
"121 1 CURVE SMOOTH",
"83 14 LINE",
"65 59 OFFCURVE",
"81 121 OFFCURVE",
"148 121 CURVE SMOOTH",
"203 121 OFFCURVE",
"226 77 OFFCURVE",
"226 31 CURVE SMOOTH",
"226 -28 OFFCURVE",
"180 -108 OFFCURVE",
"89 -168 CURVE"
);
}
);
width = 328;
},
{
background = {
paths = (
{
closed = 1;
nodes = (
"190 -123 OFFCURVE",
"232 -34 OFFCURVE",
"232 45 CURVE SMOOTH",
"232 100 OFFCURVE",
"202 144 OFFCURVE",
"139 144 CURVE SMOOTH",
"85 144 OFFCURVE",
"53 110 OFFCURVE",
"53 61 CURVE SMOOTH",
"53 13 OFFCURVE",
"84 -10 OFFCURVE",
"129 -10 CURVE SMOOTH",
"144 -10 LINE",
"139 -52 OFFCURVE",
"103 -97 OFFCURVE",
"57 -129 CURVE",
"93 -176 LINE"
);
}
);
};
hints = (
{
place = "{129, 110}";
},
{
horizontal = 1;
place = "{-168, 21}";
target = up;
type = BottomGhost;
},
{
horizontal = 1;
place = "{149, -20}";
target = down;
type = TopGhost;
}
);
layerId = "D537FF15-C70F-4B12-AACC-84E5BB5FCF97";
paths = (
{
closed = 1;
nodes = (
"16 -119 LINE",
"54 -93 OFFCURVE",
"109 -52 OFFCURVE",
"109 -14 CURVE SMOOTH",
"109 -2 OFFCURVE",
"103 10 OFFCURVE",
"83 16 CURVE SMOOTH",
"46 29 LINE",
"29 72 OFFCURVE",
"46 149 OFFCURVE",
"125 149 CURVE SMOOTH",
"190 149 OFFCURVE",
"219 102 OFFCURVE",
"219 51 CURVE SMOOTH",
"219 -13 OFFCURVE",
"163 -102 OFFCURVE",
"55 -168 CURVE"
);
}
);
width = 292;
}
);
leftKerningGroup = period;
rightKerningGroup = period;
unicode = 002C;
},
{
glyphname = hyphen;
lastChange = "2016-09-25 07:29:43 +0000";
layers = (
{
background = {
paths = (
{
closed = 1;
nodes = (
"312 247 LINE",
"312 329 LINE",
"45 329 LINE",
"45 247 LINE"
);
}
);
};
hints = (
{
horizontal = 1;
place = "{247, 82}";
}
);
layerId = UUID0;
paths = (
{
closed = 1;
nodes = (
"53 247 LINE",
"320 247 LINE",
"323 329 LINE",
"56 329 LINE"
);
}
);
width = 354;
},
{
background = {
paths = (
{
closed = 1;
nodes = (
"328 233 LINE",
"328 329 LINE",
"31 329 LINE",
"31 233 LINE"
);
}
);
};
hints = (
{
horizontal = 1;
place = "{231, 102}";
}
);
layerId = "D537FF15-C70F-4B12-AACC-84E5BB5FCF97";
paths = (
{
closed = 1;
nodes = (
"51 231 LINE",
"318 231 LINE",
"322 333 LINE",
"55 333 LINE"
);
}
);
width = 354;
}
);
leftKerningGroup = hyphen;
rightKerningGroup = hyphen;
unicode = 002D;
},
{
glyphname = period;
lastChange = "2016-09-25 07:29:43 +0000";
layers = (
{
background = {
paths = (
{
closed = 1;
nodes = (
"200 -17 OFFCURVE",
"232 15 OFFCURVE",
"232 59 CURVE SMOOTH",
"232 103 OFFCURVE",
"200 134 OFFCURVE",
"155 134 CURVE SMOOTH",
"111 134 OFFCURVE",
"79 102 OFFCURVE",
"79 58 CURVE SMOOTH",
"79 14 OFFCURVE",
"111 -17 OFFCURVE",
"155 -17 CURVE SMOOTH"
);
}
);
};
hints = (
{
place = "{85, 157}";
},
{
horizontal = 1;
place = "{-17, 145}";
}
);
layerId = UUID0;
paths = (
{
closed = 1;
nodes = (
"74 7 OFFCURVE",
"105 -17 OFFCURVE",
"149 -17 CURVE SMOOTH",
"195 -17 OFFCURVE",
"231 11 OFFCURVE",
"231 59 CURVE SMOOTH",
"231 100 OFFCURVE",
"200 128 OFFCURVE",
"154 128 CURVE SMOOTH",
"106 128 OFFCURVE",
"74 95 OFFCURVE",
"74 50 CURVE SMOOTH"
);
}
);
width = 319;
},
{
background = {
paths = (
{
closed = 1;
nodes = (
"198 -19 OFFCURVE",
"234 5 OFFCURVE",
"234 63 CURVE SMOOTH",
"234 120 OFFCURVE",
"198 144 OFFCURVE",
"145 144 CURVE SMOOTH",
"96 144 OFFCURVE",
"60 119 OFFCURVE",
"60 61 CURVE SMOOTH",
"60 4 OFFCURVE",
"96 -19 OFFCURVE",
"145 -19 CURVE SMOOTH"
);
}
);
};
hints = (
{
place = "{62, 186}";
},
{
horizontal = 1;
place = "{-15, 165}";
}
);
layerId = "D537FF15-C70F-4B12-AACC-84E5BB5FCF97";
paths = (
{
closed = 1;
nodes = (
"52 12 OFFCURVE",
"88 -15 OFFCURVE",
"142 -15 CURVE SMOOTH",
"196 -15 OFFCURVE",
"238 13 OFFCURVE",
"238 66 CURVE SMOOTH",
"238 116 OFFCURVE",
"202 150 OFFCURVE",
"148 150 CURVE SMOOTH",
"94 150 OFFCURVE",
"52 116 OFFCURVE",
"52 65 CURVE SMOOTH"
);
}
);
width = 296;
}
);
leftKerningGroup = period;
rightKerningGroup = period;
unicode = 002E;
},
{
glyphname = slash;
lastChange = "2016-09-25 07:29:43 +0000";
layers = (
{
background = {
paths = (
{
closed = 1;
nodes = (
"65 -110 LINE",
"389 802 LINE",
"326 802 LINE",
"1 -110 LINE"
);
}
);
};
hints = (
{
horizontal = 1;
place = "{-110, 21}";
target = up;
type = BottomGhost;
},
{
horizontal = 1;
place = "{802, -20}";
target = down;
type = TopGhost;
}
);
layerId = UUID0;
paths = (
{
closed = 1;
nodes = (
"-3 -110 LINE",
"61 -110 LINE",
"417 802 LINE",
"354 802 LINE"
);
}
);
width = 428;
},
{
background = {
paths = (
{
closed = 1;
nodes = (
"98 -110 LINE",
"442 802 LINE",
"336 802 LINE",
"-9 -110 LINE"
);
}
);
};
hints = (
{
horizontal = 1;
place = "{-110, 21}";
target = up;
type = BottomGhost;
},
{
horizontal = 1;
place = "{802, -20}";
target = down;
type = TopGhost;
}
);
layerId = "D537FF15-C70F-4B12-AACC-84E5BB5FCF97";
paths = (
{
closed = 1;
nodes = (
"-13 -110 LINE",
"69 -110 LINE",
"425 802 LINE",
"344 802 LINE"
);
}
);
width = 428;
}
);
unicode = 002F;
},
{
glyphname = zero;
lastChange = "2016-09-25 07:29:43 +0000";
layers = (
{
background = {
paths = (
{
closed = 1;
nodes = (
"435 -14 OFFCURVE",
"568 70 OFFCURVE",
"568 287 CURVE SMOOTH",
"568 496 OFFCURVE",
"439 568 OFFCURVE",
"311 568 CURVE SMOOTH",
"176 568 OFFCURVE",
"43 480 OFFCURVE",
"43 270 CURVE SMOOTH",
"43 92 OFFCURVE",
"138 -14 OFFCURVE",
"302 -14 CURVE SMOOTH"
);
},
{
closed = 1;
nodes = (
"207 40 OFFCURVE",
"146 114 OFFCURVE",
"146 276 CURVE SMOOTH",
"146 445 OFFCURVE",
"213 512 OFFCURVE",
"308 512 CURVE SMOOTH",
"401 512 OFFCURVE",
"465 450 OFFCURVE",
"465 280 CURVE SMOOTH",
"465 115 OFFCURVE",
"409 40 OFFCURVE",
"304 40 CURVE SMOOTH"
);
}
);
};
hints = (
{
place = "{50, 97}";
},
{
place = "{461, 97}";
},
{
horizontal = 1;
place = "{-14, 56}";
},
{
horizontal = 1;
place = "{510, 58}";
}
);
layerId = UUID0;
paths = (
{
closed = 1;
nodes = (
"51 88 OFFCURVE",
"135 -14 OFFCURVE",
"291 -14 CURVE SMOOTH",
"479 -14 OFFCURVE",
"559 140 OFFCURVE",
"559 306 CURVE SMOOTH",
"559 502 OFFCURVE",
"441 568 OFFCURVE",
"321 568 CURVE SMOOTH",
"139 568 OFFCURVE",
"51 426 OFFCURVE",
"51 260 CURVE SMOOTH"
);
},
{
closed = 1;
nodes = (
"405 510 OFFCURVE",
"462 457 OFFCURVE",
"462 298 CURVE SMOOTH",
"462 164 OFFCURVE",
"426 42 OFFCURVE",
"295 42 CURVE SMOOTH",
"204 42 OFFCURVE",
"148 111 OFFCURVE",
"148 259 CURVE SMOOTH",
"148 398 OFFCURVE",
"188 510 OFFCURVE",
"316 510 CURVE SMOOTH"
);
}
);
width = 600;
},
{
background = {
paths = (
{
closed = 1;
nodes = (
"465 -14 OFFCURVE",
"607 74 OFFCURVE",
"607 297 CURVE SMOOTH",
"607 512 OFFCURVE",
"470 574 OFFCURVE",
"317 574 CURVE SMOOTH",
"163 574 OFFCURVE",
"36 472 OFFCURVE",
"36 277 CURVE SMOOTH",
"36 95 OFFCURVE",
"133 -14 OFFCURVE",
"316 -14 CURVE SMOOTH"
);
},
{
closed = 1;
nodes = (
"238 65 OFFCURVE",
"189 130 OFFCURVE",
"189 283 CURVE SMOOTH",
"189 410 OFFCURVE",
"227 494 OFFCURVE",
"324 494 CURVE SMOOTH",
"398 494 OFFCURVE",
"454 452 OFFCURVE",
"454 291 CURVE SMOOTH",
"454 134 OFFCURVE",
"404 65 OFFCURVE",
"320 65 CURVE SMOOTH"
);
}
);
};
hints = (
{
place = "{40, 137}";
},
{
place = "{431, 137}";
},
{
horizontal = 1;
place = "{-14, 67}";
},
{
horizontal = 1;
place = "{500, 68}";
}
);
layerId = "D537FF15-C70F-4B12-AACC-84E5BB5FCF97";
paths = (
{
closed = 1;
nodes = (
"41 88 OFFCURVE",
"125 -14 OFFCURVE",
"291 -14 CURVE SMOOTH",
"489 -14 OFFCURVE",
"569 140 OFFCURVE",
"569 303 CURVE SMOOTH",
"569 502 OFFCURVE",
"451 568 OFFCURVE",
"321 568 CURVE SMOOTH",
"129 568 OFFCURVE",
"41 426 OFFCURVE",
"41 260 CURVE SMOOTH"
);
},
{
closed = 1;
nodes = (
"385 500 OFFCURVE",
"432 451 OFFCURVE",
"432 298 CURVE SMOOTH",
"432 162 OFFCURVE",
"406 53 OFFCURVE",
"297 53 CURVE SMOOTH",
"214 53 OFFCURVE",
"178 124 OFFCURVE",
"178 259 CURVE SMOOTH",
"178 398 OFFCURVE",
"213 500 OFFCURVE",
"316 500 CURVE SMOOTH"
);
}
);
width = 600;
}
);
unicode = 0030;
},
{
glyphname = one;
lastChange = "2016-09-25 07:29:43 +0000";
layers = (
{
background = {
paths = (
{
closed = 1;
nodes = (
"367 0 LINE",
"367 47 LINE",
"290 57 LINE SMOOTH",
"262 60 OFFCURVE",
"259 70 OFFCURVE",
"259 96 CURVE SMOOTH",
"259 558 LINE",
"242 568 LINE",
"47 543 LINE",
"41 492 LINE",
"123 492 LINE SMOOTH",
"160 492 OFFCURVE",
"166 480 OFFCURVE",
"166 439 CURVE SMOOTH",
"166 97 LINE SMOOTH",
"166 69 OFFCURVE",
"162 60 OFFCURVE",
"136 57 CURVE SMOOTH",
"52 46 LINE",
"52 0 LINE"
);
}
);
};
hints = (
{
place = "{170, 86}";
},
{
horizontal = 1;
place = "{0, 21}";
target = up;
type = BottomGhost;
},
{
horizontal = 1;
place = "{567, -20}";
target = down;
type = TopGhost;
}
);
layerId = UUID0;
paths = (
{
closed = 1;
nodes = (
"163 62 LINE",
"47 46 LINE",
"41 0 LINE",
"351 0 LINE",
"357 47 LINE",
"248 63 LINE",
"267 557 LINE",
"250 567 LINE",
"59 542 LINE",
"52 491 LINE",
"179 491 LINE"
);
}
);
width = 404;
},
{
background = {
paths = (
{
closed = 1;
nodes = (
"394 0 LINE",
"394 60 LINE",
"326 72 LINE SMOOTH",
"302 76 OFFCURVE",
"299 77 OFFCURVE",
"299 112 CURVE SMOOTH",
"299 550 LINE",
"266 569 LINE",
"54 542 LINE",
"46 475 LINE",
"128 475 LINE SMOOTH",
"157 475 OFFCURVE",
"158 455 OFFCURVE",
"158 433 CURVE SMOOTH",
"158 104 LINE",
"158 89 OFFCURVE",
"154 74 OFFCURVE",
"135 71 CURVE SMOOTH",
"58 61 LINE",
"58 0 LINE"
);
}
);
};
hints = (
{
place = "{170, 126}";
},
{
horizontal = 1;
place = "{0, 21}";
target = up;
type = BottomGhost;
},
{
horizontal = 1;
place = "{567, -20}";
target = down;
type = TopGhost;
}
);
layerId = "D537FF15-C70F-4B12-AACC-84E5BB5FCF97";
paths = (
{
closed = 1;
nodes = (
"163 70 LINE",
"47 54 LINE",
"41 0 LINE",
"391 0 LINE",
"397 55 LINE",
"288 71 LINE",
"307 557 LINE",
"290 567 LINE",
"59 542 LINE",
"52 483 LINE",
"179 483 LINE"
);
}
);
width = 419;
}
);
unicode = 0031;
},
{
glyphname = two;
lastChange = "2016-09-25 07:29:43 +0000";
layers = (
{
background = {
paths = (
{
closed = 1;
nodes = (
"478 0 LINE",
"492 178 LINE",
"441 178 LINE",
"409 86 OFFCURVE",
"387 73 OFFCURVE",
"301 73 CURVE SMOOTH",
"165 73 LINE",
"165 78 LINE",
"221 113 LINE SMOOTH",
"333 183 OFFCURVE",
"444 264 OFFCURVE",
"444 401 CURVE SMOOTH",
"444 512 OFFCURVE",
"364 568 OFFCURVE",
"248 568 CURVE SMOOTH",
"135 568 OFFCURVE",
"42 497 OFFCURVE",
"42 419 CURVE SMOOTH",
"42 386 OFFCURVE",
"58 359 OFFCURVE",
"101 359 CURVE SMOOTH",
"134 359 OFFCURVE",
"161 384 OFFCURVE",
"161 407 CURVE SMOOTH",
"161 421 OFFCURVE",
"142 451 OFFCURVE",
"129 469 CURVE",
"150 495 OFFCURVE",
"189 514 OFFCURVE",
"235 514 CURVE SMOOTH",
"295 514 OFFCURVE",
"342 489 OFFCURVE",
"342 393 CURVE SMOOTH",
"342 307 OFFCURVE",
"283 228 OFFCURVE",
"199 163 CURVE SMOOTH",
"156 130 OFFCURVE",
"87 79 OFFCURVE",
"46 53 CURVE",
"46 0 LINE"
);
}
);
};
hints = (
{
place = "{356, 95}";
},
{
horizontal = 1;
place = "{0, 73}";
},
{
horizontal = 1;
place = "{363, 205}";
},
{
horizontal = 1;
place = "{516, 52}";
}
);
layerId = UUID0;
paths = (
{
closed = 1;
nodes = (
"53 386 OFFCURVE",
"76 363 OFFCURVE",
"114 363 CURVE SMOOTH",
"142 363 OFFCURVE",
"166 381 OFFCURVE",
"176 405 CURVE",
"155 429 LINE SMOOTH",
"117 472 OFFCURVE",
"155 516 OFFCURVE",
"238 516 CURVE SMOOTH",
"303 516 OFFCURVE",
"348 473 OFFCURVE",
"348 404 CURVE SMOOTH",
"348 310 OFFCURVE",
"281 228 OFFCURVE",
"194 163 CURVE SMOOTH",
"150 130 OFFCURVE",
"79 79 OFFCURVE",
"37 53 CURVE",
"36 0 LINE",
"468 0 LINE",
"491 182 LINE",
"440 182 LINE",
"412 91 OFFCURVE",
"393 73 OFFCURVE",
"307 73 CURVE SMOOTH",
"157 73 LINE",
"157 78 LINE",
"215 113 LINE SMOOTH",
"329 183 OFFCURVE",
"443 267 OFFCURVE",
"443 406 CURVE SMOOTH",
"443 505 OFFCURVE",
"373 568 OFFCURVE",
"249 568 CURVE SMOOTH",
"160 568 OFFCURVE",
"53 515 OFFCURVE",
"53 424 CURVE SMOOTH"
);
}
);
width = 550;
},
{
background = {
paths = (
{
closed = 1;
nodes = (
"513 0 LINE",
"528 194 LINE",
"458 194 LINE",
"426 105 OFFCURVE",
"409 95 OFFCURVE",
"343 95 CURVE",
"208 95 LINE",
"208 100 LINE",
"254 130 LINE SMOOTH",
"363 201 OFFCURVE",
"492 269 OFFCURVE",
"492 400 CURVE SMOOTH",
"492 514 OFFCURVE",
"406 574 OFFCURVE",
"273 574 CURVE SMOOTH",
"134 574 OFFCURVE",
"43 502 OFFCURVE",
"43 422 CURVE SMOOTH",
"43 384 OFFCURVE",
"66 352 OFFCURVE",
"117 352 CURVE SMOOTH",
"165 352 OFFCURVE",
"190 388 OFFCURVE",
"190 416 CURVE SMOOTH",
"190 430 OFFCURVE",
"185 437 OFFCURVE",
"161 466 CURVE",
"183 488 OFFCURVE",
"218 498 OFFCURVE",
"245 498 CURVE SMOOTH",
"295 498 OFFCURVE",
"339 478 OFFCURVE",
"339 392 CURVE SMOOTH",
"339 310 OFFCURVE",
"279 250 OFFCURVE",
"200 187 CURVE SMOOTH",
"157 153 OFFCURVE",
"91 103 OFFCURVE",
"49 78 CURVE",
"49 0 LINE"
);
}
);
};
hints = (
{
place = "{340, 135}";
},
{
horizontal = 1;
place = "{0, 93}";
},
{
horizontal = 1;
place = "{508, 60}";
}
);
layerId = "D537FF15-C70F-4B12-AACC-84E5BB5FCF97";
paths = (
{
closed = 1;
nodes = (
"53 379 OFFCURVE",
"79 356 OFFCURVE",
"120 356 CURVE SMOOTH",
"161 356 OFFCURVE",
"185 382 OFFCURVE",
"196 409 CURVE",
"173 436 LINE SMOOTH",
"142 472 OFFCURVE",
"160 508 OFFCURVE",
"228 508 CURVE SMOOTH",
"299 508 OFFCURVE",
"338 473 OFFCURVE",
"338 404 CURVE SMOOTH",
"338 317 OFFCURVE",
"290 255 OFFCURVE",
"203 190 CURVE SMOOTH",
"159 157 OFFCURVE",
"88 106 OFFCURVE",
"46 80 CURVE",
"42 0 LINE",
"482 0 LINE",
"509 202 LINE",
"450 202 LINE",
"422 111 OFFCURVE",
"403 93 OFFCURVE",
"317 93 CURVE SMOOTH",
"172 93 LINE",
"172 98 LINE",
"230 133 LINE SMOOTH",
"344 203 OFFCURVE",
"473 267 OFFCURVE",
"473 406 CURVE SMOOTH",
"473 505 OFFCURVE",
"401 568 OFFCURVE",
"255 568 CURVE SMOOTH",
"166 568 OFFCURVE",
"53 518 OFFCURVE",
"53 421 CURVE SMOOTH"
);
}
);
width = 550;
}
);
unicode = 0032;
},
{
glyphname = three;
lastChange = "2016-09-25 07:29:43 +0000";
layers = (
{
background = {
paths = (
{
closed = 1;
nodes = (
"304 -167 OFFCURVE",
"460 -65 OFFCURVE",
"460 87 CURVE SMOOTH",
"460 191 OFFCURVE",
"386 227 OFFCURVE",
"308 247 CURVE",
"315 251 LINE",
"400 300 OFFCURVE",
"428 358 OFFCURVE",
"428 413 CURVE SMOOTH",
"428 516 OFFCURVE",
"346 568 OFFCURVE",
"233 568 CURVE SMOOTH",
"114 568 OFFCURVE",
"21 498 OFFCURVE",
"21 422 CURVE SMOOTH",
"21 387 OFFCURVE",
"39 360 OFFCURVE",
"86 360 CURVE SMOOTH",
"119 360 OFFCURVE",
"139 386 OFFCURVE",
"139 409 CURVE SMOOTH",
"139 423 OFFCURVE",
"121 449 OFFCURVE",
"111 466 CURVE",
"125 487 OFFCURVE",
"162 510 OFFCURVE",
"222 510 CURVE SMOOTH",
"290 510 OFFCURVE",
"330 473 OFFCURVE",
"330 413 CURVE SMOOTH",
"330 334 OFFCURVE",
"272 279 OFFCURVE",
"155 249 CURVE",
"164 192 LINE",
"195 200 OFFCURVE",
"223 209 OFFCURVE",
"248 219 CURVE",
"308 204 OFFCURVE",
"353 164 OFFCURVE",
"353 89 CURVE SMOOTH",
"353 -25 OFFCURVE",
"245 -102 OFFCURVE",
"54 -122 CURVE",
"62 -175 LINE"
);
}
);
};
hints = (
{
place = "{353, 91}";
},
{
place = "{366, 78}";
},
{
place = "{366, 104}";
},
{
horizontal = 1;
place = "{-175, 53}";
},
{
horizontal = 1;
place = "{363, 205}";
},
{
horizontal = 1;
place = "{516, 52}";
},
{
horizontal = 1;
place = "{-175, 181}";
}
);
layerId = UUID0;
paths = (
{
closed = 1;
nodes = (
"428 521 OFFCURVE",
"343 568 OFFCURVE",
"231 568 CURVE SMOOTH",
"134 568 OFFCURVE",
"27 515 OFFCURVE",
"27 424 CURVE SMOOTH",
"27 386 OFFCURVE",
"50 363 OFFCURVE",
"88 363 CURVE SMOOTH",
"116 363 OFFCURVE",
"140 381 OFFCURVE",
"150 405 CURVE",
"129 429 LINE SMOOTH",
"91 472 OFFCURVE",
"129 516 OFFCURVE",
"212 516 CURVE SMOOTH",
"297 516 OFFCURVE",
"337 473 OFFCURVE",
"337 403 CURVE SMOOTH",
"337 327 OFFCURVE",
"286 246 OFFCURVE",
"137 228 CURVE",
"144 179 LINE",
"167 183 OFFCURVE",
"192 185 OFFCURVE",
"215 185 CURVE SMOOTH",
"287 185 OFFCURVE",
"350 160 OFFCURVE",
"350 66 CURVE SMOOTH",
"350 -37 OFFCURVE",
"279 -122 OFFCURVE",
"167 -122 CURVE SMOOTH",
"111 -122 OFFCURVE",
"75 -92 OFFCURVE",
"102 -52 CURVE SMOOTH",
"118 -25 LINE",
"107 -7 OFFCURVE",
"86 6 OFFCURVE",
"63 6 CURVE SMOOTH",
"22 6 OFFCURVE",
"-5 -26 OFFCURVE",
"-5 -63 CURVE SMOOTH",
"-5 -151 OFFCURVE",
"94 -175 OFFCURVE",
"164 -175 CURVE SMOOTH",
"354 -175 OFFCURVE",
"454 -42 OFFCURVE",
"454 68 CURVE SMOOTH",
"454 176 OFFCURVE",
"385 215 OFFCURVE",
"292 225 CURVE",
"292 233 LINE",
"377 266 OFFCURVE",
"428 334 OFFCURVE",
"428 410 CURVE SMOOTH"
);
}
);
width = 524;
},
{
background = {
paths = (
{
closed = 1;
nodes = (
"321 -168 OFFCURVE",
"496 -63 OFFCURVE",
"496 93 CURVE SMOOTH",
"496 189 OFFCURVE",
"425 234 OFFCURVE",
"342 257 CURVE",
"342 262 LINE",
"426 307 OFFCURVE",
"465 362 OFFCURVE",
"465 424 CURVE SMOOTH",
"465 520 OFFCURVE",
"383 574 OFFCURVE",
"257 574 CURVE SMOOTH",
"114 574 OFFCURVE",
"20 500 OFFCURVE",
"20 423 CURVE SMOOTH",
"20 385 OFFCURVE",
"38 352 OFFCURVE",
"89 352 CURVE SMOOTH",
"135 352 OFFCURVE",
"165 387 OFFCURVE",
"165 415 CURVE SMOOTH",
"165 428 OFFCURVE",
"161 439 OFFCURVE",
"136 466 CURVE",
"155 489 OFFCURVE",
"190 498 OFFCURVE",
"219 498 CURVE SMOOTH",
"281 498 OFFCURVE",
"315 464 OFFCURVE",
"315 412 CURVE SMOOTH",
"315 330 OFFCURVE",
"257 282 OFFCURVE",
"139 253 CURVE",
"152 177 LINE",
"189 187 OFFCURVE",
"229 197 OFFCURVE",
"263 214 CURVE",
"305 199 OFFCURVE",
"338 158 OFFCURVE",
"338 95 CURVE SMOOTH",
"338 -12 OFFCURVE",
"229 -84 OFFCURVE",
"37 -105 CURVE",
"49 -176 LINE"
);
}
);
};
hints = (
{
place = "{339, 131}";
},
{
place = "{352, 118}";
},
{
place = "{352, 144}";
},
{
horizontal = 1;
place = "{-175, 61}";
},
{
horizontal = 1;
place = "{508, 60}";
},
{
horizontal = 1;
place = "{-175, 189}";
}
);
layerId = "D537FF15-C70F-4B12-AACC-84E5BB5FCF97";
paths = (
{
closed = 1;
nodes = (
"453 521 OFFCURVE",
"354 568 OFFCURVE",
"236 568 CURVE SMOOTH",
"131 568 OFFCURVE",
"24 515 OFFCURVE",
"24 424 CURVE SMOOTH",
"24 386 OFFCURVE",
"46 356 OFFCURVE",
"88 356 CURVE SMOOTH",
"116 356 OFFCURVE",
"144 365 OFFCURVE",
"168 409 CURVE",
"147 433 LINE SMOOTH",
"109 476 OFFCURVE",
"134 508 OFFCURVE",
"207 508 CURVE SMOOTH",
"275 508 OFFCURVE",
"322 473 OFFCURVE",
"322 403 CURVE SMOOTH",
"322 327 OFFCURVE",
"280 248 OFFCURVE",
"141 232 CURVE",
"149 176 LINE",
"172 180 OFFCURVE",
"192 182 OFFCURVE",
"215 182 CURVE SMOOTH",
"274 182 OFFCURVE",
"335 160 OFFCURVE",
"335 66 CURVE SMOOTH",
"335 -37 OFFCURVE",
"284 -114 OFFCURVE",
"172 -114 CURVE SMOOTH",
"116 -114 OFFCURVE",
"97 -91 OFFCURVE",
"117 -57 CURVE SMOOTH",
"137 -22 LINE",
"126 -4 OFFCURVE",
"95 14 OFFCURVE",
"69 14 CURVE SMOOTH",
"14 14 OFFCURVE",
"-7 -27 OFFCURVE",
"-7 -64 CURVE SMOOTH",
"-7 -152 OFFCURVE",
"92 -175 OFFCURVE",
"169 -175 CURVE SMOOTH",
"382 -175 OFFCURVE",
"479 -42 OFFCURVE",
"479 68 CURVE SMOOTH",
"479 176 OFFCURVE",
"416 213 OFFCURVE",
"317 225 CURVE",
"317 233 LINE",
"406 268 OFFCURVE",
"453 334 OFFCURVE",
"453 410 CURVE SMOOTH"
);
}
);
width = 530;
}
);
unicode = 0033;
},
{
glyphname = four;
lastChange = "2016-09-25 07:29:43 +0000";
layers = (
{
background = {
paths = (
{
closed = 1;
nodes = (
"430 -164 LINE",
"430 0 LINE",
"468 0 LINE SMOOTH",
"499 0 OFFCURVE",
"505 -5 OFFCURVE",
"510 -28 CURVE SMOOTH",
"518 -59 LINE",
"564 -59 LINE",
"564 146 LINE",
"519 146 LINE",
"510 96 LINE SMOOTH",
"506 73 OFFCURVE",
"499 68 OFFCURVE",
"468 68 CURVE SMOOTH",
"430 68 LINE",
"430 559 LINE",
"419 568 LINE",
"338 553 LINE",
"5 50 LINE",
"14 0 LINE",
"338 0 LINE",
"338 -164 LINE"
);
},
{
closed = 1;
nodes = (
"338 443 LINE",
"338 68 LINE",
"89 68 LINE"
);
}
);
};
hints = (
{
place = "{251, 83}";
},
{
place = "{388, 86}";
},
{
place = "{400, 86}";
},
{
horizontal = 1;
place = "{-164, 236}";
},
{
horizontal = 1;
place = "{4, 68}";
},
{
horizontal = 1;
place = "{568, -20}";
target = down;
type = TopGhost;
}
);
layerId = UUID0;
paths = (
{
closed = 1;
nodes = (
"324 535 OFFCURVE",
"286 568 OFFCURVE",
"239 568 CURVE SMOOTH",
"180 568 OFFCURVE",
"159 524 OFFCURVE",
"165 477 CURVE",
"201 468 LINE SMOOTH",
"232 460 OFFCURVE",
"241 449 OFFCURVE",
"241 419 CURVE SMOOTH",
"241 326 OFFCURVE",
"196 210 OFFCURVE",
"9 54 CURVE",
"17 4 LINE",
"381 4 LINE",
"375 -164 LINE",
"461 -164 LINE",
"467 4 LINE",
"555 4 LINE",
"561 72 LINE",
"469 72 LINE",
"483 411 LINE",
"466 420 LINE",
"397 395 LINE",
"383 72 LINE",
"98 72 LINE",
"271 222 OFFCURVE",
"324 356 OFFCURVE",
"324 470 CURVE SMOOTH"
);
}
);
width = 611;
},
{
background = {
paths = (
{
closed = 1;
nodes = (
"463 -164 LINE",
"463 0 LINE",
"494 0 LINE SMOOTH",
"508 0 OFFCURVE",
"516 -5 OFFCURVE",
"520 -19 CURVE SMOOTH",
"534 -62 LINE",
"590 -62 LINE",
"590 161 LINE",
"534 161 LINE",
"520 114 LINE SMOOTH",
"515 98 OFFCURVE",
"506 96 OFFCURVE",
"495 96 CURVE SMOOTH",
"463 96 LINE",
"463 553 LINE",
"437 574 LINE",
"338 555 LINE",
"0 79 LINE",
"11 0 LINE",
"331 0 LINE",
"331 -164 LINE"
);
},
{
closed = 1;
nodes = (
"331 410 LINE",
"331 96 LINE",
"103 96 LINE"
);
}
);
};
hints = (
{
place = "{236, 110}";
},
{
place = "{368, 126}";
},
{
place = "{380, 126}";
},
{
horizontal = 1;
place = "{0, 93}";
},
{
horizontal = 1;
place = "{568, -20}";
target = down;
type = TopGhost;
},
{
horizontal = 1;
place = "{-164, 21}";
target = up;
type = BottomGhost;
}
);
layerId = "D537FF15-C70F-4B12-AACC-84E5BB5FCF97";
paths = (
{
closed = 1;
nodes = (
"336 531 OFFCURVE",
"295 568 OFFCURVE",
"239 568 CURVE SMOOTH",
"170 568 OFFCURVE",
"141 519 OFFCURVE",
"150 454 CURVE",
"186 445 LINE SMOOTH",
"217 437 OFFCURVE",
"226 422 OFFCURVE",
"226 389 CURVE SMOOTH",
"226 315 OFFCURVE",
"180 225 OFFCURVE",
"9 75 CURVE",
"17 0 LINE",
"361 0 LINE",
"355 -164 LINE",
"481 -164 LINE",
"487 0 LINE",
"575 0 LINE",
"581 93 LINE",
"489 93 LINE",
"503 411 LINE",
"486 420 LINE",
"378 394 LINE",
"363 93 LINE",
"112 93 LINE",
"285 243 OFFCURVE",
"336 356 OFFCURVE",
"336 464 CURVE SMOOTH"
);
}
);
width = 611;
}
);
unicode = 0034;
},
{
glyphname = five;
lastChange = "2016-09-25 07:29:43 +0000";
layers = (
{
background = {
paths = (
{
closed = 1;
nodes = (
"290 -163 OFFCURVE",
"458 -67 OFFCURVE",
"458 117 CURVE SMOOTH",
"458 235 OFFCURVE",
"387 309 OFFCURVE",
"269 309 CURVE SMOOTH",
"220 309 OFFCURVE",
"170 295 OFFCURVE",
"132 272 CURVE",
"150 465 LINE",
"417 465 LINE",
"435 626 LINE",
"383 626 LINE",
"366 559 OFFCURVE",
"350 554 OFFCURVE",
"275 554 CURVE SMOOTH",
"94 554 LINE",
"67 240 LINE",
"93 202 LINE",
"140 222 OFFCURVE",
"176 231 OFFCURVE",
"219 231 CURVE SMOOTH",
"305 231 OFFCURVE",
"351 185 OFFCURVE",
"351 108 CURVE SMOOTH",
"351 -25 OFFCURVE",
"237 -97 OFFCURVE",
"51 -124 CURVE",
"59 -176 LINE"
);
}
);
};
hints = (
{
place = "{372, 99}";
},
{
horizontal = 1;
place = "{-175, 53}";
},
{
horizontal = 1;
place = "{232, 77}";
},
{
horizontal = 1;
place = "{450, 87}";
},
{
horizontal = 1;
place = "{-175, 181}";
},
{
horizontal = 1;
place = "{619, -20}";
target = down;
type = TopGhost;
}
);
layerId = UUID0;
paths = (
{
closed = 1;
nodes = (
"356 -31 OFFCURVE",
"279 -122 OFFCURVE",
"167 -122 CURVE SMOOTH",
"111 -122 OFFCURVE",
"75 -92 OFFCURVE",
"102 -52 CURVE",
"118 -25 LINE",
"107 -7 OFFCURVE",
"86 6 OFFCURVE",
"63 6 CURVE SMOOTH",
"22 6 OFFCURVE",
"-5 -26 OFFCURVE",
"-5 -63 CURVE SMOOTH",
"-5 -151 OFFCURVE",
"94 -175 OFFCURVE",
"164 -175 CURVE SMOOTH",
"352 -175 OFFCURVE",
"455 -41 OFFCURVE",
"455 105 CURVE SMOOTH",
"455 228 OFFCURVE",
"384 309 OFFCURVE",
"269 309 CURVE SMOOTH",
"220 309 OFFCURVE",
"165 291 OFFCURVE",
"127 268 CURVE",
"149 493 LINE",
"185 480 OFFCURVE",
"254 450 OFFCURVE",
"323 450 CURVE SMOOTH",
"409 450 OFFCURVE",
"435 501 OFFCURVE",
"449 612 CURVE",
"405 619 LINE",
"383 550 OFFCURVE",
"348 537 OFFCURVE",
"273 537 CURVE SMOOTH",
"222 537 OFFCURVE",
"154 548 OFFCURVE",
"109 556 CURVE",
"93 542 LINE",
"67 240 LINE",
"98 204 LINE",
"138 220 OFFCURVE",
"177 232 OFFCURVE",
"223 232 CURVE SMOOTH",
"298 232 OFFCURVE",
"356 200 OFFCURVE",
"356 93 CURVE SMOOTH"
);
}
);
width = 523;
},
{
background = {
paths = (
{
closed = 1;
nodes = (
"304 -169 OFFCURVE",
"479 -67 OFFCURVE",
"479 119 CURVE SMOOTH",
"479 240 OFFCURVE",
"401 316 OFFCURVE",
"285 316 CURVE SMOOTH",
"228 316 OFFCURVE",
"181 300 OFFCURVE",
"138 277 CURVE",
"155 451 LINE",
"443 451 LINE",
"465 636 LINE",
"398 636 LINE",
"380 571 OFFCURVE",
"367 560 OFFCURVE",
"307 560 CURVE SMOOTH",
"77 560 LINE",
"49 240 LINE",
"82 192 LINE",
"135 216 OFFCURVE",
"173 220 OFFCURVE",
"207 220 CURVE SMOOTH",
"277 220 OFFCURVE",
"322 179 OFFCURVE",
"322 110 CURVE SMOOTH",
"322 -9 OFFCURVE",
"234 -81 OFFCURVE",
"20 -105 CURVE",
"32 -176 LINE"
);
}
);
};
hints = (
{
place = "{352, 139}";
},
{
horizontal = 1;
place = "{-175, 61}";
},
{
horizontal = 1;
place = "{224, 85}";
},
{
horizontal = 1;
place = "{420, 117}";
},
{
horizontal = 1;
place = "{-175, 189}";
},
{
horizontal = 1;
place = "{619, -20}";
target = down;
type = TopGhost;
}
);
layerId = "D537FF15-C70F-4B12-AACC-84E5BB5FCF97";
paths = (
{
closed = 1;
nodes = (
"335 -31 OFFCURVE",
"278 -114 OFFCURVE",
"166 -114 CURVE SMOOTH",
"107 -114 OFFCURVE",
"88 -91 OFFCURVE",
"113 -49 CURVE SMOOTH",
"129 -22 LINE",
"118 -4 OFFCURVE",
"85 14 OFFCURVE",
"62 14 CURVE SMOOTH",
"8 14 OFFCURVE",
"-16 -26 OFFCURVE",
"-16 -63 CURVE SMOOTH",
"-16 -151 OFFCURVE",
"85 -175 OFFCURVE",
"163 -175 CURVE SMOOTH",
"367 -175 OFFCURVE",
"474 -41 OFFCURVE",
"474 105 CURVE SMOOTH",
"474 228 OFFCURVE",
"402 309 OFFCURVE",
"275 309 CURVE SMOOTH",
"219 309 OFFCURVE",
"164 291 OFFCURVE",
"126 268 CURVE",
"148 463 LINE",
"184 450 OFFCURVE",
"253 420 OFFCURVE",
"322 420 CURVE SMOOTH",
"408 420 OFFCURVE",
"441 488 OFFCURVE",
"456 612 CURVE",
"404 619 LINE",
"382 550 OFFCURVE",
"347 537 OFFCURVE",
"272 537 CURVE SMOOTH",
"221 537 OFFCURVE",
"153 548 OFFCURVE",
"108 556 CURVE",
"81 538 LINE",
"56 240 LINE",
"97 196 LINE",
"137 212 OFFCURVE",
"176 224 OFFCURVE",
"222 224 CURVE SMOOTH",
"294 224 OFFCURVE",
"335 190 OFFCURVE",
"335 93 CURVE SMOOTH"
);
}
);
width = 523;
}
);
unicode = 0035;
},
{
glyphname = six;
lastChange = "2016-09-25 07:29:43 +0000";
layers = (
{
background = {
paths = (
{
closed = 1;
nodes = (
"422 -14 OFFCURVE",
"525 72 OFFCURVE",
"525 237 CURVE SMOOTH",
"525 376 OFFCURVE",
"436 453 OFFCURVE",
"323 453 CURVE SMOOTH",
"240 453 OFFCURVE",
"181 411 OFFCURVE",
"155 368 CURVE",
"151 371 LINE",
"183 552 OFFCURVE",
"291 647 OFFCURVE",
"466 673 CURVE",
"454 725 LINE",
"229 707 OFFCURVE",
"52 572 OFFCURVE",
"52 275 CURVE SMOOTH",
"52 119 OFFCURVE",
"114 -14 OFFCURVE",
"287 -14 CURVE SMOOTH"
);
},
{
closed = 1;
nodes = (
"186 47 OFFCURVE",
"154 130 OFFCURVE",
"154 232 CURVE SMOOTH",
"154 339 OFFCURVE",
"227 385 OFFCURVE",
"290 385 CURVE SMOOTH",
"373 385 OFFCURVE",
"425 341 OFFCURVE",
"425 226 CURVE SMOOTH",
"425 103 OFFCURVE",
"370 47 OFFCURVE",
"291 47 CURVE SMOOTH"
);
}
);
};
hints = (
{
place = "{61, 90}";
},
{
place = "{420, 93}";
},
{
horizontal = 1;
place = "{-14, 56}";
},
{
horizontal = 1;
place = "{389, 65}";
},
{
horizontal = 1;
place = "{533, 182}";
},
{
horizontal = 1;
place = "{658, 57}";
}
);
layerId = UUID0;
paths = (
{
closed = 1;
nodes = (
"461 715 OFFCURVE",
"527 670 OFFCURVE",
"527 597 CURVE SMOOTH",
"527 558 OFFCURVE",
"502 533 OFFCURVE",
"467 533 CURVE SMOOTH",
"438 533 OFFCURVE",
"413 546 OFFCURVE",
"402 557 CURVE",
"421 594 LINE SMOOTH",
"439 629 OFFCURVE",
"421 658 OFFCURVE",
"369 658 CURVE SMOOTH",
"248 658 OFFCURVE",
"166 511 OFFCURVE",
"149 348 CURVE",
"153 345 LINE",
"196 390 OFFCURVE",
"260 454 OFFCURVE",
"349 454 CURVE SMOOTH",
"443 454 OFFCURVE",
"515 392 OFFCURVE",
"515 259 CURVE SMOOTH",
"515 95 OFFCURVE",
"413 -14 OFFCURVE",
"278 -14 CURVE SMOOTH",
"113 -14 OFFCURVE",
"63 131 OFFCURVE",
"63 277 CURVE SMOOTH",
"63 515 OFFCURVE",
"178 715 OFFCURVE",
"378 715 CURVE SMOOTH"
);
},
{
closed = 1;
nodes = (
"422 351 OFFCURVE",
"381 389 OFFCURVE",
"328 389 CURVE SMOOTH",
"253 389 OFFCURVE",
"180 310 OFFCURVE",
"153 273 CURVE",
"150 162 OFFCURVE",
"185 42 OFFCURVE",
"280 42 CURVE SMOOTH",
"369 42 OFFCURVE",
"422 120 OFFCURVE",
"422 246 CURVE SMOOTH"
);
}
);
width = 567;
},
{
background = {
paths = (
{
closed = 1;
nodes = (
"467 -14 OFFCURVE",
"581 82 OFFCURVE",
"581 243 CURVE SMOOTH",
"581 382 OFFCURVE",
"491 461 OFFCURVE",
"366 461 CURVE SMOOTH",
"299 461 OFFCURVE",
"236 434 OFFCURVE",
"202 396 CURVE",
"200 398 LINE",
"236 556 OFFCURVE",
"364 635 OFFCURVE",
"509 657 CURVE",
"492 729 LINE",
"249 710 OFFCURVE",
"54 574 OFFCURVE",
"54 273 CURVE SMOOTH",
"54 122 OFFCURVE",
"125 -14 OFFCURVE",
"312 -14 CURVE SMOOTH"
);
},
{
closed = 1;
nodes = (
"238 62 OFFCURVE",
"206 130 OFFCURVE",
"206 231 CURVE SMOOTH",
"206 334 OFFCURVE",
"263 381 OFFCURVE",
"325 381 CURVE SMOOTH",
"398 381 OFFCURVE",
"430 325 OFFCURVE",
"430 229 CURVE SMOOTH",
"430 117 OFFCURVE",
"391 62 OFFCURVE",
"320 62 CURVE SMOOTH"
);
}
);
};
hints = (
{
place = "{41, 130}";
},
{
place = "{400, 133}";
},
{
horizontal = 1;
place = "{-14, 64}";
},
{
horizontal = 1;
place = "{379, 75}";
},
{
horizontal = 1;
place = "{525, 190}";
},
{
horizontal = 1;
place = "{650, 65}";
}
);
layerId = "D537FF15-C70F-4B12-AACC-84E5BB5FCF97";
paths = (
{
closed = 1;
nodes = (
"461 715 OFFCURVE",
"537 678 OFFCURVE",
"537 597 CURVE SMOOTH",
"537 558 OFFCURVE",
"509 525 OFFCURVE",
"467 525 CURVE SMOOTH",
"438 525 OFFCURVE",
"405 542 OFFCURVE",
"394 553 CURVE",
"413 590 LINE SMOOTH",
"431 625 OFFCURVE",
"416 650 OFFCURVE",
"369 650 CURVE SMOOTH",
"248 650 OFFCURVE",
"187 514 OFFCURVE",
"172 361 CURVE",
"176 358 LINE",
"207 396 OFFCURVE",
"268 454 OFFCURVE",
"363 454 CURVE SMOOTH",
"464 454 OFFCURVE",
"535 392 OFFCURVE",
"535 259 CURVE SMOOTH",
"535 95 OFFCURVE",
"429 -14 OFFCURVE",
"281 -14 CURVE SMOOTH",
"102 -14 OFFCURVE",
"43 131 OFFCURVE",
"43 277 CURVE SMOOTH",
"43 515 OFFCURVE",
"158 715 OFFCURVE",
"378 715 CURVE SMOOTH"
);
},
{
closed = 1;
nodes = (
"402 346 OFFCURVE",
"372 379 OFFCURVE",
"326 379 CURVE SMOOTH",
"263 379 OFFCURVE",
"200 313 OFFCURVE",
"173 276 CURVE",
"170 174 OFFCURVE",
"190 50 OFFCURVE",
"283 50 CURVE SMOOTH",
"363 50 OFFCURVE",
"402 120 OFFCURVE",
"402 246 CURVE SMOOTH"
);
}
);
width = 567;
}
);
unicode = 0036;
},
{
glyphname = seven;
lastChange = "2016-09-25 07:29:43 +0000";
layers = (
{
background = {
paths = (
{
closed = 1;
nodes = (
"259 -164 LINE",
"322 -37 OFFCURVE",
"416 185 OFFCURVE",
"531 490 CURVE",
"523 554 LINE",
"70 554 LINE",
"52 365 LINE",
"102 365 LINE",
"132 455 OFFCURVE",
"138 465 OFFCURVE",
"224 465 CURVE SMOOTH",
"446 465 LINE",
"378 234 OFFCURVE",
"230 -5 OFFCURVE",
"140 -148 CURVE",
"149 -164 LINE"
);
}
);
};
hints = (
{
place = "{102, 67}";
},
{
horizontal = 1;
place = "{475, 79}";
},
{
horizontal = 1;
place = "{-175, 21}";
target = up;
type = BottomGhost;
}
);
layerId = UUID0;
paths = (
{
closed = 1;
nodes = (
"114 -122 OFFCURVE",
"167 -175 OFFCURVE",
"235 -175 CURVE SMOOTH",
"289 -175 OFFCURVE",
"318 -148 OFFCURVE",
"321 -116 CURVE SMOOTH",
"323 -95 OFFCURVE",
"314 -71 OFFCURVE",
"293 -52 CURVE",
"249 -77 LINE SMOOTH",
"215 -96 OFFCURVE",
"181 -77 OFFCURVE",
"181 -28 CURVE SMOOTH",
"181 133 OFFCURVE",
"352 327 OFFCURVE",
"506 490 CURVE",
"498 554 LINE",
"73 554 LINE",
"60 475 LINE",
"417 475 LINE",
"234 284 OFFCURVE",
"114 118 OFFCURVE",
"114 -38 CURVE SMOOTH"
);
}
);
width = 527;
},
{
background = {
paths = (
{
closed = 1;
nodes = (
"291 -163 LINE",
"356 -32 OFFCURVE",
"447 203 OFFCURVE",
"562 498 CURVE",
"550 560 LINE",
"73 560 LINE",
"53 347 LINE",
"123 347 LINE",
"152 434 OFFCURVE",
"150 451 OFFCURVE",
"236 451 CURVE SMOOTH",
"437 451 LINE",
"365 225 OFFCURVE",
"215 -1 OFFCURVE",
"127 -137 CURVE",
"142 -163 LINE"
);
}
);
};
hints = (
{
place = "{74, 85}";
},
{
horizontal = 1;
place = "{445, 109}";
},
{
horizontal = 1;
place = "{-175, 21}";
target = up;
type = BottomGhost;
}
);
layerId = "D537FF15-C70F-4B12-AACC-84E5BB5FCF97";
paths = (
{
closed = 1;
nodes = (
"84 -114 OFFCURVE",
"133 -175 OFFCURVE",
"218 -175 CURVE SMOOTH",
"282 -175 OFFCURVE",
"317 -137 OFFCURVE",
"317 -96 CURVE SMOOTH",
"317 -69 OFFCURVE",
"302 -47 OFFCURVE",
"275 -29 CURVE",
"240 -50 LINE SMOOTH",
"197 -76 OFFCURVE",
"169 -53 OFFCURVE",
"169 -6 CURVE SMOOTH",
"169 143 OFFCURVE",
"347 312 OFFCURVE",
"495 460 CURVE",
"488 554 LINE",
"63 554 LINE",
"49 445 LINE",
"386 445 LINE",
"200 256 OFFCURVE",
"84 126 OFFCURVE",
"84 -30 CURVE SMOOTH"
);
}
);
width = 506;
}
);
unicode = 0037;
},
{
glyphname = eight;
lastChange = "2016-09-25 07:29:43 +0000";
layers = (
{
background = {
paths = (
{
closed = 1;
nodes = (
"398 -14 OFFCURVE",
"521 58 OFFCURVE",
"521 194 CURVE SMOOTH",
"521 271 OFFCURVE",
"484 339 OFFCURVE",
"369 390 CURVE",
"436 424 OFFCURVE",
"490 477 OFFCURVE",
"490 562 CURVE SMOOTH",
"490 648 OFFCURVE",
"414 714 OFFCURVE",
"277 714 CURVE SMOOTH",
"129 714 OFFCURVE",
"60 620 OFFCURVE",
"60 538 CURVE SMOOTH",
"60 464 OFFCURVE",
"90 418 OFFCURVE",
"192 367 CURVE",
"65 326 OFFCURVE",
"31 242 OFFCURVE",
"31 171 CURVE SMOOTH",
"31 45 OFFCURVE",
"137 -14 OFFCURVE",
"271 -14 CURVE SMOOTH"
);
},
{
closed = 1;
nodes = (
"188 44 OFFCURVE",
"130 96 OFFCURVE",
"130 180 CURVE SMOOTH",
"130 241 OFFCURVE",
"163 301 OFFCURVE",
"240 340 CURVE",
"357 302 OFFCURVE",
"418 259 OFFCURVE",
"418 175 CURVE SMOOTH",
"418 91 OFFCURVE",
"365 44 OFFCURVE",
"280 44 CURVE SMOOTH"
);
},
{
closed = 1;
nodes = (
"187 463 OFFCURVE",
"152 500 OFFCURVE",
"152 557 CURVE SMOOTH",
"152 625 OFFCURVE",
"207 659 OFFCURVE",
"273 659 CURVE SMOOTH",
"338 659 OFFCURVE",
"398 621 OFFCURVE",
"398 548 CURVE SMOOTH",
"398 493 OFFCURVE",
"364 443 OFFCURVE",
"316 411 CURVE"
);
}
);
};
hints = (
{
place = "{52, 91}";
},
{
place = "{91, 85}";
},
{
place = "{418, 77}";
},
{
place = "{418, 93}";
},
{
horizontal = 1;
place = "{-14, 58}";
},
{
horizontal = 1;
place = "{660, 55}";
}
);
layerId = UUID0;
paths = (
{
closed = 1;
nodes = (
"48 58 OFFCURVE",
"139 -14 OFFCURVE",
"266 -14 CURVE SMOOTH",
"387 -14 OFFCURVE",
"507 60 OFFCURVE",
"507 196 CURVE SMOOTH",
"507 275 OFFCURVE",
"479 329 OFFCURVE",
"357 390 CURVE",
"439 435 OFFCURVE",
"491 488 OFFCURVE",
"491 566 CURVE SMOOTH",
"491 652 OFFCURVE",
"426 715 OFFCURVE",
"304 715 CURVE SMOOTH",
"155 715 OFFCURVE",
"87 627 OFFCURVE",
"87 536 CURVE SMOOTH",
"87 463 OFFCURVE",
"126 413 OFFCURVE",
"201 371 CURVE",
"95 315 OFFCURVE",
"48 252 OFFCURVE",
"48 167 CURVE SMOOTH"
);
},
{
closed = 1;
nodes = (
"370 295 OFFCURVE",
"414 259 OFFCURVE",
"414 188 CURVE SMOOTH",
"414 91 OFFCURVE",
"354 44 OFFCURVE",
"273 44 CURVE SMOOTH",
"186 44 OFFCURVE",
"139 100 OFFCURVE",
"139 182 CURVE SMOOTH",
"139 241 OFFCURVE",
"159 292 OFFCURVE",
"249 347 CURVE"
);
},
{
closed = 1;
nodes = (
"172 625 OFFCURVE",
"226 660 OFFCURVE",
"299 660 CURVE SMOOTH",
"362 660 OFFCURVE",
"411 630 OFFCURVE",
"411 557 CURVE SMOOTH",
"411 503 OFFCURVE",
"379 453 OFFCURVE",
"308 413 CURVE",
"208 459 OFFCURVE",
"172 493 OFFCURVE",
"172 552 CURVE SMOOTH"
);
}
);
width = 556;
},
{
background = {
paths = (
{
closed = 1;
nodes = (
"424 -14 OFFCURVE",
"559 61 OFFCURVE",
"559 201 CURVE SMOOTH",
"559 275 OFFCURVE",
"516 341 OFFCURVE",
"402 390 CURVE",
"472 420 OFFCURVE",
"526 480 OFFCURVE",
"526 558 CURVE SMOOTH",
"526 649 OFFCURVE",
"455 714 OFFCURVE",
"299 714 CURVE SMOOTH",
"137 714 OFFCURVE",
"64 620 OFFCURVE",
"64 535 CURVE SMOOTH",
"64 465 OFFCURVE",
"91 414 OFFCURVE",
"192 369 CURVE",
"76 334 OFFCURVE",
"29 254 OFFCURVE",
"29 178 CURVE SMOOTH",
"29 49 OFFCURVE",
"140 -14 OFFCURVE",
"290 -14 CURVE SMOOTH"
);
},
{
closed = 1;
nodes = (
"218 60 OFFCURVE",
"172 110 OFFCURVE",
"172 187 CURVE SMOOTH",
"172 243 OFFCURVE",
"204 297 OFFCURVE",
"264 330 CURVE",
"357 297 OFFCURVE",
"412 259 OFFCURVE",
"412 182 CURVE SMOOTH",
"412 104 OFFCURVE",
"365 60 OFFCURVE",
"298 60 CURVE SMOOTH"
);
},
{
closed = 1;
nodes = (
"229 469 OFFCURVE",
"202 503 OFFCURVE",
"202 558 CURVE SMOOTH",
"202 615 OFFCURVE",
"243 641 OFFCURVE",
"292 641 CURVE SMOOTH",
"347 641 OFFCURVE",
"388 609 OFFCURVE",
"388 548 CURVE SMOOTH",
"388 501 OFFCURVE",
"362 454 OFFCURVE",
"327 426 CURVE"
);
}
);
};
hints = (
{
place = "{32, 121}";
},
{
place = "{73, 119}";
},
{
place = "{400, 106}";
},
{
place = "{400, 131}";
},
{
horizontal = 1;
place = "{-14, 66}";
},
{
horizontal = 1;
place = "{652, 63}";
}
);
layerId = "D537FF15-C70F-4B12-AACC-84E5BB5FCF97";
paths = (
{
closed = 1;
nodes = (
"28 58 OFFCURVE",
"123 -14 OFFCURVE",
"266 -14 CURVE SMOOTH",
"403 -14 OFFCURVE",
"527 60 OFFCURVE",
"527 204 CURVE SMOOTH",
"527 282 OFFCURVE",
"500 334 OFFCURVE",
"377 395 CURVE",
"444 431 OFFCURVE",
"502 488 OFFCURVE",
"502 560 CURVE SMOOTH",
"502 646 OFFCURVE",
"437 715 OFFCURVE",
"304 715 CURVE SMOOTH",
"145 715 OFFCURVE",
"69 627 OFFCURVE",
"69 527 CURVE SMOOTH",
"69 462 OFFCURVE",
"98 408 OFFCURVE",
"168 364 CURVE",
"65 308 OFFCURVE",
"28 247 OFFCURVE",
"28 167 CURVE SMOOTH"
);
},
{
closed = 1;
nodes = (
"337 287 OFFCURVE",
"396 259 OFFCURVE",
"396 180 CURVE SMOOTH",
"396 108 OFFCURVE",
"354 52 OFFCURVE",
"273 52 CURVE SMOOTH",
"186 52 OFFCURVE",
"149 107 OFFCURVE",
"149 182 CURVE SMOOTH",
"149 230 OFFCURVE",
"164 286 OFFCURVE",
"229 333 CURVE"
);
},
{
closed = 1;
nodes = (
"188 618 OFFCURVE",
"235 652 OFFCURVE",
"297 652 CURVE SMOOTH",
"350 652 OFFCURVE",
"397 621 OFFCURVE",
"397 554 CURVE SMOOTH",
"397 503 OFFCURVE",
"369 461 OFFCURVE",
"313 424 CURVE",
"224 466 OFFCURVE",
"188 496 OFFCURVE",
"188 552 CURVE SMOOTH"
);
}
);
width = 556;
}
);
unicode = 0038;
},
{
glyphname = nine;
lastChange = "2016-09-25 07:29:43 +0000";
layers = (
{
background = {
paths = (
{
closed = 1;
nodes = (
"319 -164 OFFCURVE",
"513 -38 OFFCURVE",
"513 265 CURVE SMOOTH",
"513 436 OFFCURVE",
"451 568 OFFCURVE",
"278 568 CURVE SMOOTH",
"143 568 OFFCURVE",
"40 484 OFFCURVE",
"40 328 CURVE SMOOTH",
"40 176 OFFCURVE",
"129 103 OFFCURVE",
"251 103 CURVE SMOOTH",
"325 103 OFFCURVE",
"377 138 OFFCURVE",
"410 188 CURVE",
"409 181 LINE",
"385 -10 OFFCURVE",
"255 -102 OFFCURVE",
"103 -121 CURVE",
"111 -175 LINE"
);
},
{
closed = 1;
nodes = (
"192 175 OFFCURVE",
"140 216 OFFCURVE",
"140 340 CURVE SMOOTH",
"140 454 OFFCURVE",
"195 507 OFFCURVE",
"272 507 CURVE SMOOTH",
"377 507 OFFCURVE",
"411 431 OFFCURVE",
"411 326 CURVE SMOOTH",
"411 216 OFFCURVE",
"338 175 OFFCURVE",
"277 175 CURVE SMOOTH"
);
}
);
};
hints = (
{
place = "{56, 93}";
},
{
place = "{418, 90}";
},
{
horizontal = 1;
place = "{-175, 57}";
},
{
horizontal = 1;
place = "{103, 65}";
},
{
horizontal = 1;
place = "{512, 56}";
},
{
horizontal = 1;
place = "{-175, 174}";
}
);
layerId = UUID0;
paths = (
{
closed = 1;
nodes = (
"114 -175 OFFCURVE",
"45 -141 OFFCURVE",
"45 -68 CURVE SMOOTH",
"45 -31 OFFCURVE",
"71 -1 OFFCURVE",
"112 -1 CURVE SMOOTH",
"135 -1 OFFCURVE",
"160 -13 OFFCURVE",
"171 -24 CURVE",
"152 -57 LINE SMOOTH",
"134 -92 OFFCURVE",
"154 -118 OFFCURVE",
"206 -118 CURVE SMOOTH",
"345 -118 OFFCURVE",
"406 46 OFFCURVE",
"418 209 CURVE",
"414 212 LINE",
"371 167 OFFCURVE",
"307 103 OFFCURVE",
"218 103 CURVE SMOOTH",
"124 103 OFFCURVE",
"52 165 OFFCURVE",
"52 298 CURVE SMOOTH",
"52 460 OFFCURVE",
"154 568 OFFCURVE",
"289 568 CURVE SMOOTH",
"454 568 OFFCURVE",
"504 426 OFFCURVE",
"504 280 CURVE SMOOTH",
"504 42 OFFCURVE",
"419 -175 OFFCURVE",
"197 -175 CURVE SMOOTH"
);
},
{
closed = 1;
nodes = (
"145 206 OFFCURVE",
"186 168 OFFCURVE",
"239 168 CURVE SMOOTH",
"314 168 OFFCURVE",
"387 247 OFFCURVE",
"414 284 CURVE",
"416 388 OFFCURVE",
"382 512 OFFCURVE",
"287 512 CURVE SMOOTH",
"198 512 OFFCURVE",
"145 429 OFFCURVE",
"145 311 CURVE SMOOTH"
);
}
);
width = 567;
},
{
background = {
paths = (
{
closed = 1;
nodes = (
"392 -157 OFFCURVE",
"575 -9 OFFCURVE",
"575 292 CURVE SMOOTH",
"575 443 OFFCURVE",
"504 574 OFFCURVE",
"317 574 CURVE SMOOTH",
"162 574 OFFCURVE",
"48 478 OFFCURVE",
"48 317 CURVE SMOOTH",
"48 178 OFFCURVE",
"138 93 OFFCURVE",
"263 93 CURVE SMOOTH",
"335 93 OFFCURVE",
"388 122 OFFCURVE",
"422 160 CURVE",
"424 158 LINE",
"388 0 OFFCURVE",
"273 -77 OFFCURVE",
"124 -100 CURVE",
"137 -176 LINE"
);
},
{
closed = 1;
nodes = (
"231 173 OFFCURVE",
"199 235 OFFCURVE",
"199 331 CURVE SMOOTH",
"199 443 OFFCURVE",
"238 498 OFFCURVE",
"308 498 CURVE SMOOTH",
"392 498 OFFCURVE",
"422 430 OFFCURVE",
"422 337 CURVE SMOOTH",
"422 221 OFFCURVE",
"366 173 OFFCURVE",
"304 173 CURVE SMOOTH"
);
}
);
};
hints = (
{
place = "{41, 133}";
},
{
place = "{403, 130}";
},
{
horizontal = 1;
place = "{-175, 65}";
},
{
horizontal = 1;
place = "{98, 75}";
},
{
horizontal = 1;
place = "{504, 64}";
},
{
horizontal = 1;
place = "{-175, 190}";
}
);
layerId = "D537FF15-C70F-4B12-AACC-84E5BB5FCF97";
paths = (
{
closed = 1;
nodes = (
"116 -175 OFFCURVE",
"40 -138 OFFCURVE",
"40 -57 CURVE SMOOTH",
"40 -18 OFFCURVE",
"68 15 OFFCURVE",
"110 15 CURVE SMOOTH",
"139 15 OFFCURVE",
"172 -2 OFFCURVE",
"183 -13 CURVE",
"164 -50 LINE SMOOTH",
"146 -85 OFFCURVE",
"161 -110 OFFCURVE",
"208 -110 CURVE SMOOTH",
"329 -110 OFFCURVE",
"390 38 OFFCURVE",
"405 191 CURVE",
"401 194 LINE",
"370 156 OFFCURVE",
"309 98 OFFCURVE",
"214 98 CURVE SMOOTH",
"113 98 OFFCURVE",
"42 162 OFFCURVE",
"42 295 CURVE SMOOTH",
"42 459 OFFCURVE",
"148 568 OFFCURVE",
"296 568 CURVE SMOOTH",
"479 568 OFFCURVE",
"534 423 OFFCURVE",
"534 277 CURVE SMOOTH",
"534 39 OFFCURVE",
"419 -175 OFFCURVE",
"199 -175 CURVE SMOOTH"
);
},
{
closed = 1;
nodes = (
"175 208 OFFCURVE",
"205 173 OFFCURVE",
"251 173 CURVE SMOOTH",
"314 173 OFFCURVE",
"377 239 OFFCURVE",
"404 276 CURVE",
"407 378 OFFCURVE",
"387 504 OFFCURVE",
"294 504 CURVE SMOOTH",
"214 504 OFFCURVE",
"175 434 OFFCURVE",
"175 308 CURVE SMOOTH"
);
}
);
width = 567;
}
);
unicode = 0039;
},
{
glyphname = colon;
lastChange = "2016-09-25 07:29:43 +0000";
layers = (
{
background = {
paths = (
{
closed = 1;
nodes = (
"215 370 OFFCURVE",
"247 402 OFFCURVE",
"247 446 CURVE SMOOTH",
"247 490 OFFCURVE",
"215 521 OFFCURVE",
"170 521 CURVE SMOOTH",
"126 521 OFFCURVE",
"94 489 OFFCURVE",
"94 445 CURVE SMOOTH",
"94 401 OFFCURVE",
"126 370 OFFCURVE",
"170 370 CURVE SMOOTH"
);
},
{
closed = 1;
nodes = (
"215 -17 OFFCURVE",
"247 15 OFFCURVE",
"247 59 CURVE SMOOTH",
"247 103 OFFCURVE",
"215 134 OFFCURVE",
"170 134 CURVE SMOOTH",
"126 134 OFFCURVE",
"94 102 OFFCURVE",
"94 58 CURVE SMOOTH",
"94 14 OFFCURVE",
"126 -17 OFFCURVE",
"170 -17 CURVE SMOOTH"
);
}
);
};
components = (
{
name = period;
transform = "{1, 0, 0, 1, 4, 0}";
},
{
name = period;
transform = "{1, 0, 0, 1, 21, 391}";
}
);
hints = (
{
place = "{84, 154}";
},
{
place = "{84, 154}";
},
{
horizontal = 1;
place = "{-11, 151}";
},
{
horizontal = 1;
place = "{370, 151}";
}
);
layerId = UUID0;
width = 319;
},
{
background = {
paths = (
{
closed = 1;
nodes = (
"212 364 OFFCURVE",
"248 388 OFFCURVE",
"248 446 CURVE SMOOTH",
"248 503 OFFCURVE",
"212 527 OFFCURVE",
"159 527 CURVE SMOOTH",
"110 527 OFFCURVE",
"74 502 OFFCURVE",
"74 444 CURVE SMOOTH",
"74 387 OFFCURVE",
"110 364 OFFCURVE",
"159 364 CURVE SMOOTH"
);
},
{
closed = 1;
nodes = (
"212 -19 OFFCURVE",
"248 5 OFFCURVE",
"248 63 CURVE SMOOTH",
"248 120 OFFCURVE",
"212 144 OFFCURVE",
"159 144 CURVE SMOOTH",
"110 144 OFFCURVE",
"74 119 OFFCURVE",
"74 61 CURVE SMOOTH",
"74 4 OFFCURVE",
"110 -19 OFFCURVE",
"159 -19 CURVE SMOOTH"
);
}
);
};
components = (
{
name = period;
transform = "{1, 0, 0, 1, 2, 0}";
},
{
name = period;
transform = "{1, 0, 0, 1, 19, 391}";
}
);
hints = (
{
place = "{74, 154}";
},
{
place = "{74, 154}";
},
{
horizontal = 1;
place = "{-11, 151}";
},
{
horizontal = 1;
place = "{370, 151}";
}
);
layerId = "D537FF15-C70F-4B12-AACC-84E5BB5FCF97";
width = 296;
}
);
leftKerningGroup = colon;
rightKerningGroup = colon;
unicode = 003A;
},
{
glyphname = semicolon;
lastChange = "2016-09-25 07:29:42 +0000";
layers = (
{
background = {
paths = (
{
closed = 1;
nodes = (
"203 -117 OFFCURVE",
"245 -28 OFFCURVE",
"245 31 CURVE SMOOTH",
"245 83 OFFCURVE",
"219 129 OFFCURVE",
"160 129 CURVE SMOOTH",
"116 129 OFFCURVE",
"87 97 OFFCURVE",
"87 55 CURVE SMOOTH",
"87 21 OFFCURVE",
"106 0 OFFCURVE",
"149 0 CURVE SMOOTH",
"173 0 LINE",
"169 -44 OFFCURVE",
"146 -85 OFFCURVE",
"86 -131 CURVE",
"115 -168 LINE"
);
},
{
closed = 1;
nodes = (
"204 370 OFFCURVE",
"236 402 OFFCURVE",
"236 446 CURVE SMOOTH",
"236 490 OFFCURVE",
"204 521 OFFCURVE",
"159 521 CURVE SMOOTH",
"115 521 OFFCURVE",
"83 489 OFFCURVE",
"83 445 CURVE SMOOTH",
"83 401 OFFCURVE",
"115 370 OFFCURVE",
"159 370 CURVE SMOOTH"
);
}
);
};
components = (
{
name = period;
transform = "{1, 0, 0, 1, 17, 391}";
},
{
name = comma;
transform = "{1, 0, 0, 1, -9, 0}";
}
);
hints = (
{
place = "{88, 159}";
},
{
place = "{84, 154}";
},
{
horizontal = 1;
place = "{0, 129}";
},
{
horizontal = 1;
place = "{-168, 21}";
target = up;
type = BottomGhost;
},
{
horizontal = 1;
place = "{370, 151}";
}
);
layerId = UUID0;
width = 328;
},
{
background = {
paths = (
{
closed = 1;
nodes = (
"203 -123 OFFCURVE",
"245 -34 OFFCURVE",
"245 45 CURVE SMOOTH",
"245 100 OFFCURVE",
"215 144 OFFCURVE",
"152 144 CURVE SMOOTH",
"98 144 OFFCURVE",
"66 110 OFFCURVE",
"66 61 CURVE SMOOTH",
"66 13 OFFCURVE",
"97 -10 OFFCURVE",
"142 -10 CURVE SMOOTH",
"157 -10 LINE",
"152 -52 OFFCURVE",
"116 -97 OFFCURVE",
"70 -129 CURVE",
"106 -176 LINE"
);
},
{
closed = 1;
nodes = (
"208 364 OFFCURVE",
"244 388 OFFCURVE",
"244 446 CURVE SMOOTH",
"244 503 OFFCURVE",
"208 527 OFFCURVE",
"155 527 CURVE SMOOTH",
"106 527 OFFCURVE",
"70 502 OFFCURVE",
"70 444 CURVE SMOOTH",
"70 387 OFFCURVE",
"106 364 OFFCURVE",
"155 364 CURVE SMOOTH"
);
}
);
};
components = (
{
name = period;
transform = "{1, 0, 0, 1, 14, 391}";
},
{
name = comma;
}
);
hints = (
{
place = "{77, 159}";
},
{
place = "{73, 154}";
},
{
horizontal = 1;
place = "{0, 129}";
},
{
horizontal = 1;
place = "{-168, 21}";
target = up;
type = BottomGhost;
},
{
horizontal = 1;
place = "{370, 151}";
}
);
layerId = "D537FF15-C70F-4B12-AACC-84E5BB5FCF97";
width = 292;
}
);
leftKerningGroup = colon;
rightKerningGroup = colon;
unicode = 003B;
},
{
glyphname = less;
lastChange = "2016-09-25 07:28:55 +0000";
layers = (
{
background = {
paths = (
{
closed = 1;
nodes = (
"480 91 LINE",
"150 285 LINE",
"480 480 LINE",
"450 532 LINE",
"72 305 LINE",
"72 263 LINE",
"450 37 LINE"
);
}
);
};
hints = (
{
horizontal = 1;
place = "{37, 21}";
target = up;
type = BottomGhost;
},
{
horizontal = 1;
place = "{532, -20}";
target = down;
type = TopGhost;
}
);
layerId = UUID0;
paths = (
{
closed = 1;
nodes = (
"82 305 LINE",
"81 263 LINE",
"451 37 LINE",
"483 91 LINE",
"159 285 LINE",
"496 480 LINE",
"468 532 LINE"
);
}
);
width = 582;
},
{
background = {
paths = (
{
closed = 1;
nodes = (
"498 131 LINE",
"180 302 LINE",
"496 473 LINE",
"456 554 LINE",
"68 332 LINE",
"68 267 LINE",
"457 44 LINE"
);
}
);
};
hints = (
{
horizontal = 1;
place = "{38, 21}";
target = up;
type = BottomGhost;
},
{
horizontal = 1;
place = "{542, -20}";
target = down;
type = TopGhost;
}
);
layerId = "D537FF15-C70F-4B12-AACC-84E5BB5FCF97";
paths = (
{
closed = 1;
nodes = (
"69 322 LINE",
"66 260 LINE",
"442 38 LINE",
"489 117 LINE",
"174 294 LINE",
"496 466 LINE",
"457 542 LINE"
);
}
);
width = 582;
}
);
unicode = 003C;
},
{
glyphname = equal;
lastChange = "2016-09-25 07:29:42 +0000";
layers = (
{
background = {
paths = (
{
closed = 1;
nodes = (
"506 362 LINE",
"506 425 LINE",
"78 425 LINE",
"78 362 LINE"
);
},
{
closed = 1;
nodes = (
"506 182 LINE",
"506 245 LINE",
"78 245 LINE",
"78 182 LINE"
);
}
);
};
hints = (
{
horizontal = 1;
place = "{182, 63}";
},
{
horizontal = 1;
place = "{362, 63}";
}
);
layerId = UUID0;
paths = (
{
closed = 1;
nodes = (
"512 182 LINE",
"514 245 LINE",
"86 245 LINE",
"84 182 LINE"
);
},
{
closed = 1;
nodes = (
"518 362 LINE",
"520 425 LINE",
"92 425 LINE",
"90 362 LINE"
);
}
);
width = 582;
},
{
background = {
paths = (
{
closed = 1;
nodes = (
"509 351 LINE",
"509 445 LINE",
"67 445 LINE",
"67 351 LINE"
);
},
{
closed = 1;
nodes = (
"509 171 LINE",
"509 265 LINE",
"67 265 LINE",
"67 171 LINE"
);
}
);
};
hints = (
{
horizontal = 1;
place = "{170, 89}";
},
{
horizontal = 1;
place = "{356, 89}";
}
);
layerId = "D537FF15-C70F-4B12-AACC-84E5BB5FCF97";
paths = (
{
closed = 1;
nodes = (
"516 170 LINE",
"520 259 LINE",
"74 259 LINE",
"70 170 LINE"
);
},
{
closed = 1;
nodes = (
"525 356 LINE",
"529 445 LINE",
"83 445 LINE",
"79 356 LINE"
);
}
);
width = 582;
}
);
unicode = 003D;
},
{
glyphname = greater;
lastChange = "2016-09-25 07:29:42 +0000";
layers = (
{
background = {
paths = (
{
closed = 1;
nodes = (
"511 263 LINE",
"511 305 LINE",
"133 532 LINE",
"103 480 LINE",
"433 285 LINE",
"103 91 LINE",
"133 37 LINE"
);
}
);
};
hints = (
{
horizontal = 1;
place = "{532, -20}";
target = down;
type = TopGhost;
},
{
horizontal = 1;
place = "{37, 21}";
target = up;
type = BottomGhost;
}
);
layerId = UUID0;
paths = (
{
closed = 1;
nodes = (
"521 305 LINE",
"520 263 LINE",
"134 37 LINE",
"106 91 LINE",
"442 285 LINE",
"119 480 LINE",
"151 532 LINE"
);
}
);
width = 582;
},
{
background = {
paths = (
{
closed = 1;
nodes = (
"518 267 LINE",
"518 332 LINE",
"130 554 LINE",
"90 473 LINE",
"406 302 LINE",
"88 131 LINE",
"129 44 LINE"
);
}
);
};
hints = (
{
horizontal = 1;
place = "{542, -20}";
target = down;
type = TopGhost;
},
{
horizontal = 1;
place = "{38, 21}";
target = up;
type = BottomGhost;
}
);
layerId = "D537FF15-C70F-4B12-AACC-84E5BB5FCF97";
paths = (
{
closed = 1;
nodes = (
"544 320 LINE",
"541 258 LINE",
"153 38 LINE",
"114 114 LINE",
"436 290 LINE",
"121 467 LINE",
"168 542 LINE"
);
}
);
width = 582;
}
);
unicode = 003E;
},
{
glyphname = question;
lastChange = "2016-09-25 07:29:42 +0000";
layers = (
{
background = {
paths = (
{
closed = 1;
nodes = (
"288 194 LINE",
"288 257 LINE SMOOTH",
"288 294 OFFCURVE",
"331 332 OFFCURVE",
"375 377 CURVE SMOOTH",
"422 424 OFFCURVE",
"470 479 OFFCURVE",
"470 551 CURVE SMOOTH",
"470 652 OFFCURVE",
"392 714 OFFCURVE",
"279 714 CURVE SMOOTH",
"177 714 OFFCURVE",
"82 650 OFFCURVE",
"82 572 CURVE SMOOTH",
"82 539 OFFCURVE",
"98 512 OFFCURVE",
"141 512 CURVE SMOOTH",
"174 512 OFFCURVE",
"201 537 OFFCURVE",
"201 560 CURVE SMOOTH",
"201 574 OFFCURVE",
"182 604 OFFCURVE",
"169 622 CURVE",
"190 647 OFFCURVE",
"222 660 OFFCURVE",
"265 660 CURVE SMOOTH",
"332 660 OFFCURVE",
"374 620 OFFCURVE",
"374 560 CURVE SMOOTH",
"374 507 OFFCURVE",
"337 472 OFFCURVE",
"301 437 CURVE SMOOTH",
"266 402 OFFCURVE",
"232 368 OFFCURVE",
"232 317 CURVE SMOOTH",
"232 194 LINE"
);
},
{
closed = 1;
nodes = (
"302 -14 OFFCURVE",
"331 16 OFFCURVE",
"331 56 CURVE SMOOTH",
"331 97 OFFCURVE",
"302 126 OFFCURVE",
"261 126 CURVE SMOOTH",
"220 126 OFFCURVE",
"190 97 OFFCURVE",
"190 55 CURVE SMOOTH",
"190 15 OFFCURVE",
"220 -14 OFFCURVE",
"261 -14 CURVE SMOOTH"
);
}
);
};
hints = (
{
place = "{176, 141}";
},
{
place = "{371, 87}";
},
{
horizontal = 1;
place = "{-14, 133}";
},
{
horizontal = 1;
place = "{510, 205}";
},
{
horizontal = 1;
place = "{663, 52}";
}
);
layerId = UUID0;
paths = (
{
closed = 1;
nodes = (
"233 194 LINE",
"296 194 LINE",
"269 319 LINE",
"413 365 OFFCURVE",
"475 449 OFFCURVE",
"475 547 CURVE SMOOTH",
"475 662 OFFCURVE",
"389 715 OFFCURVE",
"284 715 CURVE SMOOTH",
"191 715 OFFCURVE",
"84 662 OFFCURVE",
"84 571 CURVE SMOOTH",
"84 533 OFFCURVE",
"107 510 OFFCURVE",
"145 510 CURVE SMOOTH",
"173 510 OFFCURVE",
"197 528 OFFCURVE",
"207 552 CURVE",
"186 576 LINE SMOOTH",
"148 619 OFFCURVE",
"186 663 OFFCURVE",
"269 663 CURVE SMOOTH",
"346 663 OFFCURVE",
"388 620 OFFCURVE",
"388 552 CURVE SMOOTH",
"388 474 OFFCURVE",
"326 410 OFFCURVE",
"195 382 CURVE"
);
},
{
closed = 1;
nodes = (
"193 9 OFFCURVE",
"220 -14 OFFCURVE",
"261 -14 CURVE SMOOTH",
"302 -14 OFFCURVE",
"334 10 OFFCURVE",
"334 51 CURVE SMOOTH",
"334 92 OFFCURVE",
"307 119 OFFCURVE",
"266 119 CURVE SMOOTH",
"225 119 OFFCURVE",
"193 92 OFFCURVE",
"193 50 CURVE SMOOTH"
);
}
);
width = 512;
},
{
background = {
paths = (
{
closed = 1;
nodes = (
"289 188 LINE",
"289 247 LINE SMOOTH",
"289 279 OFFCURVE",
"298 296 OFFCURVE",
"355 348 CURVE SMOOTH",
"418 405 OFFCURVE",
"487 460 OFFCURVE",
"487 550 CURVE SMOOTH",
"487 655 OFFCURVE",
"413 714 OFFCURVE",
"283 714 CURVE SMOOTH",
"154 714 OFFCURVE",
"67 644 OFFCURVE",
"67 566 CURVE SMOOTH",
"67 529 OFFCURVE",
"89 498 OFFCURVE",
"138 498 CURVE SMOOTH",
"184 498 OFFCURVE",
"206 531 OFFCURVE",
"206 557 CURVE SMOOTH",
"206 575 OFFCURVE",
"190 593 OFFCURVE",
"177 610 CURVE",
"194 623 OFFCURVE",
"223 639 OFFCURVE",
"264 639 CURVE SMOOTH",
"316 639 OFFCURVE",
"354 616 OFFCURVE",
"354 562 CURVE SMOOTH",
"354 511 OFFCURVE",
"320 482 OFFCURVE",
"287 450 CURVE SMOOTH",
"239 404 OFFCURVE",
"221 383 OFFCURVE",
"221 322 CURVE SMOOTH",
"221 188 LINE"
);
},
{
closed = 1;
nodes = (
"306 -15 OFFCURVE",
"340 7 OFFCURVE",
"340 63 CURVE SMOOTH",
"340 118 OFFCURVE",
"306 140 OFFCURVE",
"256 140 CURVE SMOOTH",
"208 140 OFFCURVE",
"174 117 OFFCURVE",
"174 61 CURVE SMOOTH",
"174 6 OFFCURVE",
"208 -15 OFFCURVE",
"256 -15 CURVE SMOOTH"
);
}
);
};
hints = (
{
place = "{175, 178}";
},
{
place = "{359, 127}";
},
{
horizontal = 1;
place = "{-15, 157}";
},
{
horizontal = 1;
place = "{655, 60}";
}
);
layerId = "D537FF15-C70F-4B12-AACC-84E5BB5FCF97";
paths = (
{
closed = 1;
nodes = (
"241 194 LINE",
"324 194 LINE",
"300 311 LINE",
"447 358 OFFCURVE",
"503 449 OFFCURVE",
"503 540 CURVE SMOOTH",
"503 662 OFFCURVE",
"415 715 OFFCURVE",
"292 715 CURVE SMOOTH",
"191 715 OFFCURVE",
"87 662 OFFCURVE",
"87 571 CURVE SMOOTH",
"87 533 OFFCURVE",
"111 506 OFFCURVE",
"155 506 CURVE SMOOTH",
"190 506 OFFCURVE",
"214 527 OFFCURVE",
"223 555 CURVE",
"202 579 LINE SMOOTH",
"164 622 OFFCURVE",
"194 655 OFFCURVE",
"267 655 CURVE SMOOTH",
"338 655 OFFCURVE",
"376 620 OFFCURVE",
"376 552 CURVE SMOOTH",
"376 474 OFFCURVE",
"320 420 OFFCURVE",
"201 390 CURVE"
);
},
{
closed = 1;
nodes = (
"192 11 OFFCURVE",
"226 -15 OFFCURVE",
"278 -15 CURVE SMOOTH",
"330 -15 OFFCURVE",
"370 12 OFFCURVE",
"370 62 CURVE SMOOTH",
"370 110 OFFCURVE",
"336 142 OFFCURVE",
"284 142 CURVE SMOOTH",
"232 142 OFFCURVE",
"192 110 OFFCURVE",
"192 61 CURVE SMOOTH"
);
}
);
width = 520;
}
);
unicode = 003F;
},
{
glyphname = at;
lastChange = "2016-09-25 07:29:43 +0000";
layers = (
{
background = {
paths = (
{
closed = 1;
nodes = (
"508 -183 OFFCURVE",
"590 -153 OFFCURVE",
"650 -95 CURVE",
"618 -56 LINE",
"565 -99 OFFCURVE",
"507 -128 OFFCURVE",
"411 -128 CURVE SMOOTH",
"280 -128 OFFCURVE",
"116 -55 OFFCURVE",
"116 186 CURVE SMOOTH",
"116 398 OFFCURVE",
"257 514 OFFCURVE",
"437 514 CURVE SMOOTH",
"638 514 OFFCURVE",
"731 409 OFFCURVE",
"731 237 CURVE SMOOTH",
"731 112 OFFCURVE",
"676 44 OFFCURVE",
"616 44 CURVE SMOOTH",
"580 44 OFFCURVE",
"581 58 OFFCURVE",
"582 101 CURVE SMOOTH",
"592 388 LINE",
"578 394 LINE",
"526 372 LINE",
"499 387 OFFCURVE",
"462 395 OFFCURVE",
"422 395 CURVE SMOOTH",
"321 395 OFFCURVE",
"228 323 OFFCURVE",
"228 147 CURVE SMOOTH",
"228 56 OFFCURVE",
"263 -11 OFFCURVE",
"361 -11 CURVE SMOOTH",
"421 -11 OFFCURVE",
"470 39 OFFCURVE",
"498 137 CURVE SMOOTH",
"519 210 LINE",
"523 210 LINE",
"517 83 LINE SMOOTH",
"514 24 OFFCURVE",
"521 -11 OFFCURVE",
"591 -11 CURVE SMOOTH",
"697 -11 OFFCURVE",
"792 67 OFFCURVE",
"792 244 CURVE SMOOTH",
"792 461 OFFCURVE",
"652 568 OFFCURVE",
"437 568 CURVE SMOOTH",
"193 568 OFFCURVE",
"51 401 OFFCURVE",
"51 184 CURVE SMOOTH",
"51 -75 OFFCURVE",
"222 -183 OFFCURVE",
"407 -183 CURVE SMOOTH"
);
},
{
closed = 1;
nodes = (
"323 52 OFFCURVE",
"308 92 OFFCURVE",
"308 153 CURVE SMOOTH",
"308 249 OFFCURVE",
"343 347 OFFCURVE",
"432 347 CURVE SMOOTH",
"460 347 OFFCURVE",
"492 340 OFFCURVE",
"514 330 CURVE",
"482 223 LINE SMOOTH",
"454 130 OFFCURVE",
"424 52 OFFCURVE",
"370 52 CURVE SMOOTH"
);
}
);
};
hints = (
{
place = "{65, 65}";
},
{
place = "{242, 80}";
},
{
place = "{534, 67}";
},
{
place = "{745, 61}";
},
{
horizontal = 1;
place = "{-183, 55}";
},
{
horizontal = 1;
place = "{-11, 55}";
},
{
horizontal = 1;
place = "{347, 48}";
},
{
horizontal = 1;
place = "{514, 54}";
}
);
layerId = UUID0;
paths = (
{
closed = 1;
nodes = (
"332 395 OFFCURVE",
"239 323 OFFCURVE",
"239 147 CURVE SMOOTH",
"239 56 OFFCURVE",
"274 -11 OFFCURVE",
"372 -11 CURVE SMOOTH",
"432 -11 OFFCURVE",
"481 39 OFFCURVE",
"509 137 CURVE SMOOTH",
"530 210 LINE",
"534 210 LINE",
"528 83 LINE SMOOTH",
"525 24 OFFCURVE",
"532 -11 OFFCURVE",
"602 -11 CURVE SMOOTH",
"708 -11 OFFCURVE",
"803 67 OFFCURVE",
"803 244 CURVE SMOOTH",
"803 461 OFFCURVE",
"663 568 OFFCURVE",
"448 568 CURVE SMOOTH",
"204 568 OFFCURVE",
"62 401 OFFCURVE",
"62 184 CURVE SMOOTH",
"62 -75 OFFCURVE",
"233 -183 OFFCURVE",
"418 -183 CURVE SMOOTH",
"519 -183 OFFCURVE",
"601 -153 OFFCURVE",
"661 -95 CURVE",
"629 -56 LINE",
"576 -99 OFFCURVE",
"518 -128 OFFCURVE",
"422 -128 CURVE SMOOTH",
"291 -128 OFFCURVE",
"127 -55 OFFCURVE",
"127 186 CURVE SMOOTH",
"127 398 OFFCURVE",
"268 514 OFFCURVE",
"448 514 CURVE SMOOTH",
"649 514 OFFCURVE",
"742 409 OFFCURVE",
"742 237 CURVE SMOOTH",
"742 112 OFFCURVE",
"687 44 OFFCURVE",
"627 44 CURVE SMOOTH",
"591 44 OFFCURVE",
"592 58 OFFCURVE",
"593 101 CURVE SMOOTH",
"603 388 LINE",
"589 394 LINE",
"537 372 LINE",
"510 387 OFFCURVE",
"473 395 OFFCURVE",
"433 395 CURVE SMOOTH"
);
},
{
closed = 1;
nodes = (
"493 223 LINE SMOOTH",
"465 130 OFFCURVE",
"435 52 OFFCURVE",
"381 52 CURVE SMOOTH",
"334 52 OFFCURVE",
"319 92 OFFCURVE",
"319 153 CURVE SMOOTH",
"319 249 OFFCURVE",
"354 347 OFFCURVE",
"443 347 CURVE SMOOTH",
"471 347 OFFCURVE",
"503 340 OFFCURVE",
"525 330 CURVE"
);
}
);
width = 860;
},
{
background = {
paths = (
{
closed = 1;
nodes = (
"509 -197 OFFCURVE",
"596 -162 OFFCURVE",
"662 -96 CURVE",
"623 -46 LINE",
"565 -94 OFFCURVE",
"499 -112 OFFCURVE",
"406 -112 CURVE SMOOTH",
"291 -112 OFFCURVE",
"140 -46 OFFCURVE",
"140 185 CURVE SMOOTH",
"140 391 OFFCURVE",
"269 511 OFFCURVE",
"437 511 CURVE SMOOTH",
"623 511 OFFCURVE",
"710 404 OFFCURVE",
"710 240 CURVE SMOOTH",
"710 123 OFFCURVE",
"677 46 OFFCURVE",
"630 46 CURVE SMOOTH",
"614 46 OFFCURVE",
"603 55 OFFCURVE",
"604 89 CURVE SMOOTH",
"614 391 LINE",
"581 408 LINE",
"528 382 LINE",
"497 400 OFFCURVE",
"460 407 OFFCURVE",
"422 407 CURVE SMOOTH",
"317 407 OFFCURVE",
"217 332 OFFCURVE",
"217 147 CURVE SMOOTH",
"217 72 OFFCURVE",
"251 -17 OFFCURVE",
"356 -17 CURVE SMOOTH",
"415 -17 OFFCURVE",
"472 11 OFFCURVE",
"504 124 CURVE SMOOTH",
"517 170 LINE",
"523 169 LINE",
"519 77 LINE",
"519 -2 OFFCURVE",
"556 -17 OFFCURVE",
"601 -17 CURVE SMOOTH",
"708 -17 OFFCURVE",
"808 66 OFFCURVE",
"808 244 CURVE SMOOTH",
"808 470 OFFCURVE",
"656 582 OFFCURVE",
"437 582 CURVE SMOOTH",
"189 582 OFFCURVE",
"36 407 OFFCURVE",
"36 169 CURVE SMOOTH",
"36 -84 OFFCURVE",
"219 -197 OFFCURVE",
"408 -197 CURVE SMOOTH"
);
},
{
closed = 1;
nodes = (
"336 55 OFFCURVE",
"323 93 OFFCURVE",
"323 150 CURVE SMOOTH",
"323 246 OFFCURVE",
"355 348 OFFCURVE",
"434 348 CURVE SMOOTH",
"456 348 OFFCURVE",
"496 343 OFFCURVE",
"515 331 CURVE",
"477 201 LINE SMOOTH",
"446 94 OFFCURVE",
"412 55 OFFCURVE",
"377 55 CURVE SMOOTH"
);
}
);
};
hints = (
{
place = "{60, 104}";
},
{
place = "{241, 106}";
},
{
place = "{543, 90}";
},
{
place = "{734, 98}";
},
{
horizontal = 1;
place = "{-197, 85}";
},
{
horizontal = 1;
place = "{-17, 63}";
},
{
horizontal = 1;
place = "{348, 59}";
},
{
horizontal = 1;
place = "{511, 71}";
}
);
layerId = "D537FF15-C70F-4B12-AACC-84E5BB5FCF97";
paths = (
{
closed = 1;
nodes = (
"337 407 OFFCURVE",
"237 332 OFFCURVE",
"237 147 CURVE SMOOTH",
"237 72 OFFCURVE",
"271 -17 OFFCURVE",
"376 -17 CURVE SMOOTH",
"435 -17 OFFCURVE",
"492 11 OFFCURVE",
"524 124 CURVE SMOOTH",
"537 170 LINE",
"543 169 LINE",
"539 77 LINE",
"539 -2 OFFCURVE",
"576 -17 OFFCURVE",
"621 -17 CURVE SMOOTH",
"728 -17 OFFCURVE",
"828 66 OFFCURVE",
"828 244 CURVE SMOOTH",
"828 470 OFFCURVE",
"676 582 OFFCURVE",
"457 582 CURVE SMOOTH",
"209 582 OFFCURVE",
"56 407 OFFCURVE",
"56 169 CURVE SMOOTH",
"56 -84 OFFCURVE",
"239 -197 OFFCURVE",
"428 -197 CURVE SMOOTH",
"529 -197 OFFCURVE",
"616 -162 OFFCURVE",
"682 -96 CURVE",
"643 -46 LINE",
"585 -94 OFFCURVE",
"519 -112 OFFCURVE",
"426 -112 CURVE SMOOTH",
"311 -112 OFFCURVE",
"160 -46 OFFCURVE",
"160 185 CURVE SMOOTH",
"160 391 OFFCURVE",
"289 511 OFFCURVE",
"457 511 CURVE SMOOTH",
"643 511 OFFCURVE",
"730 404 OFFCURVE",
"730 240 CURVE SMOOTH",
"730 123 OFFCURVE",
"697 46 OFFCURVE",
"650 46 CURVE SMOOTH",
"634 46 OFFCURVE",
"623 55 OFFCURVE",
"624 89 CURVE SMOOTH",
"634 391 LINE",
"601 408 LINE",
"548 382 LINE",
"517 400 OFFCURVE",
"480 407 OFFCURVE",
"442 407 CURVE SMOOTH"
);
},
{
closed = 1;
nodes = (
"497 201 LINE SMOOTH",
"466 94 OFFCURVE",
"432 55 OFFCURVE",
"397 55 CURVE SMOOTH",
"356 55 OFFCURVE",
"343 93 OFFCURVE",
"343 150 CURVE SMOOTH",
"343 246 OFFCURVE",
"375 348 OFFCURVE",
"454 348 CURVE SMOOTH",
"476 348 OFFCURVE",
"516 343 OFFCURVE",
"535 331 CURVE"
);
}
);
width = 867;
}
);
unicode = 0040;
},
{
glyphname = A;
lastChange = "2016-09-25 11:01:07 +0000";
layers = (
{
anchors = (
{
name = bottom;
position = "{318, -30}";
},
{
name = top;
position = "{360, 730}";
}
);
background = {
paths = (
{
closed = 1;
nodes = (
"244 0 LINE",
"244 47 LINE",
"187 55 LINE",
"158 61 OFFCURVE",
"152 75 OFFCURVE",
"164 109 CURVE SMOOTH",
"206 231 LINE",
"474 231 LINE",
"517 105 LINE",
"530 70 OFFCURVE",
"525 59 OFFCURVE",
"498 55 CURVE SMOOTH",
"440 48 LINE",
"440 0 LINE",
"707 0 LINE",
"707 50 LINE",
"666 58 LINE",
"638 65 OFFCURVE",
"635 74 OFFCURVE",
"622 109 CURVE SMOOTH",
"413 700 LINE",
"307 700 LINE",
"96 110 LINE",
"81 71 OFFCURVE",
"75 61 OFFCURVE",
"50 56 CURVE SMOOTH",
"2 48 LINE",
"2 0 LINE"
);
},
{
closed = 1;
nodes = (
"340 617 LINE",
"344 617 LINE",
"455 288 LINE",
"226 288 LINE"
);
}
);
};
hints = (
{
horizontal = 1;
place = "{231, 57}";
},
{
horizontal = 1;
place = "{0, 21}";
target = up;
type = BottomGhost;
},
{
horizontal = 1;
place = "{706, -20}";
target = down;
type = TopGhost;
}
);
layerId = UUID0;
paths = (
{
closed = 1;
nodes = (
"309 695 LINE",
"80 58 LINE",
"1 46 LINE",
"-5 0 LINE",
"229 0 LINE",
"235 46 LINE",
"144 58 LINE",
"204 231 LINE",
"444 231 LINE",
"490 58 LINE",
"409 46 LINE",
"403 0 LINE",
"669 0 LINE",
"675 46 LINE",
"590 57 LINE",
"408 706 LINE"
);
},
{
closed = 1;
nodes = (
"339 619 LINE",
"342 619 LINE",
"429 288 LINE",
"224 288 LINE"
);
}
);
width = 691;
},
{
anchors = (
{
name = bottom;
position = "{301, -30}";
},
{
name = top;
position = "{356, 730}";
}
);
background = {
paths = (
{
closed = 1;
nodes = (
"254 0 LINE",
"254 60 LINE",
"210 68 LINE SMOOTH",
"181 74 OFFCURVE",
"176 89 OFFCURVE",
"187 121 CURVE SMOOTH",
"218 215 LINE",
"440 215 LINE",
"471 117 LINE SMOOTH",
"481 84 OFFCURVE",
"479 71 OFFCURVE",
"452 67 CURVE SMOOTH",
"406 60 LINE",
"406 0 LINE",
"715 0 LINE",
"715 60 LINE",
"675 67 LINE SMOOTH",
"648 72 OFFCURVE",
"643 87 OFFCURVE",
"632 119 CURVE SMOOTH",
"426 700 LINE",
"298 700 LINE",
"90 122 LINE SMOOTH",
"77 85 OFFCURVE",
"70 72 OFFCURVE",
"46 67 CURVE SMOOTH",
"-1 60 LINE",
"-1 0 LINE"
);
},
{
closed = 1;
nodes = (
"331 552 LINE",
"335 552 LINE",
"420 283 LINE",
"239 283 LINE"
);
}
);
};
hints = (
{
horizontal = 1;
place = "{223, 70}";
},
{
horizontal = 1;
place = "{0, 21}";
target = up;
type = BottomGhost;
},
{
horizontal = 1;
place = "{710, -20}";
target = down;
type = TopGhost;
}
);
layerId = "D537FF15-C70F-4B12-AACC-84E5BB5FCF97";
paths = (
{
closed = 1;
nodes = (
"294 695 LINE",
"63 66 LINE",
"-3 55 LINE",
"-9 0 LINE",
"233 0 LINE",
"239 54 LINE",
"151 66 LINE",
"206 223 LINE",
"428 223 LINE",
"469 66 LINE",
"391 54 LINE",
"385 0 LINE",
"679 0 LINE",
"685 55 LINE",
"613 65 LINE",
"434 710 LINE"
);
},
{
closed = 1;
nodes = (
"336 605 LINE",
"339 605 LINE",
"411 293 LINE",
"228 293 LINE"
);
}
);
width = 694;
}
);
leftKerningGroup = A;
rightKerningGroup = A;
unicode = 0041;
},
{
glyphname = B;
lastChange = "2016-09-25 07:29:43 +0000";
layers = (
{
background = {
paths = (
{
closed = 1;
nodes = (
"312 0 LINE SMOOTH",
"507 0 OFFCURVE",
"605 77 OFFCURVE",
"605 199 CURVE SMOOTH",
"605 305 OFFCURVE",
"535 360 OFFCURVE",
"420 370 CURVE",
"420 375 LINE",
"494 392 OFFCURVE",
"565 450 OFFCURVE",
"565 534 CURVE SMOOTH",
"565 661 OFFCURVE",
"461 700 OFFCURVE",
"306 700 CURVE SMOOTH",
"51 700 LINE",
"51 652 LINE",
"107 643 LINE SMOOTH",
"137 638 OFFCURVE",
"140 627 OFFCURVE",
"140 596 CURVE SMOOTH",
"140 108 LINE SMOOTH",
"140 78 OFFCURVE",
"138 62 OFFCURVE",
"109 57 CURVE SMOOTH",
"51 48 LINE",
"51 0 LINE"
);
},
{
closed = 1;
nodes = (
"289 55 OFFCURVE",
"257 56 OFFCURVE",
"239 60 CURVE",
"239 333 LINE",
"262 336 OFFCURVE",
"284 337 OFFCURVE",
"314 337 CURVE SMOOTH",
"414 337 OFFCURVE",
"498 306 OFFCURVE",
"498 202 CURVE SMOOTH",
"498 104 OFFCURVE",
"430 55 OFFCURVE",
"310 55 CURVE SMOOTH"
);
},
{
closed = 1;
nodes = (
"268 389 OFFCURVE",
"252 389 OFFCURVE",
"239 391 CURVE",
"239 646 LINE",
"297 646 LINE SMOOTH",
"396 646 OFFCURVE",
"458 625 OFFCURVE",
"458 530 CURVE SMOOTH",
"458 437 OFFCURVE",
"394 389 OFFCURVE",
"294 389 CURVE SMOOTH"
);
}
);
};
hints = (
{
place = "{156, 87}";
},
{
place = "{465, 97}";
},
{
place = "{493, 69}";
},
{
place = "{493, 97}";
},
{
horizontal = 1;
place = "{0, 54}";
},
{
horizontal = 1;
place = "{646, 54}";
}
);
layerId = UUID0;
paths = (
{
closed = 1;
nodes = (
"551 661 OFFCURVE",
"454 700 OFFCURVE",
"304 700 CURVE SMOOTH",
"77 700 LINE",
"71 654 LINE",
"158 637 LINE",
"133 60 LINE",
"44 44 LINE",
"39 0 LINE",
"273 0 LINE SMOOTH",
"477 0 OFFCURVE",
"579 84 OFFCURVE",
"579 205 CURVE SMOOTH",
"579 294 OFFCURVE",
"521 353 OFFCURVE",
"402 369 CURVE",
"402 374 LINE",
"470 399 OFFCURVE",
"551 456 OFFCURVE",
"551 549 CURVE SMOOTH"
);
},
{
closed = 1;
nodes = (
"277 328 LINE",
"299 332 OFFCURVE",
"312 334 OFFCURVE",
"337 334 CURVE SMOOTH",
"432 334 OFFCURVE",
"482 291 OFFCURVE",
"482 208 CURVE SMOOTH",
"482 115 OFFCURVE",
"427 55 OFFCURVE",
"285 54 CURVE SMOOTH",
"221 54 LINE",
"244 646 LINE",
"295 646 LINE SMOOTH",
"394 646 OFFCURVE",
"454 622 OFFCURVE",
"454 537 CURVE SMOOTH",
"454 439 OFFCURVE",
"381 394 OFFCURVE",
"279 378 CURVE"
);
}
);
width = 615;
},
{
background = {
paths = (
{
closed = 1;
nodes = (
"350 0 LINE SMOOTH",
"600 0 OFFCURVE",
"635 120 OFFCURVE",
"635 211 CURVE SMOOTH",
"635 299 OFFCURVE",
"569 358 OFFCURVE",
"477 364 CURVE",
"477 369 LINE",
"551 386 OFFCURVE",
"595 458 OFFCURVE",
"595 527 CURVE SMOOTH",
"595 621 OFFCURVE",
"542 700 OFFCURVE",
"362 700 CURVE SMOOTH",
"37 700 LINE",
"37 640 LINE",
"88 631 LINE SMOOTH",
"118 626 OFFCURVE",
"121 615 OFFCURVE",
"121 584 CURVE SMOOTH",
"121 120 LINE SMOOTH",
"121 90 OFFCURVE",
"119 75 OFFCURVE",
"90 70 CURVE SMOOTH",
"37 60 LINE",
"37 0 LINE"
);
},
{
closed = 1;
nodes = (
"323 71 OFFCURVE",
"287 72 OFFCURVE",
"269 76 CURVE",
"269 321 LINE",
"292 324 OFFCURVE",
"306 324 OFFCURVE",
"322 324 CURVE SMOOTH",
"415 324 OFFCURVE",
"482 297 OFFCURVE",
"482 209 CURVE SMOOTH",
"482 134 OFFCURVE",
"453 71 OFFCURVE",
"335 71 CURVE SMOOTH"
);
},
{
closed = 1;
nodes = (
"307 390 OFFCURVE",
"282 390 OFFCURVE",
"269 392 CURVE",
"269 630 LINE",
"307 630 LINE SMOOTH",
"411 630 OFFCURVE",
"442 579 OFFCURVE",
"442 517 CURVE SMOOTH",
"442 434 OFFCURVE",
"407 390 OFFCURVE",
"310 390 CURVE SMOOTH"
);
}
);
};
hints = (
{
place = "{132, 133}";
},
{
place = "{441, 133}";
},
{
place = "{468, 106}";
},
{
place = "{468, 134}";
},
{
horizontal = 1;
place = "{0, 67}";
},
{
horizontal = 1;
place = "{633, 67}";
}
);
layerId = "D537FF15-C70F-4B12-AACC-84E5BB5FCF97";
paths = (
{
closed = 1;
nodes = (
"562 661 OFFCURVE",
"464 700 OFFCURVE",
"312 700 CURVE SMOOTH",
"55 700 LINE",
"49 644 LINE",
"133 627 LINE",
"108 69 LINE",
"22 54 LINE",
"17 0 LINE",
"271 0 LINE SMOOTH",
"486 0 OFFCURVE",
"590 84 OFFCURVE",
"590 205 CURVE SMOOTH",
"590 294 OFFCURVE",
"533 353 OFFCURVE",
"410 369 CURVE",
"410 374 LINE",
"478 399 OFFCURVE",
"562 456 OFFCURVE",
"562 549 CURVE SMOOTH"
);
},
{
closed = 1;
nodes = (
"289 321 LINE",
"305 323 OFFCURVE",
"320 325 OFFCURVE",
"335 325 CURVE SMOOTH",
"406 325 OFFCURVE",
"456 296 OFFCURVE",
"456 208 CURVE SMOOTH",
"456 115 OFFCURVE",
"391 67 OFFCURVE",
"263 67 CURVE SMOOTH",
"242 67 LINE",
"265 633 LINE",
"287 633 LINE SMOOTH",
"361 633 OFFCURVE",
"429 617 OFFCURVE",
"429 527 CURVE SMOOTH",
"429 442 OFFCURVE",
"376 399 OFFCURVE",
"291 385 CURVE"
);
}
);
width = 620;
}
);
unicode = 0042;
},
{
glyphname = C;
lastChange = "2016-09-25 07:29:43 +0000";
layers = (
{
anchors = (
{
name = bottom;
position = "{344, -30}";
},
{
name = top;
position = "{383, 730}";
}
);
background = {
paths = (
{
closed = 1;
nodes = (
"532 -14 OFFCURVE",
"618 64 OFFCURVE",
"659 133 CURVE",
"612 167 LINE",
"562 95 OFFCURVE",
"503 55 OFFCURVE",
"409 55 CURVE SMOOTH",
"255 55 OFFCURVE",
"171 190 OFFCURVE",
"171 352 CURVE SMOOTH",
"171 541 OFFCURVE",
"241 651 OFFCURVE",
"384 651 CURVE SMOOTH",
"492 651 OFFCURVE",
"552 595 OFFCURVE",
"592 471 CURVE",
"646 483 LINE",
"607 716 LINE",
"558 716 LINE",
"548 653 LINE",
"520 681 OFFCURVE",
"471 714 OFFCURVE",
"382 714 CURVE SMOOTH",
"200 714 OFFCURVE",
"64 578 OFFCURVE",
"64 351 CURVE SMOOTH",
"64 161 OFFCURVE",
"169 -14 OFFCURVE",
"399 -14 CURVE SMOOTH"
);
}
);
};
hints = (
{
place = "{66, 94}";
},
{
horizontal = 1;
place = "{-14, 69}";
},
{
horizontal = 1;
place = "{507, 208}";
},
{
horizontal = 1;
place = "{652, 63}";
}
);
layerId = UUID0;
paths = (
{
closed = 1;
nodes = (
"482 537 LINE",
"498 521 OFFCURVE",
"523 507 OFFCURVE",
"554 507 CURVE SMOOTH",
"583 507 OFFCURVE",
"609 528 OFFCURVE",
"609 566 CURVE SMOOTH",
"609 662 OFFCURVE",
"492 715 OFFCURVE",
"389 715 CURVE SMOOTH",
"215 715 OFFCURVE",
"71 585 OFFCURVE",
"71 325 CURVE SMOOTH",
"71 174 OFFCURVE",
"136 -14 OFFCURVE",
"354 -14 CURVE SMOOTH",
"477 -14 OFFCURVE",
"551 61 OFFCURVE",
"599 128 CURVE",
"560 168 LINE",
"507 105 OFFCURVE",
"448 55 OFFCURVE",
"364 55 CURVE SMOOTH",
"224 55 OFFCURVE",
"165 192 OFFCURVE",
"165 334 CURVE SMOOTH",
"165 542 OFFCURVE",
"247 652 OFFCURVE",
"385 652 CURVE SMOOTH",
"452 652 OFFCURVE",
"526 626 OFFCURVE",
"499 571 CURVE SMOOTH"
);
}
);
width = 629;
},
{
anchors = (
{
name = bottom;
position = "{336, -30}";
},
{
name = top;
position = "{378, 730}";
}
);
background = {
paths = (
{
closed = 1;
nodes = (
"540 -14 OFFCURVE",
"618 69 OFFCURVE",
"667 137 CURVE",
"606 187 LINE",
"566 137 OFFCURVE",
"512 81 OFFCURVE",
"415 81 CURVE SMOOTH",
"299 81 OFFCURVE",
"206 171 OFFCURVE",
"206 350 CURVE SMOOTH",
"206 513 OFFCURVE",
"266 629 OFFCURVE",
"395 629 CURVE SMOOTH",
"496 629 OFFCURVE",
"555 567 OFFCURVE",
"583 463 CURVE",
"658 481 LINE",
"619 716 LINE",
"561 716 LINE",
"551 651 LINE",
"523 679 OFFCURVE",
"469 714 OFFCURVE",
"379 714 CURVE SMOOTH",
"178 714 OFFCURVE",
"50 566 OFFCURVE",
"50 339 CURVE SMOOTH",
"50 116 OFFCURVE",
"177 -14 OFFCURVE",
"393 -14 CURVE SMOOTH"
);
}
);
};
hints = (
{
place = "{52, 141}";
},
{
horizontal = 1;
place = "{-14, 90}";
},
{
horizontal = 1;
place = "{641, 74}";
}
);
layerId = "D537FF15-C70F-4B12-AACC-84E5BB5FCF97";
paths = (
{
closed = 1;
nodes = (
"464 515 LINE",
"482 496 OFFCURVE",
"514 479 OFFCURVE",
"549 479 CURVE SMOOTH",
"582 479 OFFCURVE",
"618 503 OFFCURVE",
"618 547 CURVE SMOOTH",
"618 665 OFFCURVE",
"500 715 OFFCURVE",
"392 715 CURVE SMOOTH",
"215 715 OFFCURVE",
"56 603 OFFCURVE",
"56 320 CURVE SMOOTH",
"56 149 OFFCURVE",
"130 -14 OFFCURVE",
"357 -14 CURVE SMOOTH",
"482 -14 OFFCURVE",
"560 60 OFFCURVE",
"608 127 CURVE",
"556 178 LINE",
"503 117 OFFCURVE",
"450 76 OFFCURVE",
"369 76 CURVE SMOOTH",
"229 76 OFFCURVE",
"197 210 OFFCURVE",
"197 331 CURVE SMOOTH",
"197 518 OFFCURVE",
"259 641 OFFCURVE",
"393 641 CURVE SMOOTH",
"460 641 OFFCURVE",
"512 614 OFFCURVE",
"481 550 CURVE SMOOTH"
);
}
);
width = 633;
}
);
leftKerningGroup = O;
rightKerningGroup = C;
unicode = 0043;
},
{
glyphname = D;
lastChange = "2016-09-25 07:29:43 +0000";
layers = (
{
anchors = (
{
name = bottom;
position = "{337, -30}";
},
{
name = top;
position = "{352, 730}";
}
);
background = {
paths = (
{
closed = 1;
nodes = (
"310 0 LINE SMOOTH",
"565 0 OFFCURVE",
"704 146 OFFCURVE",
"704 372 CURVE SMOOTH",
"704 602 OFFCURVE",
"555 700 OFFCURVE",
"338 700 CURVE SMOOTH",
"51 700 LINE",
"51 652 LINE",
"107 643 LINE SMOOTH",
"137 638 OFFCURVE",
"140 627 OFFCURVE",
"140 596 CURVE SMOOTH",
"140 108 LINE SMOOTH",
"140 78 OFFCURVE",
"138 62 OFFCURVE",
"109 57 CURVE SMOOTH",
"51 48 LINE",
"51 0 LINE"
);
},
{
closed = 1;
nodes = (
"291 55 OFFCURVE",
"256 57 OFFCURVE",
"239 60 CURVE",
"239 646 LINE",
"330 646 LINE SMOOTH",
"504 646 OFFCURVE",
"597 548 OFFCURVE",
"597 364 CURVE SMOOTH",
"597 154 OFFCURVE",
"508 55 OFFCURVE",
"311 55 CURVE SMOOTH"
);
}
);
};
hints = (
{
place = "{156, 87}";
},
{
place = "{596, 97}";
},
{
horizontal = 1;
place = "{0, 55}";
},
{
horizontal = 1;
place = "{646, 54}";
}
);
layerId = UUID0;
paths = (
{
closed = 1;
nodes = (
"257 0 LINE SMOOTH",
"435 0 OFFCURVE",
"682 60 OFFCURVE",
"682 392 CURVE SMOOTH",
"682 616 OFFCURVE",
"529 700 OFFCURVE",
"344 700 CURVE SMOOTH",
"77 700 LINE",
"71 654 LINE",
"158 637 LINE",
"133 60 LINE",
"44 45 LINE",
"39 0 LINE"
);
},
{
closed = 1;
nodes = (
"244 646 LINE",
"333 646 LINE SMOOTH",
"457 646 OFFCURVE",
"585 588 OFFCURVE",
"585 383 CURVE SMOOTH",
"585 101 OFFCURVE",
"395 55 OFFCURVE",
"249 55 CURVE SMOOTH",
"221 55 LINE"
);
}
);
width = 730;
},
{
anchors = (
{
name = bottom;
position = "{323, -30}";
},
{
name = top;
position = "{350, 730}";
}
);
background = {
paths = (
{
closed = 1;
nodes = (
"306 0 LINE SMOOTH",
"607 0 OFFCURVE",
"713 158 OFFCURVE",
"713 378 CURVE SMOOTH",
"713 608 OFFCURVE",
"568 700 OFFCURVE",
"356 700 CURVE SMOOTH",
"37 700 LINE",
"37 640 LINE",
"92 629 LINE SMOOTH",
"121 624 OFFCURVE",
"121 613 OFFCURVE",
"121 582 CURVE SMOOTH",
"121 123 LINE SMOOTH",
"121 88 OFFCURVE",
"117 75 OFFCURVE",
"94 71 CURVE SMOOTH",
"37 60 LINE",
"37 0 LINE"
);
},
{
closed = 1;
nodes = (
"309 71 OFFCURVE",
"280 74 OFFCURVE",
"269 76 CURVE",
"269 630 LINE",
"306 630 LINE SMOOTH",
"490 630 OFFCURVE",
"559 524 OFFCURVE",
"559 375 CURVE SMOOTH",
"559 218 OFFCURVE",
"524 71 OFFCURVE",
"331 71 CURVE SMOOTH"
);
}
);
};
hints = (
{
place = "{132, 134}";
},
{
place = "{567, 143}";
},
{
horizontal = 1;
place = "{0, 70}";
},
{
horizontal = 1;
place = "{633, 67}";
}
);
layerId = "D537FF15-C70F-4B12-AACC-84E5BB5FCF97";
paths = (
{
closed = 1;
nodes = (
"260 0 LINE SMOOTH",
"441 0 OFFCURVE",
"698 60 OFFCURVE",
"698 392 CURVE SMOOTH",
"698 616 OFFCURVE",
"534 700 OFFCURVE",
"347 700 CURVE SMOOTH",
"55 700 LINE",
"49 644 LINE",
"133 627 LINE",
"108 69 LINE",
"22 55 LINE",
"17 0 LINE"
);
},
{
closed = 1;
nodes = (
"266 633 LINE",
"306 633 LINE SMOOTH",
"425 633 OFFCURVE",
"555 588 OFFCURVE",
"555 383 CURVE SMOOTH",
"555 110 OFFCURVE",
"377 70 OFFCURVE",
"257 70 CURVE SMOOTH",
"243 70 LINE"
);
}
);
width = 738;
}
);
leftKerningGroup = D;
rightKerningGroup = O;
unicode = 0044;
},
{
glyphname = E;
lastChange = "2016-09-25 07:29:43 +0000";
layers = (
{
anchors = (
{
name = bottom;
position = "{326, -30}";
},
{
name = top;
position = "{334, 730}";
}
);
background = {
paths = (
{
closed = 1;
nodes = (
"556 0 LINE",
"580 184 LINE",
"525 184 LINE",
"497 77 OFFCURVE",
"472 54 OFFCURVE",
"375 54 CURVE SMOOTH",
"246 54 LINE",
"246 325 LINE",
"333 325 LINE SMOOTH",
"415 325 OFFCURVE",
"414 317 OFFCURVE",
"426 240 CURVE",
"472 248 LINE",
"472 475 LINE",
"426 469 LINE",
"409 394 OFFCURVE",
"416 387 OFFCURVE",
"333 387 CURVE SMOOTH",
"246 387 LINE",
"246 646 LINE",
"343 646 LINE SMOOTH",
"441 646 OFFCURVE",
"466 625 OFFCURVE",
"506 520 CURVE",
"558 537 LINE",
"521 700 LINE",
"58 700 LINE",
"58 652 LINE",
"114 643 LINE SMOOTH",
"144 638 OFFCURVE",
"147 627 OFFCURVE",
"147 596 CURVE SMOOTH",
"147 108 LINE SMOOTH",
"147 78 OFFCURVE",
"145 62 OFFCURVE",
"116 57 CURVE SMOOTH",
"58 48 LINE",
"58 0 LINE"
);
}
);
};
hints = (
{
place = "{156, 80}";
},
{
place = "{156, 94}";
},
{
horizontal = 1;
place = "{0, 58}";
},
{
horizontal = 1;
place = "{328, 63}";
},
{
horizontal = 1;
place = "{643, 57}";
}
);
layerId = UUID0;
paths = (
{
closed = 1;
nodes = (
"141 59 LINE",
"59 46 LINE",
"53 0 LINE",
"532 0 LINE",
"556 184 LINE",
"501 184 LINE",
"487 143 LINE SMOOTH",
"465 78 OFFCURVE",
"445 58 OFFCURVE",
"384 58 CURVE SMOOTH",
"227 58 LINE",
"238 328 LINE",
"485 328 LINE",
"490 391 LINE",
"241 391 LINE",
"251 643 LINE",
"390 643 LINE SMOOTH",
"453 643 OFFCURVE",
"467 622 OFFCURVE",
"486 559 CURVE SMOOTH",
"497 523 LINE",
"552 532 LINE",
"538 700 LINE",
"84 700 LINE",
"78 654 LINE",
"164 637 LINE"
);
}
);
width = 600;
},
{
anchors = (
{
name = bottom;
position = "{314, -30}";
},
{
name = top;
position = "{322, 730}";
}
);
background = {
paths = (
{
closed = 1;
nodes = (
"578 0 LINE",
"602 188 LINE",
"533 188 LINE",
"505 81 OFFCURVE",
"485 70 OFFCURVE",
"388 70 CURVE SMOOTH",
"270 70 LINE",
"270 323 LINE",
"338 323 LINE",
"403 321 OFFCURVE",
"403 309 OFFCURVE",
"414 238 CURVE",
"472 248 LINE",
"472 481 LINE",
"414 474 LINE",
"397 399 OFFCURVE",
"404 391 OFFCURVE",
"321 391 CURVE SMOOTH",
"270 391 LINE",
"270 630 LINE",
"362 630 LINE SMOOTH",
"448 630 OFFCURVE",
"475 614 OFFCURVE",
"511 515 CURVE",
"576 532 LINE",
"538 700 LINE",
"43 700 LINE",
"43 640 LINE",
"89 631 LINE SMOOTH",
"119 626 OFFCURVE",
"122 615 OFFCURVE",
"122 584 CURVE SMOOTH",
"122 120 LINE SMOOTH",
"122 90 OFFCURVE",
"120 74 OFFCURVE",
"91 69 CURVE SMOOTH",
"43 60 LINE",
"43 0 LINE"
);
}
);
};
hints = (
{
place = "{132, 129}";
},
{
place = "{132, 143}";
},
{
horizontal = 1;
place = "{0, 71}";
},
{
horizontal = 1;
place = "{321, 77}";
},
{
horizontal = 1;
place = "{630, 70}";
}
);
layerId = "D537FF15-C70F-4B12-AACC-84E5BB5FCF97";
paths = (
{
closed = 1;
nodes = (
"114 70 LINE",
"35 57 LINE",
"29 0 LINE",
"536 0 LINE",
"560 192 LINE",
"492 192 LINE",
"478 151 LINE SMOOTH",
"457 89 OFFCURVE",
"436 71 OFFCURVE",
"375 71 CURVE SMOOTH",
"250 71 LINE",
"261 321 LINE",
"479 321 LINE",
"484 398 LINE",
"264 398 LINE",
"274 630 LINE",
"383 630 LINE SMOOTH",
"446 630 OFFCURVE",
"461 609 OFFCURVE",
"479 551 CURVE SMOOTH",
"490 515 LINE",
"556 524 LINE",
"542 700 LINE",
"61 700 LINE",
"55 644 LINE",
"138 627 LINE"
);
}
);
width = 596;
}
);
leftKerningGroup = E;
rightKerningGroup = E;
unicode = 0045;
},
{
glyphname = F;
lastChange = "2016-09-25 07:29:43 +0000";
layers = (
{
background = {
paths = (
{
closed = 1;
nodes = (
"353 0 LINE",
"353 48 LINE",
"283 56 LINE SMOOTH",
"251 60 OFFCURVE",
"246 73 OFFCURVE",
"246 106 CURVE SMOOTH",
"246 305 LINE",
"333 305 LINE SMOOTH",
"413 305 OFFCURVE",
"411 290 OFFCURVE",
"426 200 CURVE",
"472 208 LINE",
"472 455 LINE",
"426 449 LINE",
"410 369 OFFCURVE",
"406 367 OFFCURVE",
"333 367 CURVE SMOOTH",
"246 367 LINE",
"246 646 LINE",
"350 646 LINE SMOOTH",
"449 646 OFFCURVE",
"473 619 OFFCURVE",
"516 503 CURVE",
"568 521 LINE",
"532 700 LINE",
"58 700 LINE",
"58 652 LINE",
"114 643 LINE SMOOTH",
"144 638 OFFCURVE",
"147 627 OFFCURVE",
"147 596 CURVE SMOOTH",
"147 108 LINE SMOOTH",
"147 78 OFFCURVE",
"145 62 OFFCURVE",
"116 57 CURVE SMOOTH",
"58 48 LINE",
"58 0 LINE"
);
}
);
};
hints = (
{
place = "{156, 79}";
},
{
place = "{156, 93}";
},
{
horizontal = 1;
place = "{320, 63}";
},
{
horizontal = 1;
place = "{643, 57}";
},
{
horizontal = 1;
place = "{0, 21}";
target = up;
type = BottomGhost;
}
);
layerId = UUID0;
paths = (
{
closed = 1;
nodes = (
"53 0 LINE",
"348 0 LINE",
"354 46 LINE",
"225 58 LINE",
"237 320 LINE",
"474 320 LINE",
"479 383 LINE",
"240 383 LINE",
"251 643 LINE",
"390 643 LINE SMOOTH",
"458 643 OFFCURVE",
"468 613 OFFCURVE",
"485 562 CURVE SMOOTH",
"498 523 LINE",
"552 533 LINE",
"538 700 LINE",
"84 700 LINE",
"78 654 LINE",
"164 637 LINE",
"141 59 LINE",
"59 46 LINE"
);
}
);
width = 561;
},
{
background = {
paths = (
{
closed = 1;
nodes = (
"372 0 LINE",
"372 60 LINE",
"308 69 LINE SMOOTH",
"276 74 OFFCURVE",
"271 81 OFFCURVE",
"271 119 CURVE SMOOTH",
"271 305 LINE",
"328 305 LINE SMOOTH",
"403 305 OFFCURVE",
"396 288 OFFCURVE",
"411 198 CURVE",
"467 208 LINE",
"467 460 LINE",
"411 453 LINE",
"396 371 OFFCURVE",
"391 370 OFFCURVE",
"318 370 CURVE SMOOTH",
"271 370 LINE",
"271 630 LINE",
"342 630 LINE SMOOTH",
"441 630 OFFCURVE",
"468 621 OFFCURVE",
"508 512 CURVE",
"576 532 LINE",
"538 700 LINE",
"44 700 LINE",
"44 640 LINE",
"90 631 LINE SMOOTH",
"120 626 OFFCURVE",
"123 615 OFFCURVE",
"123 584 CURVE SMOOTH",
"123 120 LINE SMOOTH",
"123 90 OFFCURVE",
"121 74 OFFCURVE",
"92 69 CURVE SMOOTH",
"44 60 LINE",
"44 0 LINE"
);
}
);
};
hints = (
{
place = "{131, 123}";
},
{
place = "{131, 136}";
},
{
horizontal = 1;
place = "{318, 76}";
},
{
horizontal = 1;
place = "{630, 70}";
},
{
horizontal = 1;
place = "{0, 21}";
target = up;
type = BottomGhost;
}
);
layerId = "D537FF15-C70F-4B12-AACC-84E5BB5FCF97";
paths = (
{
closed = 1;
nodes = (
"27 0 LINE",
"365 0 LINE",
"371 59 LINE",
"244 73 LINE",
"254 318 LINE",
"465 318 LINE",
"470 394 LINE",
"257 394 LINE",
"268 630 LINE",
"381 630 LINE SMOOTH",
"449 630 OFFCURVE",
"460 601 OFFCURVE",
"476 554 CURVE SMOOTH",
"489 515 LINE",
"553 525 LINE",
"539 700 LINE",
"58 700 LINE",
"52 644 LINE",
"138 627 LINE",
"115 69 LINE",
"33 56 LINE"
);
}
);
width = 561;
}
);
unicode = 0046;
},
{
glyphname = G;
lastChange = "2016-09-25 07:29:43 +0000";
layers = (
{
anchors = (
{
name = bottom;
position = "{354, -30}";
},
{
name = top;
position = "{376, 730}";
}
);
background = {
paths = (
{
closed = 1;
nodes = (
"469 -14 OFFCURVE",
"533 10 OFFCURVE",
"580 44 CURVE",
"606 -3 LINE",
"649 -3 LINE",
"649 226 LINE SMOOTH",
"649 256 OFFCURVE",
"651 272 OFFCURVE",
"679 277 CURVE SMOOTH",
"732 286 LINE",
"732 334 LINE",
"461 334 LINE",
"461 286 LINE",
"521 277 LINE SMOOTH",
"551 272 OFFCURVE",
"554 261 OFFCURVE",
"554 230 CURVE SMOOTH",
"554 120 LINE",
"524 80 OFFCURVE",
"466 52 OFFCURVE",
"392 52 CURVE SMOOTH",
"245 52 OFFCURVE",
"171 190 OFFCURVE",
"171 349 CURVE SMOOTH",
"171 537 OFFCURVE",
"242 651 OFFCURVE",
"388 651 CURVE SMOOTH",
"496 651 OFFCURVE",
"561 595 OFFCURVE",
"601 471 CURVE",
"656 483 LINE",
"610 716 LINE",
"561 716 LINE",
"551 653 LINE",
"523 681 OFFCURVE",
"471 714 OFFCURVE",
"382 714 CURVE SMOOTH",
"200 714 OFFCURVE",
"64 578 OFFCURVE",
"64 340 CURVE SMOOTH",
"64 164 OFFCURVE",
"160 -14 OFFCURVE",
"385 -14 CURVE SMOOTH"
);
}
);
};
hints = (
{
place = "{51, 94}";
},
{
place = "{498, 88}";
},
{
horizontal = 1;
place = "{-14, 65}";
},
{
horizontal = 1;
place = "{507, 208}";
},
{
horizontal = 1;
place = "{652, 63}";
}
);
layerId = UUID0;
paths = (
{
closed = 1;
nodes = (
"428 332 LINE",
"422 286 LINE",
"507 266 LINE",
"500 88 LINE",
"471 69 OFFCURVE",
"422 51 OFFCURVE",
"360 51 CURVE SMOOTH",
"221 51 OFFCURVE",
"150 176 OFFCURVE",
"150 333 CURVE SMOOTH",
"150 541 OFFCURVE",
"242 652 OFFCURVE",
"388 652 CURVE SMOOTH",
"460 652 OFFCURVE",
"532 626 OFFCURVE",
"505 571 CURVE SMOOTH",
"488 537 LINE",
"504 521 OFFCURVE",
"529 507 OFFCURVE",
"560 507 CURVE SMOOTH",
"589 507 OFFCURVE",
"615 528 OFFCURVE",
"615 566 CURVE SMOOTH",
"615 662 OFFCURVE",
"499 715 OFFCURVE",
"389 715 CURVE SMOOTH",
"208 715 OFFCURVE",
"56 588 OFFCURVE",
"56 325 CURVE SMOOTH",
"56 158 OFFCURVE",
"137 -14 OFFCURVE",
"356 -14 CURVE SMOOTH",
"442 -14 OFFCURVE",
"533 20 OFFCURVE",
"585 59 CURVE",
"597 332 LINE"
);
}
);
width = 629;
},
{
anchors = (
{
name = bottom;
position = "{373, -30}";
},
{
name = top;
position = "{386, 730}";
}
);
background = {
paths = (
{
closed = 1;
nodes = (
"465 -14 OFFCURVE",
"526 9 OFFCURVE",
"564 39 CURVE",
"583 -3 LINE",
"657 -3 LINE",
"657 218 LINE SMOOTH",
"657 248 OFFCURVE",
"659 267 OFFCURVE",
"687 272 CURVE SMOOTH",
"730 281 LINE",
"730 341 LINE",
"443 341 LINE",
"443 281 LINE",
"493 272 LINE SMOOTH",
"523 267 OFFCURVE",
"526 253 OFFCURVE",
"526 222 CURVE SMOOTH",
"526 114 LINE",
"502 93 OFFCURVE",
"469 72 OFFCURVE",
"406 72 CURVE SMOOTH",
"299 72 OFFCURVE",
"207 157 OFFCURVE",
"207 348 CURVE SMOOTH",
"207 484 OFFCURVE",
"244 628 OFFCURVE",
"398 628 CURVE SMOOTH",
"498 628 OFFCURVE",
"558 575 OFFCURVE",
"596 464 CURVE",
"673 481 LINE",
"624 714 LINE",
"563 714 LINE",
"553 651 LINE",
"525 679 OFFCURVE",
"465 714 OFFCURVE",
"379 714 CURVE SMOOTH",
"176 714 OFFCURVE",
"51 566 OFFCURVE",
"51 334 CURVE SMOOTH",
"51 158 OFFCURVE",
"142 -14 OFFCURVE",
"390 -14 CURVE SMOOTH"
);
}
);
};
hints = (
{
place = "{52, 141}";
},
{
place = "{493, 134}";
},
{
horizontal = 1;
place = "{-14, 85}";
},
{
horizontal = 1;
place = "{642, 73}";
}
);
layerId = "D537FF15-C70F-4B12-AACC-84E5BB5FCF97";
paths = (
{
closed = 1;
nodes = (
"422 335 LINE",
"415 274 LINE",
"502 258 LINE",
"495 104 LINE",
"466 85 OFFCURVE",
"436 71 OFFCURVE",
"378 71 CURVE SMOOTH",
"244 71 OFFCURVE",
"198 192 OFFCURVE",
"198 333 CURVE SMOOTH",
"198 541 OFFCURVE",
"272 642 OFFCURVE",
"410 642 CURVE SMOOTH",
"474 642 OFFCURVE",
"544 625 OFFCURVE",
"514 561 CURVE SMOOTH",
"494 518 LINE",
"512 498 OFFCURVE",
"544 481 OFFCURVE",
"578 481 CURVE SMOOTH",
"610 481 OFFCURVE",
"647 507 OFFCURVE",
"647 555 CURVE SMOOTH",
"647 675 OFFCURVE",
"513 715 OFFCURVE",
"403 715 CURVE SMOOTH",
"201 715 OFFCURVE",
"57 588 OFFCURVE",
"57 325 CURVE SMOOTH",
"57 158 OFFCURVE",
"128 -14 OFFCURVE",
"373 -14 CURVE SMOOTH",
"471 -14 OFFCURVE",
"577 23 OFFCURVE",
"626 60 CURVE",
"638 335 LINE"
);
}
);
width = 674;
}
);
leftKerningGroup = O;
rightKerningGroup = G;
unicode = 0047;
},
{
glyphname = H;
lastChange = "2016-09-25 07:29:43 +0000";
layers = (
{
anchors = (
{
name = bottom;
position = "{377, -30}";
},
{
name = top;
position = "{407, 730}";
}
);
background = {
paths = (
{
closed = 1;
nodes = (
"334 0 LINE",
"334 48 LINE",
"278 57 LINE SMOOTH",
"249 62 OFFCURVE",
"246 73 OFFCURVE",
"246 104 CURVE SMOOTH",
"246 328 LINE",
"586 328 LINE",
"586 108 LINE SMOOTH",
"586 78 OFFCURVE",
"584 62 OFFCURVE",
"555 57 CURVE SMOOTH",
"498 48 LINE",
"498 0 LINE",
"773 0 LINE",
"773 48 LINE",
"718 57 LINE SMOOTH",
"688 62 OFFCURVE",
"685 73 OFFCURVE",
"685 104 CURVE SMOOTH",
"685 592 LINE SMOOTH",
"685 622 OFFCURVE",
"687 638 OFFCURVE",
"716 643 CURVE SMOOTH",
"773 652 LINE",
"773 700 LINE",
"498 700 LINE",
"498 652 LINE",
"553 643 LINE SMOOTH",
"583 638 OFFCURVE",
"586 627 OFFCURVE",
"586 596 CURVE SMOOTH",
"586 391 LINE",
"246 391 LINE",
"246 592 LINE SMOOTH",
"246 622 OFFCURVE",
"248 638 OFFCURVE",
"276 643 CURVE SMOOTH",
"334 652 LINE",
"334 700 LINE",
"58 700 LINE",
"58 652 LINE",
"114 643 LINE SMOOTH",
"144 638 OFFCURVE",
"147 627 OFFCURVE",
"147 596 CURVE SMOOTH",
"147 108 LINE SMOOTH",
"147 78 OFFCURVE",
"145 62 OFFCURVE",
"116 57 CURVE SMOOTH",
"58 48 LINE",
"58 0 LINE"
);
}
);
};
hints = (
{
place = "{156, 88}";
},
{
place = "{216, 28}";
},
{
place = "{558, 55}";
},
{
place = "{558, 87}";
},
{
horizontal = 1;
place = "{328, 63}";
},
{
horizontal = 1;
place = "{0, 21}";
target = up;
type = BottomGhost;
},
{
horizontal = 1;
place = "{700, -20}";
target = down;
type = TopGhost;
}
);
layerId = UUID0;
paths = (
{
closed = 1;
nodes = (
"542 59 LINE",
"460 46 LINE",
"454 0 LINE",
"719 0 LINE",
"725 46 LINE",
"630 59 LINE",
"652 637 LINE",
"737 654 LINE",
"743 700 LINE",
"486 700 LINE",
"480 654 LINE",
"566 637 LINE",
"555 391 LINE",
"241 391 LINE",
"251 637 LINE",
"336 654 LINE",
"342 700 LINE",
"84 700 LINE",
"78 654 LINE",
"164 637 LINE",
"141 59 LINE",
"59 46 LINE",
"53 0 LINE",
"318 0 LINE",
"324 46 LINE",
"229 59 LINE",
"239 328 LINE",
"553 328 LINE"
);
}
);
width = 769;
},
{
anchors = (
{
name = bottom;
position = "{378, -30}";
},
{
name = top;
position = "{403, 730}";
}
);
background = {
paths = (
{
closed = 1;
nodes = (
"360 0 LINE",
"360 60 LINE",
"308 70 LINE SMOOTH",
"279 75 OFFCURVE",
"276 83 OFFCURVE",
"276 117 CURVE SMOOTH",
"276 319 LINE",
"546 319 LINE",
"546 117 LINE SMOOTH",
"546 83 OFFCURVE",
"543 75 OFFCURVE",
"514 70 CURVE SMOOTH",
"462 60 LINE",
"462 0 LINE",
"778 0 LINE",
"778 60 LINE",
"731 69 LINE SMOOTH",
"696 75 OFFCURVE",
"694 80 OFFCURVE",
"694 121 CURVE SMOOTH",
"694 579 LINE SMOOTH",
"694 620 OFFCURVE",
"696 625 OFFCURVE",
"731 631 CURVE SMOOTH",
"778 640 LINE",
"778 700 LINE",
"462 700 LINE",
"462 640 LINE",
"514 630 LINE SMOOTH",
"543 625 OFFCURVE",
"546 617 OFFCURVE",
"546 580 CURVE SMOOTH",
"546 399 LINE",
"276 399 LINE",
"276 580 LINE",
"276 617 OFFCURVE",
"279 625 OFFCURVE",
"308 630 CURVE SMOOTH",
"360 640 LINE",
"360 700 LINE",
"44 700 LINE",
"44 640 LINE",
"91 631 LINE SMOOTH",
"126 625 OFFCURVE",
"128 620 OFFCURVE",
"128 579 CURVE",
"128 121 LINE SMOOTH",
"128 80 OFFCURVE",
"126 75 OFFCURVE",
"91 69 CURVE SMOOTH",
"44 60 LINE",
"44 0 LINE"
);
}
);
};
hints = (
{
place = "{131, 137}";
},
{
place = "{216, 52}";
},
{
place = "{529, 84}";
},
{
place = "{529, 136}";
},
{
horizontal = 1;
place = "{321, 75}";
},
{
horizontal = 1;
place = "{0, 21}";
target = up;
type = BottomGhost;
},
{
horizontal = 1;
place = "{700, -20}";
target = down;
type = TopGhost;
}
);
layerId = "D537FF15-C70F-4B12-AACC-84E5BB5FCF97";
paths = (
{
closed = 1;
nodes = (
"512 69 LINE",
"433 56 LINE",
"427 0 LINE",
"735 0 LINE",
"741 57 LINE",
"649 70 LINE",
"671 628 LINE",
"753 644 LINE",
"759 700 LINE",
"459 700 LINE",
"453 645 LINE",
"536 628 LINE",
"526 396 LINE",
"265 396 LINE",
"274 628 LINE",
"356 644 LINE",
"362 700 LINE",
"61 700 LINE",
"55 646 LINE",
"138 629 LINE",
"115 68 LINE",
"36 56 LINE",
"30 0 LINE",
"338 0 LINE",
"344 57 LINE",
"252 70 LINE",
"262 321 LINE",
"523 321 LINE"
);
}
);
width = 769;
}
);
leftKerningGroup = H;
rightKerningGroup = H;
unicode = 0048;
},
{
glyphname = I;
lastChange = "2016-09-25 07:29:42 +0000";
layers = (
{
anchors = (
{
name = bottom;
position = "{181, -30}";
},
{
name = top;
position = "{207, 730}";
}
);
background = {
paths = (
{
closed = 1;
nodes = (
"337 0 LINE",
"337 48 LINE",
"276 57 LINE SMOOTH",
"247 62 OFFCURVE",
"244 73 OFFCURVE",
"244 104 CURVE SMOOTH",
"244 592 LINE SMOOTH",
"244 622 OFFCURVE",
"246 638 OFFCURVE",
"274 643 CURVE SMOOTH",
"337 652 LINE",
"337 700 LINE",
"52 700 LINE",
"52 652 LINE",
"112 643 LINE SMOOTH",
"142 638 OFFCURVE",
"145 627 OFFCURVE",
"145 596 CURVE SMOOTH",
"145 108 LINE",
"145 78 OFFCURVE",
"143 62 OFFCURVE",
"114 57 CURVE SMOOTH",
"52 48 LINE",
"52 0 LINE"
);
}
);
};
hints = (
{
place = "{156, 87}";
},
{
horizontal = 1;
place = "{0, 21}";
target = up;
type = BottomGhost;
},
{
horizontal = 1;
place = "{700, -20}";
target = down;
type = TopGhost;
}
);
layerId = UUID0;
paths = (
{
closed = 1;
nodes = (
"138 59 LINE",
"56 46 LINE",
"50 0 LINE",
"315 0 LINE",
"321 46 LINE",
"226 59 LINE",
"248 637 LINE",
"333 654 LINE",
"339 700 LINE",
"83 700 LINE",
"77 654 LINE",
"163 637 LINE"
);
}
);
width = 367;
},
{
anchors = (
{
name = bottom;
position = "{178, -30}";
},
{
name = top;
position = "{208, 730}";
}
);
background = {
paths = (
{
closed = 1;
nodes = (
"364 0 LINE",
"364 60 LINE",
"307 70 LINE SMOOTH",
"278 75 OFFCURVE",
"275 83 OFFCURVE",
"275 117 CURVE SMOOTH",
"275 580 LINE",
"275 617 OFFCURVE",
"278 625 OFFCURVE",
"307 630 CURVE SMOOTH",
"364 640 LINE",
"364 700 LINE",
"39 700 LINE",
"39 640 LINE",
"90 631 LINE SMOOTH",
"125 625 OFFCURVE",
"127 620 OFFCURVE",
"127 579 CURVE",
"127 121 LINE SMOOTH",
"127 80 OFFCURVE",
"125 75 OFFCURVE",
"90 69 CURVE SMOOTH",
"39 60 LINE",
"39 0 LINE"
);
}
);
};
hints = (
{
place = "{135, 136}";
},
{
horizontal = 1;
place = "{0, 21}";
target = up;
type = BottomGhost;
},
{
horizontal = 1;
place = "{700, -20}";
target = down;
type = TopGhost;
}
);
layerId = "D537FF15-C70F-4B12-AACC-84E5BB5FCF97";
paths = (
{
closed = 1;
nodes = (
"117 69 LINE",
"38 57 LINE",
"32 0 LINE",
"340 0 LINE",
"346 57 LINE",
"254 70 LINE",
"276 628 LINE",
"358 644 LINE",
"364 700 LINE",
"64 700 LINE",
"58 644 LINE",
"141 627 LINE"
);
}
);
width = 376;
}
);
leftKerningGroup = H;
rightKerningGroup = H;
unicode = 0049;
},
{
glyphname = J;
lastChange = "2016-09-25 07:29:43 +0000";
layers = (
{
anchors = (
{
name = top;
position = "{208, 730}";
}
);
background = {
paths = (
{
closed = 1;
nodes = (
"403 -14 OFFCURVE",
"439 120 OFFCURVE",
"439 224 CURVE SMOOTH",
"439 592 LINE",
"439 622 OFFCURVE",
"441 639 OFFCURVE",
"469 643 CURVE SMOOTH",
"532 652 LINE",
"532 700 LINE",
"237 700 LINE",
"237 651 LINE",
"307 641 LINE SMOOTH",
"337 637 OFFCURVE",
"340 625 OFFCURVE",
"340 594 CURVE",
"340 201 LINE SMOOTH",
"340 101 OFFCURVE",
"309 50 OFFCURVE",
"235 50 CURVE SMOOTH",
"196 50 OFFCURVE",
"168 65 OFFCURVE",
"158 74 CURVE",
"182 114 OFFCURVE",
"188 128 OFFCURVE",
"188 145 CURVE SMOOTH",
"188 170 OFFCURVE",
"169 190 OFFCURVE",
"125 190 CURVE SMOOTH",
"79 190 OFFCURVE",
"50 152 OFFCURVE",
"50 108 CURVE SMOOTH",
"50 28 OFFCURVE",
"137 -14 OFFCURVE",
"229 -14 CURVE SMOOTH"
);
}
);
};
hints = (
{
place = "{144, 99}";
},
{
place = "{156, 87}";
},
{
horizontal = 1;
place = "{-229, 21}";
target = up;
type = BottomGhost;
},
{
horizontal = 1;
place = "{700, -20}";
target = down;
type = TopGhost;
}
);
layerId = UUID0;
paths = (
{
closed = 1;
nodes = (
"136 59 LINE SMOOTH",
"132 -32 OFFCURVE",
"119 -90 OFFCURVE",
"30 -190 CURVE",
"57 -229 LINE",
"179 -132 OFFCURVE",
"219 -65 OFFCURVE",
"224 59 CURVE SMOOTH",
"246 637 LINE",
"331 654 LINE",
"337 700 LINE",
"65 700 LINE",
"59 654 LINE",
"161 637 LINE"
);
}
);
width = 367;
},
{
anchors = (
{
name = top;
position = "{202, 730}";
}
);
background = {
paths = (
{
closed = 1;
nodes = (
"394 -14 OFFCURVE",
"459 90 OFFCURVE",
"459 194 CURVE SMOOTH",
"459 580 LINE SMOOTH",
"459 610 OFFCURVE",
"459 622 OFFCURVE",
"487 629 CURVE SMOOTH",
"533 640 LINE",
"533 700 LINE",
"215 700 LINE",
"215 641 LINE",
"278 631 LINE SMOOTH",
"307 626 OFFCURVE",
"311 615 OFFCURVE",
"311 584 CURVE SMOOTH",
"311 186 LINE SMOOTH",
"311 106 OFFCURVE",
"300 55 OFFCURVE",
"226 55 CURVE SMOOTH",
"192 55 OFFCURVE",
"163 69 OFFCURVE",
"153 79 CURVE",
"179 122 OFFCURVE",
"185 137 OFFCURVE",
"185 156 CURVE SMOOTH",
"185 183 OFFCURVE",
"164 209 OFFCURVE",
"117 209 CURVE SMOOTH",
"67 209 OFFCURVE",
"36 168 OFFCURVE",
"36 121 CURVE SMOOTH",
"36 34 OFFCURVE",
"121 -14 OFFCURVE",
"227 -14 CURVE SMOOTH"
);
}
);
};
hints = (
{
place = "{133, 134}";
},
{
horizontal = 1;
place = "{-235, 21}";
target = up;
type = BottomGhost;
},
{
horizontal = 1;
place = "{700, -20}";
target = down;
type = TopGhost;
}
);
layerId = "D537FF15-C70F-4B12-AACC-84E5BB5FCF97";
paths = (
{
closed = 1;
nodes = (
"119 81 LINE SMOOTH",
"114 -20 OFFCURVE",
"101 -87 OFFCURVE",
"17 -185 CURVE",
"61 -235 LINE",
"183 -138 OFFCURVE",
"247 -65 OFFCURVE",
"252 75 CURVE SMOOTH",
"274 626 LINE",
"356 643 LINE",
"362 700 LINE",
"47 700 LINE",
"41 643 LINE",
"140 625 LINE"
);
}
);
width = 367;
}
);
leftKerningGroup = J;
rightKerningGroup = J;
unicode = 004A;
},
{
glyphname = K;
lastChange = "2016-09-25 07:29:43 +0000";
layers = (
{
anchors = (
{
name = bottom;
position = "{343, -30}";
},
{
name = top;
position = "{388, 730}";
}
);
background = {
paths = (
{
closed = 1;
nodes = (
"667 -14 OFFCURVE",
"706 2 OFFCURVE",
"729 26 CURVE",
"719 62 LINE",
"701 56 OFFCURVE",
"687 53 OFFCURVE",
"674 53 CURVE SMOOTH",
"623 53 OFFCURVE",
"598 66 OFFCURVE",
"552 136 CURVE SMOOTH",
"377 401 LINE",
"571 596 LINE SMOOTH",
"601 626 OFFCURVE",
"614 637 OFFCURVE",
"639 642 CURVE SMOOTH",
"677 650 LINE",
"677 700 LINE",
"440 700 LINE",
"430 651 LINE",
"478 643 LINE SMOOTH",
"503 639 OFFCURVE",
"515 617 OFFCURVE",
"491 593 CURVE SMOOTH",
"248 350 LINE",
"248 592 LINE SMOOTH",
"248 622 OFFCURVE",
"250 639 OFFCURVE",
"278 643 CURVE SMOOTH",
"341 652 LINE",
"341 700 LINE",
"56 700 LINE",
"56 652 LINE",
"116 643 LINE SMOOTH",
"146 638 OFFCURVE",
"149 627 OFFCURVE",
"149 596 CURVE SMOOTH",
"149 108 LINE SMOOTH",
"149 78 OFFCURVE",
"147 62 OFFCURVE",
"118 57 CURVE SMOOTH",
"56 48 LINE",
"56 0 LINE",
"341 0 LINE",
"341 48 LINE",
"280 57 LINE SMOOTH",
"251 62 OFFCURVE",
"248 73 OFFCURVE",
"248 104 CURVE SMOOTH",
"248 275 LINE",
"308 336 LINE",
"465 85 LINE SMOOTH",
"510 13 OFFCURVE",
"554 -14 OFFCURVE",
"626 -14 CURVE SMOOTH"
);
}
);
};
hints = (
{
place = "{156, 87}";
},
{
horizontal = 1;
place = "{-14, 59}";
},
{
horizontal = 1;
place = "{700, -20}";
target = down;
type = TopGhost;
},
{
horizontal = 1;
place = "{0, 21}";
target = up;
type = BottomGhost;
}
);
layerId = UUID0;
paths = (
{
closed = 1;
nodes = (
"266 373 LINE",
"520 639 LINE",
"438 652 LINE",
"447 700 LINE",
"685 700 LINE",
"678 653 LINE",
"600 638 LINE",
"351 388 LINE",
"351 382 LINE",
"440 345 OFFCURVE",
"465 300 OFFCURVE",
"496 208 CURVE SMOOTH",
"533 97 OFFCURVE",
"546 45 OFFCURVE",
"602 45 CURVE SMOOTH",
"623 45 OFFCURVE",
"643 54 OFFCURVE",
"661 63 CURVE",
"681 28 LINE",
"654 2 OFFCURVE",
"613 -14 OFFCURVE",
"575 -14 CURVE SMOOTH",
"471 -14 OFFCURVE",
"448 53 OFFCURVE",
"406 191 CURVE SMOOTH",
"380 276 OFFCURVE",
"350 332 OFFCURVE",
"264 342 CURVE"
);
},
{
closed = 1;
nodes = (
"138 59 LINE",
"56 46 LINE",
"50 0 LINE",
"315 0 LINE",
"321 46 LINE",
"226 59 LINE",
"248 637 LINE",
"333 654 LINE",
"339 700 LINE",
"83 700 LINE",
"77 654 LINE",
"163 637 LINE"
);
}
);
width = 696;
},
{
anchors = (
{
name = bottom;
position = "{356, -10}";
},
{
name = top;
position = "{390, 730}";
}
);
background = {
paths = (
{
closed = 1;
nodes = (
"719 -14 OFFCURVE",
"761 8 OFFCURVE",
"783 28 CURVE",
"770 85 LINE",
"752 79 OFFCURVE",
"737 77 OFFCURVE",
"730 77 CURVE SMOOTH",
"698 77 OFFCURVE",
"666 85 OFFCURVE",
"621 155 CURVE SMOOTH",
"459 409 LINE",
"631 586 LINE SMOOTH",
"661 617 OFFCURVE",
"670 626 OFFCURVE",
"695 631 CURVE SMOOTH",
"728 638 LINE",
"728 700 LINE",
"475 700 LINE",
"465 639 LINE",
"513 632 LINE SMOOTH",
"535 629 OFFCURVE",
"545 611 OFFCURVE",
"524 585 CURVE SMOOTH",
"279 333 LINE",
"279 579 LINE SMOOTH",
"279 609 OFFCURVE",
"279 624 OFFCURVE",
"307 629 CURVE SMOOTH",
"368 640 LINE",
"368 700 LINE",
"43 700 LINE",
"43 640 LINE",
"100 630 LINE SMOOTH",
"130 625 OFFCURVE",
"131 614 OFFCURVE",
"131 583 CURVE SMOOTH",
"131 116 LINE SMOOTH",
"131 86 OFFCURVE",
"129 75 OFFCURVE",
"100 70 CURVE SMOOTH",
"43 60 LINE",
"43 0 LINE",
"362 0 LINE",
"362 60 LINE",
"305 70 LINE SMOOTH",
"276 75 OFFCURVE",
"279 86 OFFCURVE",
"279 117 CURVE SMOOTH",
"279 227 LINE",
"360 309 LINE",
"502 80 LINE SMOOTH",
"550 2 OFFCURVE",
"610 -14 OFFCURVE",
"662 -14 CURVE SMOOTH"
);
}
);
};
hints = (
{
place = "{131, 136}";
},
{
horizontal = 1;
place = "{-14, 78}";
},
{
horizontal = 1;
place = "{700, -20}";
target = down;
type = TopGhost;
},
{
horizontal = 1;
place = "{0, 21}";
target = up;
type = BottomGhost;
}
);
layerId = "D537FF15-C70F-4B12-AACC-84E5BB5FCF97";
paths = (
{
closed = 1;
nodes = (
"288 387 LINE",
"530 632 LINE",
"460 642 LINE",
"469 700 LINE",
"707 700 LINE",
"700 643 LINE",
"626 628 LINE",
"380 386 LINE",
"380 380 LINE",
"476 351 OFFCURVE",
"509 312 OFFCURVE",
"540 220 CURVE SMOOTH",
"577 109 OFFCURVE",
"592 64 OFFCURVE",
"628 64 CURVE SMOOTH",
"648 64 OFFCURVE",
"667 72 OFFCURVE",
"685 82 CURVE",
"706 28 LINE",
"679 2 OFFCURVE",
"624 -14 OFFCURVE",
"587 -14 CURVE SMOOTH",
"476 -14 OFFCURVE",
"447 46 OFFCURVE",
"405 191 CURVE SMOOTH",
"380 276 OFFCURVE",
"363 328 OFFCURVE",
"286 339 CURVE"
);
},
{
closed = 1;
nodes = (
"113 70 LINE",
"34 57 LINE",
"28 0 LINE",
"335 0 LINE",
"341 57 LINE",
"250 70 LINE",
"272 627 LINE",
"353 644 LINE",
"359 700 LINE",
"60 700 LINE",
"54 644 LINE",
"137 627 LINE"
);
}
);
width = 709;
}
);
leftKerningGroup = K;
rightKerningGroup = K;
unicode = 004B;
},
{
glyphname = L;
lastChange = "2016-09-25 07:29:43 +0000";
layers = (
{
anchors = (
{
name = bottom;
position = "{309, -30}";
},
{
name = top;
position = "{215, 730}";
}
);
background = {
paths = (
{
closed = 1;
nodes = (
"547 0 LINE",
"572 214 LINE",
"517 214 LINE",
"480 93 OFFCURVE",
"456 55 OFFCURVE",
"358 55 CURVE SMOOTH",
"245 55 LINE",
"245 596 LINE SMOOTH",
"245 627 OFFCURVE",
"248 638 OFFCURVE",
"277 643 CURVE SMOOTH",
"343 652 LINE",
"343 700 LINE",
"57 700 LINE",
"57 652 LINE",
"113 643 LINE SMOOTH",
"143 638 OFFCURVE",
"146 627 OFFCURVE",
"146 596 CURVE SMOOTH",
"146 108 LINE SMOOTH",
"146 78 OFFCURVE",
"144 62 OFFCURVE",
"115 57 CURVE SMOOTH",
"57 48 LINE",
"57 0 LINE"
);
}
);
};
hints = (
{
place = "{157, 86}";
},
{
horizontal = 1;
place = "{0, 58}";
},
{
horizontal = 1;
place = "{700, -20}";
target = down;
type = TopGhost;
}
);
layerId = UUID0;
paths = (
{
closed = 1;
nodes = (
"52 0 LINE",
"524 0 LINE",
"550 194 LINE",
"495 194 LINE",
"479 143 LINE SMOOTH",
"458 78 OFFCURVE",
"437 58 OFFCURVE",
"376 58 CURVE SMOOTH",
"226 58 LINE",
"250 637 LINE",
"355 654 LINE",
"361 700 LINE",
"84 700 LINE",
"78 654 LINE",
"164 637 LINE",
"140 59 LINE",
"58 46 LINE"
);
}
);
width = 590;
},
{
anchors = (
{
name = bottom;
position = "{306, -31}";
},
{
name = top;
position = "{207, 730}";
}
);
background = {
paths = (
{
closed = 1;
nodes = (
"565 0 LINE",
"593 227 LINE",
"517 227 LINE",
"480 106 OFFCURVE",
"447 70 OFFCURVE",
"362 70 CURVE SMOOTH",
"275 70 LINE",
"275 586 LINE SMOOTH",
"275 617 OFFCURVE",
"279 625 OFFCURVE",
"308 630 CURVE SMOOTH",
"373 639 LINE",
"373 700 LINE",
"43 700 LINE",
"43 640 LINE",
"95 630 LINE SMOOTH",
"127 624 OFFCURVE",
"127 614 OFFCURVE",
"127 583 CURVE SMOOTH",
"127 121 LINE SMOOTH",
"127 84 OFFCURVE",
"125 75 OFFCURVE",
"96 70 CURVE SMOOTH",
"43 60 LINE",
"43 0 LINE"
);
}
);
};
hints = (
{
place = "{132, 136}";
},
{
horizontal = 1;
place = "{0, 71}";
},
{
horizontal = 1;
place = "{700, -20}";
target = down;
type = TopGhost;
}
);
layerId = "D537FF15-C70F-4B12-AACC-84E5BB5FCF97";
paths = (
{
closed = 1;
nodes = (
"29 0 LINE",
"541 0 LINE",
"567 202 LINE",
"499 202 LINE",
"483 151 LINE SMOOTH",
"464 90 OFFCURVE",
"439 71 OFFCURVE",
"378 71 CURVE SMOOTH",
"250 71 LINE",
"274 628 LINE",
"376 646 LINE",
"382 700 LINE",
"61 700 LINE",
"55 646 LINE",
"138 629 LINE",
"114 66 LINE",
"35 54 LINE"
);
}
);
width = 594;
}
);
leftKerningGroup = L;
rightKerningGroup = L;
unicode = 004C;
},
{
glyphname = M;
lastChange = "2016-09-25 07:29:43 +0000";
layers = (
{
anchors = (
{
name = bottom;
position = "{451, -30}";
}
);
background = {
paths = (
{
closed = 1;
nodes = (
"296 0 LINE",
"296 48 LINE",
"240 57 LINE SMOOTH",
"211 62 OFFCURVE",
"208 73 OFFCURVE",
"208 104 CURVE SMOOTH",
"238 615 LINE",
"238 623 LINE",
"418 113 LINE",
"518 113 LINE",
"705 622 LINE",
"705 614 LINE",
"735 108 LINE SMOOTH",
"735 78 OFFCURVE",
"733 62 OFFCURVE",
"704 57 CURVE SMOOTH",
"642 48 LINE",
"642 0 LINE",
"927 0 LINE",
"927 48 LINE",
"866 57 LINE SMOOTH",
"837 62 OFFCURVE",
"834 73 OFFCURVE",
"834 104 CURVE SMOOTH",
"804 592 LINE SMOOTH",
"804 622 OFFCURVE",
"806 639 OFFCURVE",
"834 643 CURVE SMOOTH",
"897 652 LINE",
"897 700 LINE",
"666 700 LINE",
"487 203 LINE",
"483 193 LINE",
"312 700 LINE",
"80 700 LINE",
"80 652 LINE",
"136 643 LINE SMOOTH",
"165 638 OFFCURVE",
"168 627 OFFCURVE",
"168 596 CURVE SMOOTH",
"138 108 LINE SMOOTH",
"136 78 OFFCURVE",
"135 61 OFFCURVE",
"107 57 CURVE SMOOTH",
"50 48 LINE",
"50 0 LINE"
);
}
);
};
hints = (
{
place = "{151, 65}";
},
{
place = "{725, 87}";
},
{
horizontal = 1;
place = "{0, 21}";
target = up;
type = BottomGhost;
},
{
horizontal = 1;
place = "{700, -20}";
target = down;
type = TopGhost;
},
{
horizontal = 1;
place = "{-11, 21}";
target = up;
type = BottomGhost;
}
);
layerId = UUID0;
paths = (
{
closed = 1;
nodes = (
"721 59 LINE",
"639 46 LINE",
"633 0 LINE",
"898 0 LINE",
"904 46 LINE",
"809 59 LINE",
"789 637 LINE",
"868 652 LINE",
"874 700 LINE",
"667 700 LINE",
"466 86 LINE",
"290 700 LINE",
"79 700 LINE",
"73 654 LINE",
"158 637 LINE",
"118 60 LINE",
"35 46 LINE",
"29 0 LINE",
"267 0 LINE",
"273 46 LINE",
"184 60 LINE",
"222 612 LINE",
"406 -11 LINE",
"503 6 LINE",
"704 622 LINE"
);
}
);
width = 932;
},
{
anchors = (
{
name = bottom;
position = "{446, -30}";
}
);
background = {
paths = (
{
closed = 1;
nodes = (
"287 0 LINE",
"287 60 LINE",
"233 70 LINE SMOOTH",
"204 75 OFFCURVE",
"201 87 OFFCURVE",
"203 118 CURVE SMOOTH",
"226 549 LINE",
"230 549 LINE",
"380 113 LINE",
"493 113 LINE",
"656 556 LINE",
"659 556 LINE",
"682 123 LINE SMOOTH",
"684 87 OFFCURVE",
"682 77 OFFCURVE",
"655 71 CURVE SMOOTH",
"598 60 LINE",
"598 0 LINE",
"917 0 LINE",
"917 60 LINE",
"865 70 LINE SMOOTH",
"836 75 OFFCURVE",
"835 86 OFFCURVE",
"833 117 CURVE SMOOTH",
"804 578 LINE SMOOTH",
"802 608 OFFCURVE",
"805 623 OFFCURVE",
"833 629 CURVE SMOOTH",
"888 640 LINE",
"888 700 LINE",
"629 700 LINE",
"474 273 LINE",
"471 273 LINE",
"331 700 LINE",
"55 700 LINE",
"55 640 LINE",
"111 629 LINE SMOOTH",
"140 624 OFFCURVE",
"145 613 OFFCURVE",
"143 582 CURVE SMOOTH",
"113 113 LINE SMOOTH",
"111 83 OFFCURVE",
"110 75 OFFCURVE",
"82 70 CURVE SMOOTH",
"29 60 LINE",
"29 0 LINE"
);
}
);
};
hints = (
{
place = "{130, 79}";
},
{
place = "{723, 124}";
},
{
horizontal = 1;
place = "{0, 21}";
target = up;
type = BottomGhost;
},
{
horizontal = 1;
place = "{700, -20}";
target = down;
type = TopGhost;
},
{
horizontal = 1;
place = "{-11, 21}";
target = up;
type = BottomGhost;
}
);
layerId = "D537FF15-C70F-4B12-AACC-84E5BB5FCF97";
paths = (
{
closed = 1;
nodes = (
"719 69 LINE",
"637 56 LINE",
"631 0 LINE",
"926 0 LINE",
"932 56 LINE",
"844 69 LINE",
"824 630 LINE",
"896 644 LINE",
"902 700 LINE",
"645 700 LINE",
"473 140 LINE",
"318 700 LINE",
"59 700 LINE",
"53 646 LINE",
"137 629 LINE",
"97 70 LINE",
"15 56 LINE",
"9 0 LINE",
"260 0 LINE",
"266 56 LINE",
"177 70 LINE",
"215 602 LINE",
"389 -11 LINE",
"515 6 LINE",
"702 614 LINE"
);
}
);
width = 947;
}
);
leftKerningGroup = M;
rightKerningGroup = M;
unicode = 004D;
},
{
glyphname = N;
lastChange = "2016-09-25 07:29:43 +0000";
layers = (
{
anchors = (
{
name = bottom;
position = "{364, -30}";
},
{
name = top;
position = "{395, 730}";
}
);
background = {
paths = (
{
closed = 1;
nodes = (
"298 0 LINE",
"298 48 LINE",
"242 57 LINE",
"213 62 OFFCURVE",
"210 73 OFFCURVE",
"210 104 CURVE",
"210 601 LINE",
"210 609 LINE",
"572 0 LINE",
"675 0 LINE",
"675 592 LINE",
"675 622 OFFCURVE",
"677 638 OFFCURVE",
"706 643 CURVE",
"763 652 LINE",
"763 700 LINE",
"518 700 LINE",
"518 652 LINE",
"573 643 LINE",
"603 638 OFFCURVE",
"606 627 OFFCURVE",
"606 596 CURVE",
"606 137 LINE",
"606 129 LINE",
"274 700 LINE",
"52 700 LINE",
"52 652 LINE",
"108 643 LINE",
"137 638 OFFCURVE",
"140 627 OFFCURVE",
"140 596 CURVE",
"140 108 LINE",
"140 78 OFFCURVE",
"138 62 OFFCURVE",
"110 57 CURVE",
"52 48 LINE",
"52 0 LINE"
);
}
);
};
hints = (
{
place = "{156, 66}";
},
{
place = "{577, 64}";
},
{
horizontal = 1;
place = "{0, 59}";
},
{
horizontal = 1;
place = "{637, 63}";
},
{
horizontal = 1;
place = "{-11, 21}";
target = up;
type = BottomGhost;
}
);
layerId = UUID0;
paths = (
{
closed = 1;
nodes = (
"281 700 LINE",
"84 700 LINE",
"78 652 LINE",
"157 641 LINE",
"133 59 LINE",
"52 46 LINE",
"46 0 LINE",
"289 0 LINE",
"295 46 LINE",
"201 59 LINE",
"221 619 LINE",
"525 -11 LINE",
"617 0 LINE",
"642 637 LINE",
"727 654 LINE",
"733 700 LINE",
"496 700 LINE",
"490 654 LINE",
"575 637 LINE",
"557 119 LINE"
);
}
);
width = 756;
},
{
anchors = (
{
name = bottom;
position = "{348, -30}";
},
{
name = top;
position = "{396, 730}";
}
);
background = {
paths = (
{
closed = 1;
nodes = (
"296 0 LINE",
"296 60 LINE",
"244 70 LINE SMOOTH",
"215 76 OFFCURVE",
"212 85 OFFCURVE",
"212 116 CURVE SMOOTH",
"212 529 LINE",
"216 529 LINE",
"533 0 LINE",
"686 0 LINE",
"686 580 LINE",
"686 613 OFFCURVE",
"687 625 OFFCURVE",
"716 630 CURVE SMOOTH",
"770 640 LINE",
"770 700 LINE",
"512 700 LINE",
"512 640 LINE",
"565 630 LINE SMOOTH",
"594 625 OFFCURVE",
"596 615 OFFCURVE",
"596 584 CURVE",
"596 171 LINE",
"593 171 LINE",
"276 700 LINE",
"38 700 LINE",
"38 640 LINE",
"91 630 LINE SMOOTH",
"120 625 OFFCURVE",
"122 615 OFFCURVE",
"122 584 CURVE SMOOTH",
"122 120 LINE SMOOTH",
"122 85 OFFCURVE",
"120 75 OFFCURVE",
"92 70 CURVE SMOOTH",
"38 60 LINE",
"38 0 LINE"
);
}
);
};
hints = (
{
place = "{133, 81}";
},
{
place = "{580, 78}";
},
{
horizontal = 1;
place = "{700, -20}";
target = down;
type = TopGhost;
},
{
horizontal = 1;
place = "{0, 21}";
target = up;
type = BottomGhost;
},
{
horizontal = 1;
place = "{-14, 21}";
target = up;
type = BottomGhost;
}
);
layerId = "D537FF15-C70F-4B12-AACC-84E5BB5FCF97";
paths = (
{
closed = 1;
nodes = (
"306 700 LINE",
"62 700 LINE",
"56 642 LINE",
"135 631 LINE",
"107 69 LINE",
"30 56 LINE",
"24 0 LINE",
"275 0 LINE",
"281 56 LINE",
"192 69 LINE",
"212 601 LINE",
"499 -14 LINE",
"634 0 LINE",
"659 627 LINE",
"739 644 LINE",
"745 700 LINE",
"498 700 LINE",
"492 644 LINE",
"577 627 LINE",
"559 151 LINE"
);
}
);
width = 759;
}
);
leftKerningGroup = N;
rightKerningGroup = N;
unicode = 004E;
},
{
glyphname = O;
lastChange = "2016-09-25 07:32:12 +0000";
layers = (
{
anchors = (
{
name = bottom;
position = "{352, -30}";
},
{
name = top;
position = "{386, 730}";
}
);
background = {
paths = (
{
closed = 1;
nodes = (
"570 -14 OFFCURVE",
"719 122 OFFCURVE",
"719 368 CURVE SMOOTH",
"719 598 OFFCURVE",
"570 714 OFFCURVE",
"396 714 CURVE SMOOTH",
"225 714 OFFCURVE",
"59 607 OFFCURVE",
"59 336 CURVE SMOOTH",
"59 135 OFFCURVE",
"182 -14 OFFCURVE",
"387 -14 CURVE SMOOTH"
);
},
{
closed = 1;
nodes = (
"255 53 OFFCURVE",
"165 170 OFFCURVE",
"165 357 CURVE SMOOTH",
"165 565 OFFCURVE",
"259 650 OFFCURVE",
"383 650 CURVE SMOOTH",
"519 650 OFFCURVE",
"610 547 OFFCURVE",
"610 349 CURVE SMOOTH",
"610 144 OFFCURVE",
"528 53 OFFCURVE",
"399 53 CURVE SMOOTH"
);
}
);
};
hints = (
{
place = "{61, 95}";
},
{
place = "{578, 98}";
},
{
horizontal = 1;
place = "{-14, 65}";
},
{
horizontal = 1;
place = "{653, 62}";
}
);
layerId = UUID0;
paths = (
{
closed = 1;
nodes = (
"61 138 OFFCURVE",
"160 -14 OFFCURVE",
"355 -14 CURVE SMOOTH",
"532 -14 OFFCURVE",
"676 125 OFFCURVE",
"676 382 CURVE SMOOTH",
"676 600 OFFCURVE",
"552 715 OFFCURVE",
"387 715 CURVE SMOOTH",
"225 715 OFFCURVE",
"61 610 OFFCURVE",
"61 328 CURVE SMOOTH"
);
},
{
closed = 1;
nodes = (
"156 568 OFFCURVE",
"255 653 OFFCURVE",
"373 653 CURVE SMOOTH",
"502 653 OFFCURVE",
"578 549 OFFCURVE",
"578 364 CURVE SMOOTH",
"578 149 OFFCURVE",
"491 51 OFFCURVE",
"368 51 CURVE SMOOTH",
"231 51 OFFCURVE",
"156 173 OFFCURVE",
"156 349 CURVE SMOOTH"
);
}
);
width = 715;
},
{
anchors = (
{
name = bottom;
position = "{358, -30}";
},
{
name = top;
position = "{384, 730}";
}
);
background = {
paths = (
{
closed = 1;
nodes = (
"609 -14 OFFCURVE",
"725 154 OFFCURVE",
"725 368 CURVE SMOOTH",
"725 599 OFFCURVE",
"581 714 OFFCURVE",
"396 714 CURVE SMOOTH",
"206 714 OFFCURVE",
"46 600 OFFCURVE",
"46 337 CURVE SMOOTH",
"46 139 OFFCURVE",
"153 -14 OFFCURVE",
"385 -14 CURVE SMOOTH"
);
},
{
closed = 1;
nodes = (
"261 70 OFFCURVE",
"202 188 OFFCURVE",
"202 357 CURVE SMOOTH",
"202 539 OFFCURVE",
"264 631 OFFCURVE",
"380 631 CURVE SMOOTH",
"504 631 OFFCURVE",
"571 518 OFFCURVE",
"571 350 CURVE SMOOTH",
"571 157 OFFCURVE",
"504 70 OFFCURVE",
"394 70 CURVE SMOOTH"
);
}
);
};
hints = (
{
place = "{52, 141}";
},
{
place = "{549, 144}";
},
{
horizontal = 1;
place = "{-14, 76}";
},
{
horizontal = 1;
place = "{641, 74}";
}
);
layerId = "D537FF15-C70F-4B12-AACC-84E5BB5FCF97";
paths = (
{
closed = 1;
nodes = (
"52 138 OFFCURVE",
"151 -14 OFFCURVE",
"359 -14 CURVE SMOOTH",
"549 -14 OFFCURVE",
"693 125 OFFCURVE",
"693 382 CURVE SMOOTH",
"693 600 OFFCURVE",
"569 715 OFFCURVE",
"391 715 CURVE SMOOTH",
"216 715 OFFCURVE",
"52 610 OFFCURVE",
"52 328 CURVE SMOOTH"
);
},
{
closed = 1;
nodes = (
"193 563 OFFCURVE",
"279 641 OFFCURVE",
"377 641 CURVE SMOOTH",
"486 641 OFFCURVE",
"549 549 OFFCURVE",
"549 364 CURVE SMOOTH",
"549 140 OFFCURVE",
"475 62 OFFCURVE",
"372 62 CURVE SMOOTH",
"255 62 OFFCURVE",
"193 164 OFFCURVE",
"193 349 CURVE SMOOTH"
);
}
);
width = 721;
}
);
leftKerningGroup = O;
rightKerningGroup = O;
unicode = 004F;
},
{
glyphname = P;
lastChange = "2016-09-25 07:29:43 +0000";
layers = (
{
background = {
paths = (
{
closed = 1;
nodes = (
"346 0 LINE",
"346 48 LINE",
"276 56 LINE SMOOTH",
"244 60 OFFCURVE",
"239 73 OFFCURVE",
"239 106 CURVE SMOOTH",
"239 282 LINE",
"248 280 OFFCURVE",
"280 277 OFFCURVE",
"318 277 CURVE SMOOTH",
"427 277 OFFCURVE",
"566 333 OFFCURVE",
"566 502 CURVE SMOOTH",
"566 655 OFFCURVE",
"449 700 OFFCURVE",
"297 700 CURVE SMOOTH",
"51 700 LINE",
"51 652 LINE",
"107 643 LINE SMOOTH",
"137 638 OFFCURVE",
"140 627 OFFCURVE",
"140 596 CURVE SMOOTH",
"140 108 LINE SMOOTH",
"140 78 OFFCURVE",
"138 62 OFFCURVE",
"109 57 CURVE SMOOTH",
"51 48 LINE",
"51 0 LINE"
);
},
{
closed = 1;
nodes = (
"274 331 OFFCURVE",
"249 333 OFFCURVE",
"239 336 CURVE",
"239 646 LINE",
"290 646 LINE SMOOTH",
"389 646 OFFCURVE",
"459 616 OFFCURVE",
"459 499 CURVE SMOOTH",
"459 396 OFFCURVE",
"411 331 OFFCURVE",
"297 331 CURVE SMOOTH"
);
}
);
};
hints = (
{
place = "{156, 87}";
},
{
place = "{472, 97}";
},
{
horizontal = 1;
place = "{284, 54}";
},
{
horizontal = 1;
place = "{646, 54}";
},
{
horizontal = 1;
place = "{0, 21}";
target = up;
type = BottomGhost;
}
);
layerId = UUID0;
paths = (
{
closed = 1;
nodes = (
"273 287 LINE",
"286 285 OFFCURVE",
"299 284 OFFCURVE",
"311 284 CURVE SMOOTH",
"463 284 OFFCURVE",
"558 375 OFFCURVE",
"558 502 CURVE SMOOTH",
"558 645 OFFCURVE",
"454 700 OFFCURVE",
"304 700 CURVE SMOOTH",
"77 700 LINE",
"71 654 LINE",
"158 637 LINE",
"133 60 LINE",
"44 44 LINE",
"39 0 LINE",
"345 0 LINE",
"349 45 LINE",
"221 59 LINE",
"244 646 LINE",
"295 646 LINE SMOOTH",
"394 646 OFFCURVE",
"461 608 OFFCURVE",
"461 503 CURVE SMOOTH",
"461 397 OFFCURVE",
"411 338 OFFCURVE",
"307 338 CURVE SMOOTH",
"296 338 OFFCURVE",
"289 338 OFFCURVE",
"276 339 CURVE"
);
}
);
width = 584;
},
{
background = {
paths = (
{
closed = 1;
nodes = (
"377 0 LINE",
"377 58 LINE",
"307 66 LINE SMOOTH",
"275 70 OFFCURVE",
"270 83 OFFCURVE",
"270 116 CURVE SMOOTH",
"270 272 LINE",
"279 270 OFFCURVE",
"321 267 OFFCURVE",
"359 267 CURVE SMOOTH",
"468 267 OFFCURVE",
"607 320 OFFCURVE",
"607 489 CURVE SMOOTH",
"607 642 OFFCURVE",
"490 700 OFFCURVE",
"338 700 CURVE SMOOTH",
"39 700 LINE",
"39 640 LINE",
"90 631 LINE SMOOTH",
"120 626 OFFCURVE",
"123 615 OFFCURVE",
"123 584 CURVE SMOOTH",
"123 120 LINE SMOOTH",
"123 90 OFFCURVE",
"121 74 OFFCURVE",
"92 69 CURVE SMOOTH",
"39 60 LINE",
"39 0 LINE"
);
},
{
closed = 1;
nodes = (
"291 337 OFFCURVE",
"280 338 OFFCURVE",
"271 339 CURVE",
"271 630 LINE",
"319 630 LINE SMOOTH",
"412 630 OFFCURVE",
"453 578 OFFCURVE",
"453 496 CURVE SMOOTH",
"453 406 OFFCURVE",
"409 337 OFFCURVE",
"311 337 CURVE SMOOTH"
);
}
);
};
hints = (
{
place = "{132, 131}";
},
{
place = "{461, 143}";
},
{
horizontal = 1;
place = "{277, 67}";
},
{
horizontal = 1;
place = "{633, 67}";
},
{
horizontal = 1;
place = "{0, 21}";
target = up;
type = BottomGhost;
}
);
layerId = "D537FF15-C70F-4B12-AACC-84E5BB5FCF97";
paths = (
{
closed = 1;
nodes = (
"284 280 LINE",
"297 278 OFFCURVE",
"310 277 OFFCURVE",
"331 277 CURVE SMOOTH",
"489 277 OFFCURVE",
"592 375 OFFCURVE",
"592 502 CURVE SMOOTH",
"592 645 OFFCURVE",
"481 700 OFFCURVE",
"331 700 CURVE SMOOTH",
"55 700 LINE",
"49 644 LINE",
"133 627 LINE",
"108 70 LINE",
"22 54 LINE",
"17 0 LINE",
"353 0 LINE",
"357 55 LINE",
"239 69 LINE",
"264 633 LINE",
"286 633 LINE SMOOTH",
"374 633 OFFCURVE",
"449 603 OFFCURVE",
"449 500 CURVE SMOOTH",
"449 397 OFFCURVE",
"407 344 OFFCURVE",
"318 344 CURVE SMOOTH",
"307 344 OFFCURVE",
"300 344 OFFCURVE",
"287 345 CURVE"
);
}
);
width = 609;
}
);
leftKerningGroup = P;
rightKerningGroup = P;
unicode = 0050;
},
{
glyphname = Q;
lastChange = "2016-09-25 07:29:43 +0000";
layers = (
{
background = {
paths = (
{
closed = 1;
nodes = (
"787 -191 OFFCURVE",
"839 -153 OFFCURVE",
"901 -75 CURVE",
"881 -45 LINE",
"834 -79 OFFCURVE",
"796 -94 OFFCURVE",
"740 -94 CURVE SMOOTH",
"678 -94 OFFCURVE",
"629 -34 OFFCURVE",
"579 36 CURVE",
"671 96 OFFCURVE",
"733 210 OFFCURVE",
"733 368 CURVE SMOOTH",
"733 598 OFFCURVE",
"584 714 OFFCURVE",
"410 714 CURVE SMOOTH",
"239 714 OFFCURVE",
"73 607 OFFCURVE",
"73 336 CURVE SMOOTH",
"73 135 OFFCURVE",
"196 -14 OFFCURVE",
"401 -14 CURVE SMOOTH",
"433 -14 OFFCURVE",
"464 -10 OFFCURVE",
"493 -2 CURVE",
"543 -98 OFFCURVE",
"601 -191 OFFCURVE",
"712 -191 CURVE SMOOTH"
);
},
{
closed = 1;
nodes = (
"332 53 OFFCURVE",
"268 89 OFFCURVE",
"228 153 CURVE",
"260 184 OFFCURVE",
"290 193 OFFCURVE",
"323 193 CURVE SMOOTH",
"385 193 OFFCURVE",
"424 131 OFFCURVE",
"462 57 CURVE",
"447 54 OFFCURVE",
"430 53 OFFCURVE",
"413 53 CURVE SMOOTH"
);
},
{
closed = 1;
nodes = (
"483 174 OFFCURVE",
"421 249 OFFCURVE",
"336 249 CURVE SMOOTH",
"291 249 OFFCURVE",
"253 239 OFFCURVE",
"206 196 CURVE",
"189 240 OFFCURVE",
"179 296 OFFCURVE",
"179 357 CURVE SMOOTH",
"179 565 OFFCURVE",
"273 650 OFFCURVE",
"397 650 CURVE SMOOTH",
"533 650 OFFCURVE",
"624 547 OFFCURVE",
"624 349 CURVE SMOOTH",
"624 223 OFFCURVE",
"593 139 OFFCURVE",
"540 94 CURVE"
);
}
);
};
hints = (
{
place = "{52, 95}";
},
{
place = "{569, 98}";
},
{
place = "{569, 154}";
},
{
horizontal = 1;
place = "{-174, 141}";
},
{
horizontal = 1;
place = "{-18, 93}";
},
{
horizontal = 1;
place = "{653, 62}";
}
);
layerId = UUID0;
paths = (
{
closed = 1;
nodes = (
"58 201 OFFCURVE",
"126 75 OFFCURVE",
"273 37 CURVE",
"273 32 LINE",
"239 25 OFFCURVE",
"207 12 OFFCURVE",
"183 0 CURVE",
"207 -54 LINE",
"261 -30 OFFCURVE",
"289 -18 OFFCURVE",
"331 -18 CURVE SMOOTH",
"391 -18 OFFCURVE",
"418 -41 OFFCURVE",
"492 -100 CURVE SMOOTH",
"550 -146 OFFCURVE",
"597 -174 OFFCURVE",
"647 -174 CURVE SMOOTH",
"689 -174 OFFCURVE",
"729 -149 OFFCURVE",
"729 -100 CURVE SMOOTH",
"729 -61 OFFCURVE",
"700 -33 OFFCURVE",
"642 -33 CURVE",
"634 -63 LINE SMOOTH",
"624 -100 OFFCURVE",
"597 -94 OFFCURVE",
"528 -43 CURVE SMOOTH",
"489 -14 OFFCURVE",
"448 12 OFFCURVE",
"381 24 CURVE",
"381 32 LINE",
"556 54 OFFCURVE",
"673 159 OFFCURVE",
"673 390 CURVE SMOOTH",
"673 598 OFFCURVE",
"549 715 OFFCURVE",
"384 715 CURVE SMOOTH",
"222 715 OFFCURVE",
"58 616 OFFCURVE",
"58 346 CURVE SMOOTH"
);
},
{
closed = 1;
nodes = (
"153 574 OFFCURVE",
"252 653 OFFCURVE",
"370 653 CURVE SMOOTH",
"499 653 OFFCURVE",
"575 547 OFFCURVE",
"575 376 CURVE SMOOTH",
"575 183 OFFCURVE",
"482 75 OFFCURVE",
"359 75 CURVE SMOOTH",
"222 75 OFFCURVE",
"153 179 OFFCURVE",
"153 355 CURVE SMOOTH"
);
}
);
width = 702;
},
{
background = {
paths = (
{
closed = 1;
nodes = (
"785 -190 OFFCURVE",
"845 -149 OFFCURVE",
"902 -77 CURVE",
"872 -34 LINE",
"825 -68 OFFCURVE",
"794 -83 OFFCURVE",
"755 -83 CURVE SMOOTH",
"675 -83 OFFCURVE",
"654 -52 OFFCURVE",
"587 44 CURVE",
"681 111 OFFCURVE",
"730 230 OFFCURVE",
"730 368 CURVE SMOOTH",
"730 599 OFFCURVE",
"586 714 OFFCURVE",
"401 714 CURVE SMOOTH",
"211 714 OFFCURVE",
"51 600 OFFCURVE",
"51 337 CURVE SMOOTH",
"51 139 OFFCURVE",
"158 -14 OFFCURVE",
"390 -14 CURVE SMOOTH",
"422 -14 OFFCURVE",
"452 -10 OFFCURVE",
"480 -3 CURVE",
"553 -132 OFFCURVE",
"607 -190 OFFCURVE",
"710 -190 CURVE SMOOTH"
);
},
{
closed = 1;
nodes = (
"328 70 OFFCURVE",
"279 103 OFFCURVE",
"248 159 CURVE",
"271 172 OFFCURVE",
"295 178 OFFCURVE",
"317 178 CURVE SMOOTH",
"367 178 OFFCURVE",
"401 136 OFFCURVE",
"437 74 CURVE",
"425 71 OFFCURVE",
"412 70 OFFCURVE",
"399 70 CURVE SMOOTH"
);
},
{
closed = 1;
nodes = (
"462 221 OFFCURVE",
"415 266 OFFCURVE",
"335 266 CURVE SMOOTH",
"299 266 OFFCURVE",
"260 251 OFFCURVE",
"222 223 CURVE",
"212 262 OFFCURVE",
"207 307 OFFCURVE",
"207 357 CURVE SMOOTH",
"207 539 OFFCURVE",
"269 631 OFFCURVE",
"385 631 CURVE SMOOTH",
"509 631 OFFCURVE",
"576 518 OFFCURVE",
"576 350 CURVE SMOOTH",
"576 250 OFFCURVE",
"558 179 OFFCURVE",
"526 133 CURVE"
);
}
);
};
hints = (
{
place = "{53, 141}";
},
{
place = "{550, 144}";
},
{
place = "{550, 189}";
},
{
horizontal = 1;
place = "{-185, 158}";
},
{
horizontal = 1;
place = "{-26, 46}";
},
{
horizontal = 1;
place = "{28, 71}";
},
{
horizontal = 1;
place = "{641, 74}";
}
);
layerId = "D537FF15-C70F-4B12-AACC-84E5BB5FCF97";
paths = (
{
closed = 1;
nodes = (
"58 202 OFFCURVE",
"131 76 OFFCURVE",
"277 39 CURVE",
"277 32 LINE",
"243 25 OFFCURVE",
"205 9 OFFCURVE",
"181 -3 CURVE",
"212 -61 LINE",
"258 -40 OFFCURVE",
"290 -26 OFFCURVE",
"332 -26 CURVE SMOOTH",
"386 -26 OFFCURVE",
"412 -50 OFFCURVE",
"489 -114 CURVE SMOOTH",
"542 -158 OFFCURVE",
"597 -185 OFFCURVE",
"647 -185 CURVE SMOOTH",
"704 -185 OFFCURVE",
"744 -148 OFFCURVE",
"744 -99 CURVE SMOOTH",
"744 -60 OFFCURVE",
"716 -27 OFFCURVE",
"648 -27 CURVE",
"635 -68 LINE SMOOTH",
"626 -95 OFFCURVE",
"595 -80 OFFCURVE",
"530 -30 CURVE SMOOTH",
"492 -1 OFFCURVE",
"450 15 OFFCURVE",
"385 20 CURVE",
"385 28 LINE",
"562 38 OFFCURVE",
"699 168 OFFCURVE",
"699 392 CURVE SMOOTH",
"699 610 OFFCURVE",
"575 715 OFFCURVE",
"397 715 CURVE SMOOTH",
"222 715 OFFCURVE",
"58 620 OFFCURVE",
"58 338 CURVE SMOOTH"
);
},
{
closed = 1;
nodes = (
"199 573 OFFCURVE",
"285 641 OFFCURVE",
"383 641 CURVE SMOOTH",
"492 641 OFFCURVE",
"555 559 OFFCURVE",
"555 374 CURVE SMOOTH",
"555 180 OFFCURVE",
"481 99 OFFCURVE",
"378 99 CURVE SMOOTH",
"261 99 OFFCURVE",
"199 189 OFFCURVE",
"199 359 CURVE SMOOTH"
);
}
);
width = 722;
}
);
leftKerningGroup = O;
rightKerningGroup = O;
unicode = 0051;
},
{
glyphname = R;
lastChange = "2016-09-25 07:29:43 +0000";
layers = (
{
anchors = (
{
name = bottom;
position = "{330, -31}";
},
{
name = top;
position = "{313, 730}";
}
);
background = {
paths = (
{
closed = 1;
nodes = (
"627 -14 OFFCURVE",
"660 0 OFFCURVE",
"687 26 CURVE",
"677 62 LINE",
"659 56 OFFCURVE",
"645 53 OFFCURVE",
"632 53 CURVE SMOOTH",
"577 53 OFFCURVE",
"561 95 OFFCURVE",
"533 162 CURVE SMOOTH",
"498 244 LINE SMOOTH",
"477 294 OFFCURVE",
"451 320 OFFCURVE",
"397 335 CURVE",
"397 338 LINE",
"456 349 OFFCURVE",
"571 401 OFFCURVE",
"571 521 CURVE SMOOTH",
"571 656 OFFCURVE",
"452 700 OFFCURVE",
"302 700 CURVE SMOOTH",
"51 700 LINE",
"51 652 LINE",
"107 643 LINE SMOOTH",
"137 638 OFFCURVE",
"140 627 OFFCURVE",
"140 596 CURVE SMOOTH",
"140 108 LINE SMOOTH",
"140 78 OFFCURVE",
"138 62 OFFCURVE",
"109 57 CURVE SMOOTH",
"51 48 LINE",
"51 0 LINE",
"346 0 LINE",
"346 48 LINE",
"276 56 LINE SMOOTH",
"244 60 OFFCURVE",
"239 73 OFFCURVE",
"239 106 CURVE SMOOTH",
"239 318 LINE",
"252 320 OFFCURVE",
"266 321 OFFCURVE",
"284 321 CURVE SMOOTH",
"351 321 OFFCURVE",
"364 294 OFFCURVE",
"391 229 CURVE SMOOTH",
"439 114 LINE SMOOTH",
"473 32 OFFCURVE",
"503 -14 OFFCURVE",
"586 -14 CURVE SMOOTH"
);
},
{
closed = 1;
nodes = (
"281 369 OFFCURVE",
"255 369 OFFCURVE",
"239 371 CURVE",
"239 646 LINE",
"295 646 LINE SMOOTH",
"394 646 OFFCURVE",
"464 620 OFFCURVE",
"464 515 CURVE SMOOTH",
"464 428 OFFCURVE",
"409 369 OFFCURVE",
"295 369 CURVE SMOOTH"
);
}
);
};
hints = (
{
place = "{156, 88}";
},
{
place = "{465, 97}";
},
{
horizontal = 1;
place = "{-14, 59}";
},
{
horizontal = 1;
place = "{646, 54}";
},
{
horizontal = 1;
place = "{0, 21}";
target = up;
type = BottomGhost;
}
);
layerId = UUID0;
paths = (
{
closed = 1;
nodes = (
"275 321 LINE",
"308 301 OFFCURVE",
"328 278 OFFCURVE",
"362 197 CURVE SMOOTH",
"404 98 LINE SMOOTH",
"444 18 OFFCURVE",
"483 -14 OFFCURVE",
"559 -14 CURVE SMOOTH",
"597 -14 OFFCURVE",
"638 2 OFFCURVE",
"665 28 CURVE",
"645 63 LINE",
"627 54 OFFCURVE",
"607 45 OFFCURVE",
"586 45 CURVE SMOOTH",
"544 45 OFFCURVE",
"524 66 OFFCURVE",
"496 123 CURVE SMOOTH",
"438 243 LINE SMOOTH",
"415 291 OFFCURVE",
"392 318 OFFCURVE",
"344 338 CURVE",
"344 341 LINE",
"431 351 OFFCURVE",
"551 408 OFFCURVE",
"551 532 CURVE SMOOTH",
"551 661 OFFCURVE",
"454 700 OFFCURVE",
"304 700 CURVE SMOOTH",
"77 700 LINE",
"71 654 LINE",
"158 637 LINE",
"133 60 LINE",
"44 44 LINE",
"39 0 LINE",
"325 0 LINE",
"330 44 LINE",
"222 58 LINE",
"244 646 LINE",
"295 646 LINE SMOOTH",
"394 646 OFFCURVE",
"454 622 OFFCURVE",
"454 523 CURVE SMOOTH",
"454 434 OFFCURVE",
"390 373 OFFCURVE",
"279 370 CURVE"
);
}
);
width = 681;
},
{
anchors = (
{
name = bottom;
position = "{339, -30}";
},
{
name = top;
position = "{324, 730}";
}
);
background = {
paths = (
{
closed = 1;
nodes = (
"622 -14 OFFCURVE",
"672 1 OFFCURVE",
"702 28 CURVE",
"689 75 LINE",
"671 69 OFFCURVE",
"655 67 OFFCURVE",
"640 67 CURVE SMOOTH",
"601 67 OFFCURVE",
"586 105 OFFCURVE",
"561 163 CURVE SMOOTH",
"527 243 LINE SMOOTH",
"506 293 OFFCURVE",
"478 327 OFFCURVE",
"416 344 CURVE",
"416 347 LINE",
"488 361 OFFCURVE",
"598 414 OFFCURVE",
"598 527 CURVE SMOOTH",
"598 661 OFFCURVE",
"494 700 OFFCURVE",
"363 700 CURVE SMOOTH",
"37 700 LINE",
"37 639 LINE",
"89 630 LINE SMOOTH",
"119 625 OFFCURVE",
"122 614 OFFCURVE",
"122 583 CURVE SMOOTH",
"122 121 LINE SMOOTH",
"122 91 OFFCURVE",
"120 75 OFFCURVE",
"91 70 CURVE SMOOTH",
"37 61 LINE",
"37 0 LINE",
"361 0 LINE",
"361 61 LINE",
"307 69 LINE SMOOTH",
"275 73 OFFCURVE",
"269 86 OFFCURVE",
"269 119 CURVE SMOOTH",
"269 308 LINE",
"273 309 OFFCURVE",
"278 310 OFFCURVE",
"283 310 CURVE SMOOTH",
"333 310 OFFCURVE",
"346 290 OFFCURVE",
"373 229 CURVE SMOOTH",
"423 115 LINE",
"460 31 OFFCURVE",
"483 -14 OFFCURVE",
"583 -14 CURVE SMOOTH"
);
},
{
closed = 1;
nodes = (
"280 376 OFFCURVE",
"270 378 OFFCURVE",
"270 378 CURVE",
"270 630 LINE",
"311 630 LINE SMOOTH",
"394 630 OFFCURVE",
"444 598 OFFCURVE",
"444 513 CURVE SMOOTH",
"444 439 OFFCURVE",
"406 376 OFFCURVE",
"296 376 CURVE SMOOTH"
);
}
);
};
hints = (
{
place = "{131, 132}";
},
{
place = "{455, 141}";
},
{
horizontal = 1;
place = "{-14, 79}";
},
{
horizontal = 1;
place = "{633, 67}";
},
{
horizontal = 1;
place = "{0, 21}";
target = up;
type = BottomGhost;
}
);
layerId = "D537FF15-C70F-4B12-AACC-84E5BB5FCF97";
paths = (
{
closed = 1;
nodes = (
"282 321 LINE",
"318 305 OFFCURVE",
"336 276 OFFCURVE",
"369 197 CURVE SMOOTH",
"408 102 LINE SMOOTH",
"442 19 OFFCURVE",
"481 -14 OFFCURVE",
"565 -14 CURVE SMOOTH",
"614 -14 OFFCURVE",
"657 5 OFFCURVE",
"684 31 CURVE",
"661 82 LINE",
"643 71 OFFCURVE",
"628 65 OFFCURVE",
"607 65 CURVE SMOOTH",
"572 65 OFFCURVE",
"559 90 OFFCURVE",
"539 131 CURVE SMOOTH",
"484 245 LINE SMOOTH",
"461 294 OFFCURVE",
"425 322 OFFCURVE",
"371 338 CURVE",
"371 341 LINE",
"461 350 OFFCURVE",
"584 406 OFFCURVE",
"584 530 CURVE SMOOTH",
"584 659 OFFCURVE",
"480 700 OFFCURVE",
"330 700 CURVE SMOOTH",
"54 700 LINE",
"48 645 LINE",
"132 628 LINE",
"107 70 LINE",
"21 54 LINE",
"16 0 LINE",
"332 0 LINE",
"337 54 LINE",
"241 68 LINE",
"262 633 LINE",
"283 633 LINE SMOOTH",
"356 633 OFFCURVE",
"443 617 OFFCURVE",
"443 523 CURVE SMOOTH",
"443 434 OFFCURVE",
"385 381 OFFCURVE",
"287 374 CURVE"
);
}
);
width = 697;
}
);
leftKerningGroup = R;
rightKerningGroup = R;
unicode = 0052;
},
{
glyphname = S;
lastChange = "2016-09-25 07:29:43 +0000";
layers = (
{
anchors = (
{
name = bottom;
position = "{232, -32}";
},
{
name = top;
position = "{282, 730}";
}
);
background = {
paths = (
{
closed = 1;
nodes = (
"475 -14 OFFCURVE",
"543 100 OFFCURVE",
"543 200 CURVE SMOOTH",
"543 340 OFFCURVE",
"434 375 OFFCURVE",
"336 409 CURVE SMOOTH",
"255 437 OFFCURVE",
"181 464 OFFCURVE",
"181 549 CURVE SMOOTH",
"181 617 OFFCURVE",
"232 659 OFFCURVE",
"301 659 CURVE SMOOTH",
"373 659 OFFCURVE",
"436 626 OFFCURVE",
"472 504 CURVE",
"528 512 LINE",
"506 714 LINE",
"459 714 LINE",
"446 662 LINE",
"411 692 OFFCURVE",
"355 714 OFFCURVE",
"298 714 CURVE SMOOTH",
"152 714 OFFCURVE",
"84 620 OFFCURVE",
"84 521 CURVE SMOOTH",
"84 379 OFFCURVE",
"192 347 OFFCURVE",
"289 314 CURVE SMOOTH",
"371 287 OFFCURVE",
"446 259 OFFCURVE",
"446 165 CURVE SMOOTH",
"446 93 OFFCURVE",
"400 50 OFFCURVE",
"316 50 CURVE SMOOTH",
"237 50 OFFCURVE",
"162 90 OFFCURVE",
"116 215 CURVE",
"59 210 LINE",
"79 -6 LINE",
"123 -6 LINE",
"139 53 LINE",
"169 24 OFFCURVE",
"232 -14 OFFCURVE",
"319 -14 CURVE SMOOTH"
);
}
);
};
hints = (
{
place = "{40, 112}";
},
{
place = "{70, 82}";
},
{
place = "{391, 81}";
},
{
horizontal = 1;
place = "{-14, 63}";
},
{
horizontal = 1;
place = "{518, 197}";
},
{
horizontal = 1;
place = "{653, 62}";
},
{
horizontal = 1;
place = "{-14, 201}";
}
);
layerId = UUID0;
paths = (
{
closed = 1;
nodes = (
"465 408 OFFCURVE",
"145 382 OFFCURVE",
"145 545 CURVE SMOOTH",
"145 610 OFFCURVE",
"188 653 OFFCURVE",
"284 653 CURVE SMOOTH",
"358 653 OFFCURVE",
"383 616 OFFCURVE",
"364 579 CURVE SMOOTH",
"345 542 LINE",
"356 531 OFFCURVE",
"381 518 OFFCURVE",
"410 518 CURVE SMOOTH",
"445 518 OFFCURVE",
"470 543 OFFCURVE",
"470 582 CURVE SMOOTH",
"470 659 OFFCURVE",
"389 715 OFFCURVE",
"289 715 CURVE SMOOTH",
"117 715 OFFCURVE",
"63 598 OFFCURVE",
"63 519 CURVE SMOOTH",
"63 310 OFFCURVE",
"384 331 OFFCURVE",
"384 179 CURVE SMOOTH",
"384 88 OFFCURVE",
"309 49 OFFCURVE",
"232 49 CURVE SMOOTH",
"145 49 OFFCURVE",
"128 91 OFFCURVE",
"147 128 CURVE SMOOTH",
"163 161 LINE",
"152 172 OFFCURVE",
"129 187 OFFCURVE",
"96 187 CURVE SMOOTH",
"61 187 OFFCURVE",
"33 159 OFFCURVE",
"33 115 CURVE SMOOTH",
"33 43 OFFCURVE",
"110 -14 OFFCURVE",
"225 -14 CURVE SMOOTH",
"370 -14 OFFCURVE",
"465 77 OFFCURVE",
"465 197 CURVE SMOOTH"
);
}
);
width = 496;
},
{
anchors = (
{
name = bottom;
position = "{239, -30}";
},
{
name = top;
position = "{289, 730}";
}
);
background = {
paths = (
{
closed = 1;
nodes = (
"436 -14 OFFCURVE",
"546 68 OFFCURVE",
"546 204 CURVE SMOOTH",
"546 341 OFFCURVE",
"443 375 OFFCURVE",
"342 416 CURVE SMOOTH",
"253 452 OFFCURVE",
"190 470 OFFCURVE",
"190 540 CURVE SMOOTH",
"190 602 OFFCURVE",
"235 633 OFFCURVE",
"294 633 CURVE SMOOTH",
"367 633 OFFCURVE",
"422 594 OFFCURVE",
"457 489 CURVE",
"531 502 LINE",
"509 714 LINE",
"449 714 LINE",
"436 664 LINE",
"409 685 OFFCURVE",
"361 714 OFFCURVE",
"283 714 CURVE SMOOTH",
"118 714 OFFCURVE",
"53 602 OFFCURVE",
"53 505 CURVE SMOOTH",
"53 378 OFFCURVE",
"131 329 OFFCURVE",
"255 288 CURVE SMOOTH",
"343 259 OFFCURVE",
"403 233 OFFCURVE",
"403 168 CURVE SMOOTH",
"403 126 OFFCURVE",
"379 71 OFFCURVE",
"287 71 CURVE SMOOTH",
"196 71 OFFCURVE",
"139 133 OFFCURVE",
"109 207 CURVE",
"35 197 LINE",
"52 -6 LINE",
"116 -6 LINE",
"130 43 LINE",
"172 9 OFFCURVE",
"245 -14 OFFCURVE",
"306 -14 CURVE SMOOTH"
);
}
);
};
hints = (
{
place = "{31, 150}";
},
{
place = "{69, 112}";
},
{
place = "{380, 121}";
},
{
horizontal = 1;
place = "{-14, 75}";
},
{
horizontal = 1;
place = "{644, 71}";
}
);
layerId = "D537FF15-C70F-4B12-AACC-84E5BB5FCF97";
paths = (
{
closed = 1;
nodes = (
"494 434 OFFCURVE",
"174 406 OFFCURVE",
"174 548 CURVE SMOOTH",
"174 605 OFFCURVE",
"214 644 OFFCURVE",
"293 644 CURVE SMOOTH",
"367 644 OFFCURVE",
"388 617 OFFCURVE",
"368 575 CURVE SMOOTH",
"347 532 LINE",
"359 519 OFFCURVE",
"387 504 OFFCURVE",
"418 504 CURVE SMOOTH",
"456 504 OFFCURVE",
"493 531 OFFCURVE",
"493 576 CURVE SMOOTH",
"493 665 OFFCURVE",
"407 715 OFFCURVE",
"298 715 CURVE SMOOTH",
"125 715 OFFCURVE",
"62 607 OFFCURVE",
"62 513 CURVE SMOOTH",
"62 286 OFFCURVE",
"373 325 OFFCURVE",
"373 179 CURVE SMOOTH",
"373 98 OFFCURVE",
"318 61 OFFCURVE",
"241 61 CURVE SMOOTH",
"154 61 OFFCURVE",
"148 95 OFFCURVE",
"167 132 CURVE SMOOTH",
"182 162 LINE",
"170 179 OFFCURVE",
"137 199 OFFCURVE",
"104 199 CURVE SMOOTH",
"55 199 OFFCURVE",
"24 165 OFFCURVE",
"24 115 CURVE SMOOTH",
"24 47 OFFCURVE",
"94 -14 OFFCURVE",
"229 -14 CURVE SMOOTH",
"379 -14 OFFCURVE",
"494 77 OFFCURVE",
"494 207 CURVE SMOOTH"
);
}
);
width = 521;
}
);
leftKerningGroup = S;
rightKerningGroup = S;
unicode = 0053;
},
{
glyphname = T;
lastChange = "2016-09-25 07:32:24 +0000";
layers = (
{
anchors = (
{
name = bottom;
position = "{307, -30}";
},
{
name = top;
position = "{345, 730}";
}
);
background = {
paths = (
{
closed = 1;
nodes = (
"532 0 LINE",
"532 48 LINE",
"453 60 LINE SMOOTH",
"424 65 OFFCURVE",
"419 75 OFFCURVE",
"419 106 CURVE SMOOTH",
"419 645 LINE",
"475 645 LINE SMOOTH",
"575 645 OFFCURVE",
"599 617 OFFCURVE",
"641 487 CURVE",
"696 500 LINE",
"659 700 LINE",
"81 700 LINE",
"42 500 LINE",
"96 487 LINE",
"139 617 OFFCURVE",
"165 645 OFFCURVE",
"265 645 CURVE SMOOTH",
"320 645 LINE",
"320 110 LINE SMOOTH",
"320 80 OFFCURVE",
"316 64 OFFCURVE",
"287 60 CURVE SMOOTH",
"207 48 LINE",
"207 0 LINE"
);
}
);
};
hints = (
{
place = "{282, 85}";
},
{
horizontal = 1;
place = "{643, 57}";
},
{
horizontal = 1;
place = "{0, 21}";
target = up;
type = BottomGhost;
}
);
layerId = UUID0;
paths = (
{
closed = 1;
nodes = (
"159 0 LINE",
"457 0 LINE",
"463 46 LINE",
"354 58 LINE",
"380 643 LINE",
"469 643 LINE SMOOTH",
"537 643 OFFCURVE",
"547 613 OFFCURVE",
"564 562 CURVE SMOOTH",
"577 523 LINE",
"631 533 LINE",
"617 700 LINE",
"64 700 LINE",
"40 534 LINE",
"96 523 LINE",
"109 562 LINE SMOOTH",
"128 620 OFFCURVE",
"139 643 OFFCURVE",
"207 643 CURVE SMOOTH",
"295 643 LINE",
"270 59 LINE",
"165 46 LINE"
);
}
);
width = 621;
},
{
anchors = (
{
name = bottom;
position = "{305, -30}";
},
{
name = top;
position = "{352, 730}";
}
);
background = {
paths = (
{
closed = 1;
nodes = (
"530 0 LINE",
"530 61 LINE",
"471 71 LINE SMOOTH",
"442 76 OFFCURVE",
"437 88 OFFCURVE",
"437 119 CURVE SMOOTH",
"437 630 LINE",
"478 630 LINE SMOOTH",
"571 630 OFFCURVE",
"586 605 OFFCURVE",
"626 481 CURVE",
"702 498 LINE",
"662 700 LINE",
"67 700 LINE",
"27 495 LINE",
"102 478 LINE",
"145 608 OFFCURVE",
"164 630 OFFCURVE",
"264 630 CURVE SMOOTH",
"289 630 LINE",
"289 123 LINE SMOOTH",
"289 93 OFFCURVE",
"285 75 OFFCURVE",
"256 71 CURVE SMOOTH",
"196 61 LINE",
"196 0 LINE"
);
}
);
};
hints = (
{
place = "{265, 136}";
},
{
horizontal = 1;
place = "{630, 70}";
},
{
horizontal = 1;
place = "{0, 21}";
target = up;
type = BottomGhost;
}
);
layerId = "D537FF15-C70F-4B12-AACC-84E5BB5FCF97";
paths = (
{
closed = 1;
nodes = (
"145 0 LINE",
"488 0 LINE",
"494 56 LINE",
"388 68 LINE",
"414 630 LINE",
"478 630 LINE SMOOTH",
"545 630 OFFCURVE",
"556 607 OFFCURVE",
"571 554 CURVE SMOOTH",
"587 499 LINE",
"651 509 LINE",
"634 700 LINE",
"59 700 LINE",
"33 510 LINE",
"99 499 LINE",
"114 554 LINE SMOOTH",
"130 612 OFFCURVE",
"144 630 OFFCURVE",
"212 630 CURVE SMOOTH",
"278 630 LINE",
"253 69 LINE",
"151 56 LINE"
);
}
);
width = 635;
}
);
leftKerningGroup = T;
rightKerningGroup = T;
unicode = 0054;
},
{
glyphname = U;
lastChange = "2016-09-25 07:29:42 +0000";
layers = (
{
anchors = (
{
name = bottom;
position = "{377, -30}";
},
{
name = top;
position = "{424, 730}";
}
);
background = {
paths = (
{
closed = 1;
nodes = (
"599 -14 OFFCURVE",
"698 79 OFFCURVE",
"698 291 CURVE SMOOTH",
"698 592 LINE SMOOTH",
"698 622 OFFCURVE",
"700 638 OFFCURVE",
"729 643 CURVE SMOOTH",
"786 652 LINE",
"786 700 LINE",
"540 700 LINE",
"540 652 LINE",
"595 643 LINE SMOOTH",
"625 638 OFFCURVE",
"628 627 OFFCURVE",
"628 596 CURVE SMOOTH",
"628 279 LINE SMOOTH",
"628 114 OFFCURVE",
"557 56 OFFCURVE",
"439 56 CURVE SMOOTH",
"306 56 OFFCURVE",
"258 124 OFFCURVE",
"258 272 CURVE SMOOTH",
"258 592 LINE SMOOTH",
"258 622 OFFCURVE",
"260 638 OFFCURVE",
"288 643 CURVE SMOOTH",
"346 652 LINE",
"346 700 LINE",
"70 700 LINE",
"70 652 LINE",
"126 643 LINE SMOOTH",
"156 638 OFFCURVE",
"159 627 OFFCURVE",
"159 596 CURVE SMOOTH",
"159 265 LINE SMOOTH",
"159 103 OFFCURVE",
"220 -14 OFFCURVE",
"425 -14 CURVE SMOOTH"
);
}
);
};
hints = (
{
place = "{137, 87}";
},
{
horizontal = 1;
place = "{-14, 72}";
},
{
horizontal = 1;
place = "{700, -20}";
target = down;
type = TopGhost;
},
{
horizontal = 1;
place = "{0, 21}";
target = up;
type = BottomGhost;
}
);
layerId = UUID0;
paths = (
{
closed = 1;
nodes = (
"669 637 LINE",
"742 654 LINE",
"748 700 LINE",
"516 700 LINE",
"510 654 LINE",
"593 637 LINE",
"584 570 LINE SMOOTH",
"567 444 OFFCURVE",
"525 267 OFFCURVE",
"473 162 CURVE SMOOTH",
"436 88 OFFCURVE",
"390 58 OFFCURVE",
"334 58 CURVE SMOOTH",
"261 58 OFFCURVE",
"229 102 OFFCURVE",
"235 230 CURVE SMOOTH",
"256 637 LINE",
"341 654 LINE",
"347 700 LINE",
"99 700 LINE",
"93 654 LINE",
"169 639 LINE",
"147 222 LINE SMOOTH",
"140 92 OFFCURVE",
"178 -14 OFFCURVE",
"321 -14 CURVE SMOOTH",
"473 -14 OFFCURVE",
"536 134 OFFCURVE",
"589 365 CURVE",
"593 365 LINE",
"558 12 LINE",
"565 0 LINE",
"717 0 LINE",
"724 47 LINE",
"638 60 LINE"
);
}
);
width = 758;
},
{
anchors = (
{
name = bottom;
position = "{378, -30}";
},
{
name = top;
position = "{429, 730}";
}
);
background = {
paths = (
{
closed = 1;
nodes = (
"593 -14 OFFCURVE",
"692 75 OFFCURVE",
"692 271 CURVE SMOOTH",
"692 579 LINE SMOOTH",
"692 609 OFFCURVE",
"694 625 OFFCURVE",
"723 630 CURVE SMOOTH",
"778 639 LINE",
"778 700 LINE",
"511 700 LINE",
"511 639 LINE",
"564 630 LINE SMOOTH",
"594 625 OFFCURVE",
"597 614 OFFCURVE",
"597 583 CURVE SMOOTH",
"597 273 LINE SMOOTH",
"597 170 OFFCURVE",
"571 80 OFFCURVE",
"441 80 CURVE SMOOTH",
"313 80 OFFCURVE",
"291 152 OFFCURVE",
"291 274 CURVE SMOOTH",
"291 579 LINE SMOOTH",
"291 609 OFFCURVE",
"293 625 OFFCURVE",
"321 630 CURVE SMOOTH",
"377 639 LINE",
"377 700 LINE",
"56 700 LINE",
"56 639 LINE",
"110 630 LINE SMOOTH",
"140 625 OFFCURVE",
"143 614 OFFCURVE",
"143 583 CURVE SMOOTH",
"143 260 LINE SMOOTH",
"143 98 OFFCURVE",
"214 -14 OFFCURVE",
"422 -14 CURVE SMOOTH"
);
}
);
};
hints = (
{
place = "{122, 134}";
},
{
horizontal = 1;
place = "{-14, 101}";
},
{
horizontal = 1;
place = "{700, -20}";
target = down;
type = TopGhost;
},
{
horizontal = 1;
place = "{0, 21}";
target = up;
type = BottomGhost;
}
);
layerId = "D537FF15-C70F-4B12-AACC-84E5BB5FCF97";
paths = (
{
closed = 1;
nodes = (
"700 627 LINE",
"770 644 LINE",
"776 700 LINE",
"504 700 LINE",
"498 644 LINE",
"576 627 LINE",
"567 570 LINE SMOOTH",
"550 463 OFFCURVE",
"506 277 OFFCURVE",
"452 173 CURVE SMOOTH",
"430 131 OFFCURVE",
"392 87 OFFCURVE",
"342 87 CURVE SMOOTH",
"274 87 OFFCURVE",
"261 138 OFFCURVE",
"266 230 CURVE SMOOTH",
"287 627 LINE",
"369 644 LINE",
"375 700 LINE",
"87 700 LINE",
"81 644 LINE",
"154 629 LINE",
"131 231 LINE SMOOTH",
"122 83 OFFCURVE",
"162 -14 OFFCURVE",
"315 -14 CURVE SMOOTH",
"481 -14 OFFCURVE",
"533 146 OFFCURVE",
"585 365 CURVE",
"589 365 LINE",
"551 12 LINE",
"558 0 LINE",
"745 0 LINE",
"752 56 LINE",
"669 69 LINE"
);
}
);
width = 769;
}
);
leftKerningGroup = U;
rightKerningGroup = U;
unicode = 0055;
},
{
glyphname = V;
lastChange = "2016-09-25 07:29:43 +0000";
layers = (
{
anchors = (
{
name = top;
position = "{409, 730}";
}
);
background = {
paths = (
{
closed = 1;
nodes = (
"441 0 LINE",
"644 590 LINE SMOOTH",
"659 629 OFFCURVE",
"665 639 OFFCURVE",
"689 644 CURVE SMOOTH",
"738 652 LINE",
"738 700 LINE",
"501 700 LINE",
"501 653 LINE",
"550 642 LINE SMOOTH",
"578 636 OFFCURVE",
"584 623 OFFCURVE",
"572 589 CURVE SMOOTH",
"404 86 LINE",
"400 86 LINE",
"233 595 LINE SMOOTH",
"220 630 OFFCURVE",
"225 641 OFFCURVE",
"252 645 CURVE SMOOTH",
"307 652 LINE",
"307 700 LINE",
"43 700 LINE",
"43 649 LINE",
"83 641 LINE SMOOTH",
"112 634 OFFCURVE",
"115 626 OFFCURVE",
"128 591 CURVE SMOOTH",
"335 0 LINE"
);
}
);
};
hints = (
{
horizontal = 1;
place = "{700, -20}";
target = down;
type = TopGhost;
},
{
horizontal = 1;
place = "{-11, 21}";
target = up;
type = BottomGhost;
}
);
layerId = UUID0;
paths = (
{
closed = 1;
nodes = (
"225 640 LINE",
"313 653 LINE",
"319 700 LINE",
"56 700 LINE",
"49 653 LINE",
"126 638 LINE",
"316 -11 LINE",
"419 2 LINE",
"653 635 LINE",
"733 652 LINE",
"740 700 LINE",
"503 700 LINE",
"497 656 LINE",
"584 638 LINE",
"384 86 LINE",
"380 86 LINE"
);
}
);
width = 690;
},
{
anchors = (
{
name = top;
position = "{423, 730}";
}
);
background = {
paths = (
{
closed = 1;
nodes = (
"456 0 LINE",
"648 581 LINE SMOOTH",
"663 620 OFFCURVE",
"669 630 OFFCURVE",
"693 635 CURVE SMOOTH",
"742 643 LINE",
"742 700 LINE",
"487 700 LINE",
"484 644 LINE",
"535 633 LINE SMOOTH",
"563 627 OFFCURVE",
"569 614 OFFCURVE",
"557 580 CURVE SMOOTH",
"412 134 LINE",
"407 134 LINE",
"267 586 LINE SMOOTH",
"254 621 OFFCURVE",
"259 632 OFFCURVE",
"286 636 CURVE SMOOTH",
"341 643 LINE",
"341 700 LINE",
"21 700 LINE",
"21 640 LINE",
"61 632 LINE SMOOTH",
"90 625 OFFCURVE",
"93 617 OFFCURVE",
"106 582 CURVE SMOOTH",
"304 0 LINE"
);
}
);
};
hints = (
{
horizontal = 1;
place = "{700, -20}";
target = down;
type = TopGhost;
},
{
horizontal = 1;
place = "{-14, 21}";
target = up;
type = BottomGhost;
}
);
layerId = "D537FF15-C70F-4B12-AACC-84E5BB5FCF97";
paths = (
{
closed = 1;
nodes = (
"253 630 LINE",
"341 643 LINE",
"347 700 LINE",
"50 700 LINE",
"43 643 LINE",
"116 628 LINE",
"306 -14 LINE",
"439 -1 LINE",
"669 625 LINE",
"747 642 LINE",
"754 700 LINE",
"507 700 LINE",
"501 646 LINE",
"585 628 LINE",
"401 112 LINE",
"397 112 LINE"
);
}
);
width = 705;
}
);
leftKerningGroup = V;
rightKerningGroup = V;
unicode = 0056;
},
{
glyphname = W;
lastChange = "2016-09-25 07:29:43 +0000";
layers = (
{
anchors = (
{
name = top;
position = "{540, 730}";
}
);
background = {
paths = (
{
closed = 1;
nodes = (
"396 0 LINE",
"552 601 LINE",
"555 601 LINE",
"729 0 LINE",
"842 0 LINE",
"993 590 LINE SMOOTH",
"1003 630 OFFCURVE",
"1016 640 OFFCURVE",
"1040 644 CURVE SMOOTH",
"1087 652 LINE",
"1087 700 LINE",
"850 700 LINE",
"850 653 LINE",
"899 642 LINE SMOOTH",
"927 636 OFFCURVE",
"931 624 OFFCURVE",
"923 589 CURVE SMOOTH",
"805 91 LINE",
"800 91 LINE",
"621 700 LINE",
"512 700 LINE",
"351 86 LINE",
"346 86 LINE",
"229 595 LINE SMOOTH",
"221 631 OFFCURVE",
"225 641 OFFCURVE",
"252 645 CURVE SMOOTH",
"303 652 LINE",
"303 700 LINE",
"39 700 LINE",
"39 649 LINE",
"79 641 LINE SMOOTH",
"108 635 OFFCURVE",
"115 627 OFFCURVE",
"124 591 CURVE SMOOTH",
"276 0 LINE"
);
}
);
};
hints = (
{
horizontal = 1;
place = "{701, -20}";
target = down;
type = TopGhost;
},
{
horizontal = 1;
place = "{700, -20}";
target = down;
type = TopGhost;
},
{
horizontal = 1;
place = "{-10, 21}";
target = up;
type = BottomGhost;
}
);
layerId = UUID0;
paths = (
{
closed = 1;
nodes = (
"564 701 LINE",
"468 685 LINE",
"516 512 LINE",
"351 86 LINE",
"347 86 LINE",
"222 640 LINE",
"310 653 LINE",
"316 700 LINE",
"53 700 LINE",
"46 653 LINE",
"123 638 LINE",
"281 -10 LINE",
"386 0 LINE",
"545 408 LINE",
"662 -10 LINE",
"767 0 LINE",
"961 635 LINE",
"1041 652 LINE",
"1048 700 LINE",
"811 700 LINE",
"805 656 LINE",
"892 638 LINE",
"732 86 LINE",
"728 86 LINE"
);
}
);
width = 993;
},
{
anchors = (
{
name = top;
position = "{534, 730}";
}
);
background = {
paths = (
{
closed = 1;
nodes = (
"413 0 LINE",
"549 526 LINE",
"552 526 LINE",
"694 0 LINE",
"868 0 LINE",
"1013 582 LINE SMOOTH",
"1023 622 OFFCURVE",
"1036 633 OFFCURVE",
"1060 636 CURVE SMOOTH",
"1107 642 LINE",
"1107 700 LINE",
"849 700 LINE",
"849 643 LINE",
"898 634 LINE SMOOTH",
"926 628 OFFCURVE",
"930 616 OFFCURVE",
"922 581 CURVE SMOOTH",
"818 137 LINE",
"814 137 LINE",
"660 700 LINE",
"509 700 LINE",
"362 139 LINE",
"358 139 LINE",
"262 587 LINE SMOOTH",
"254 623 OFFCURVE",
"258 633 OFFCURVE",
"285 636 CURVE SMOOTH",
"336 642 LINE",
"336 700 LINE",
"25 700 LINE",
"25 639 LINE",
"65 633 LINE SMOOTH",
"94 629 OFFCURVE",
"101 619 OFFCURVE",
"110 583 CURVE SMOOTH",
"248 0 LINE"
);
}
);
};
hints = (
{
horizontal = 1;
place = "{701, -20}";
target = down;
type = TopGhost;
},
{
horizontal = 1;
place = "{700, -20}";
target = down;
type = TopGhost;
},
{
horizontal = 1;
place = "{-10, 21}";
target = up;
type = BottomGhost;
}
);
layerId = "D537FF15-C70F-4B12-AACC-84E5BB5FCF97";
paths = (
{
closed = 1;
nodes = (
"588 701 LINE",
"452 685 LINE",
"502 480 LINE",
"368 114 LINE",
"364 114 LINE",
"244 630 LINE",
"335 643 LINE",
"341 700 LINE",
"41 700 LINE",
"34 643 LINE",
"107 628 LINE",
"268 -10 LINE",
"408 -2 LINE",
"537 367 LINE",
"641 -10 LINE",
"789 0 LINE",
"973 625 LINE",
"1050 642 LINE",
"1057 700 LINE",
"810 700 LINE",
"804 646 LINE",
"888 628 LINE",
"743 122 LINE",
"739 122 LINE"
);
}
);
width = 1003;
}
);
leftKerningGroup = W;
rightKerningGroup = W;
unicode = 0057;
},
{
glyphname = X;
lastChange = "2016-09-25 07:29:43 +0000";
layers = (
{
background = {
paths = (
{
closed = 1;
nodes = (
"241 0 LINE",
"241 49 LINE",
"197 59 LINE SMOOTH",
"168 66 OFFCURVE",
"172 77 OFFCURVE",
"189 99 CURVE SMOOTH",
"329 289 LINE",
"469 100 LINE",
"490 74 OFFCURVE",
"487 59 OFFCURVE",
"461 56 CURVE SMOOTH",
"416 50 LINE",
"416 0 LINE",
"685 0 LINE",
"685 52 LINE",
"647 58 LINE SMOOTH",
"618 63 OFFCURVE",
"601 78 OFFCURVE",
"578 107 CURVE",
"389 364 LINE",
"559 596 LINE",
"585 629 OFFCURVE",
"596 637 OFFCURVE",
"621 642 CURVE SMOOTH",
"659 650 LINE",
"659 700 LINE",
"444 700 LINE",
"434 651 LINE",
"472 641 LINE SMOOTH",
"501 634 OFFCURVE",
"502 625 OFFCURVE",
"480 597 CURVE",
"352 415 LINE",
"216 601 LINE",
"197 624 OFFCURVE",
"195 640 OFFCURVE",
"222 644 CURVE SMOOTH",
"262 651 LINE",
"262 700 LINE",
"18 700 LINE",
"8 648 LINE",
"43 640 LINE SMOOTH",
"71 633 OFFCURVE",
"81 622 OFFCURVE",
"105 593 CURVE",
"291 340 LINE",
"108 100 LINE",
"78 70 OFFCURVE",
"70 63 OFFCURVE",
"46 58 CURVE SMOOTH",
"8 50 LINE",
"8 0 LINE"
);
}
);
};
hints = (
{
horizontal = 1;
place = "{0, 21}";
target = up;
type = BottomGhost;
},
{
horizontal = 1;
place = "{700, -20}";
target = down;
type = TopGhost;
}
);
layerId = UUID0;
paths = (
{
closed = 1;
nodes = (
"330 297 LINE",
"479 59 LINE",
"405 47 LINE",
"399 0 LINE",
"663 0 LINE",
"670 47 LINE",
"584 62 LINE",
"388 367 LINE",
"581 635 LINE",
"659 652 LINE",
"666 700 LINE",
"434 700 LINE",
"428 656 LINE",
"510 638 LINE",
"354 413 LINE",
"217 641 LINE",
"293 653 LINE",
"299 700 LINE",
"43 700 LINE",
"36 653 LINE",
"106 639 LINE",
"295 344 LINE",
"92 64 LINE",
"15 48 LINE",
"8 0 LINE",
"240 0 LINE",
"246 44 LINE",
"165 61 LINE"
);
}
);
width = 693;
},
{
background = {
paths = (
{
closed = 1;
nodes = (
"286 0 LINE",
"286 55 LINE",
"228 67 LINE SMOOTH",
"205 73 OFFCURVE",
"208 86 OFFCURVE",
"220 101 CURVE SMOOTH",
"341 262 LINE",
"454 108 LINE SMOOTH",
"469 88 OFFCURVE",
"471 72 OFFCURVE",
"448 69 CURVE SMOOTH",
"394 60 LINE",
"394 0 LINE",
"729 0 LINE",
"729 62 LINE",
"696 68 LINE SMOOTH",
"667 73 OFFCURVE",
"649 77 OFFCURVE",
"627 107 CURVE SMOOTH",
"432 375 LINE",
"593 594 LINE SMOOTH",
"618 628 OFFCURVE",
"633 628 OFFCURVE",
"658 633 CURVE SMOOTH",
"698 640 LINE",
"698 700 LINE",
"429 700 LINE",
"418 644 LINE",
"472 629 LINE SMOOTH",
"499 622 OFFCURVE",
"493 610 OFFCURVE",
"481 592 CURVE SMOOTH",
"371 439 LINE",
"257 597 LINE SMOOTH",
"248 609 OFFCURVE",
"241 626 OFFCURVE",
"262 630 CURVE SMOOTH",
"322 639 LINE",
"322 700 LINE",
"12 700 LINE",
"1 641 LINE",
"31 633 LINE SMOOTH",
"59 626 OFFCURVE",
"72 623 OFFCURVE",
"94 593 CURVE SMOOTH",
"283 334 LINE",
"114 113 LINE SMOOTH",
"88 79 OFFCURVE",
"78 73 OFFCURVE",
"42 66 CURVE SMOOTH",
"8 59 LINE",
"8 0 LINE"
);
}
);
};
hints = (
{
horizontal = 1;
place = "{0, 21}";
target = up;
type = BottomGhost;
},
{
horizontal = 1;
place = "{700, -20}";
target = down;
type = TopGhost;
}
);
layerId = "D537FF15-C70F-4B12-AACC-84E5BB5FCF97";
paths = (
{
closed = 1;
nodes = (
"332 287 LINE",
"472 69 LINE",
"399 57 LINE",
"393 0 LINE",
"697 0 LINE",
"704 57 LINE",
"621 72 LINE",
"427 359 LINE",
"615 625 LINE",
"693 642 LINE",
"700 700 LINE",
"452 700 LINE",
"446 646 LINE",
"525 628 LINE",
"383 424 LINE",
"251 631 LINE",
"327 643 LINE",
"333 700 LINE",
"39 700 LINE",
"32 643 LINE",
"102 629 LINE",
"285 353 LINE",
"85 74 LINE",
"8 58 LINE",
"1 0 LINE",
"249 0 LINE",
"255 54 LINE",
"177 71 LINE"
);
}
);
width = 702;
}
);
unicode = 0058;
},
{
glyphname = Y;
lastChange = "2016-09-25 07:29:43 +0000";
layers = (
{
anchors = (
{
name = bottom;
position = "{356, -30}";
},
{
name = top;
position = "{390, 730}";
}
);
background = {
paths = (
{
closed = 1;
nodes = (
"515 0 LINE",
"515 48 LINE",
"454 57 LINE SMOOTH",
"425 62 OFFCURVE",
"422 73 OFFCURVE",
"422 104 CURVE SMOOTH",
"422 292 LINE",
"605 589 LINE SMOOTH",
"627 624 OFFCURVE",
"638 640 OFFCURVE",
"662 644 CURVE SMOOTH",
"711 652 LINE",
"711 700 LINE",
"470 700 LINE",
"470 653 LINE",
"516 642 LINE SMOOTH",
"544 636 OFFCURVE",
"554 621 OFFCURVE",
"533 591 CURVE",
"395 358 LINE",
"390 358 LINE",
"244 595 LINE",
"223 626 OFFCURVE",
"236 642 OFFCURVE",
"263 645 CURVE SMOOTH",
"318 652 LINE",
"318 700 LINE",
"39 700 LINE",
"39 649 LINE",
"76 642 LINE SMOOTH",
"105 636 OFFCURVE",
"116 623 OFFCURVE",
"136 591 CURVE SMOOTH",
"323 293 LINE",
"323 108 LINE SMOOTH",
"323 78 OFFCURVE",
"321 62 OFFCURVE",
"292 57 CURVE SMOOTH",
"230 48 LINE",
"230 0 LINE"
);
}
);
};
hints = (
{
place = "{299, 87}";
},
{
horizontal = 1;
place = "{700, -20}";
target = down;
type = TopGhost;
},
{
horizontal = 1;
place = "{0, 21}";
target = up;
type = BottomGhost;
}
);
layerId = UUID0;
paths = (
{
closed = 1;
nodes = (
"221 640 LINE",
"304 653 LINE",
"310 700 LINE",
"52 700 LINE",
"45 653 LINE",
"122 638 LINE",
"326 259 LINE",
"315 59 LINE",
"233 46 LINE",
"227 0 LINE",
"492 0 LINE",
"498 46 LINE",
"403 59 LINE",
"411 261 LINE",
"629 635 LINE",
"709 652 LINE",
"716 700 LINE",
"479 700 LINE",
"473 656 LINE",
"560 638 LINE",
"387 327 LINE",
"383 327 LINE"
);
}
);
width = 661;
},
{
anchors = (
{
name = bottom;
position = "{355, -30}";
},
{
name = top;
position = "{388, 730}";
}
);
background = {
paths = (
{
closed = 1;
nodes = (
"559 0 LINE",
"559 60 LINE",
"482 70 LINE SMOOTH",
"453 75 OFFCURVE",
"450 86 OFFCURVE",
"450 117 CURVE SMOOTH",
"450 272 LINE",
"617 580 LINE SMOOTH",
"637 616 OFFCURVE",
"651 631 OFFCURVE",
"675 635 CURVE SMOOTH",
"704 643 LINE",
"704 700 LINE",
"453 700 LINE",
"453 644 LINE",
"506 632 LINE SMOOTH",
"534 626 OFFCURVE",
"540 614 OFFCURVE",
"523 581 CURVE SMOOTH",
"404 360 LINE",
"399 360 LINE",
"277 586 LINE SMOOTH",
"260 619 OFFCURVE",
"269 632 OFFCURVE",
"296 636 CURVE SMOOTH",
"341 643 LINE",
"341 700 LINE",
"25 700 LINE",
"25 640 LINE",
"59 633 LINE SMOOTH",
"88 627 OFFCURVE",
"100 615 OFFCURVE",
"119 582 CURVE SMOOTH",
"302 264 LINE",
"302 118 LINE SMOOTH",
"302 88 OFFCURVE",
"300 75 OFFCURVE",
"271 70 CURVE SMOOTH",
"194 60 LINE",
"194 0 LINE"
);
}
);
};
hints = (
{
place = "{270, 133}";
},
{
horizontal = 1;
place = "{700, -20}";
target = down;
type = TopGhost;
},
{
horizontal = 1;
place = "{0, 21}";
target = up;
type = BottomGhost;
}
);
layerId = "D537FF15-C70F-4B12-AACC-84E5BB5FCF97";
paths = (
{
closed = 1;
nodes = (
"242 630 LINE",
"327 643 LINE",
"333 700 LINE",
"44 700 LINE",
"37 643 LINE",
"105 628 LINE",
"296 262 LINE",
"285 69 LINE",
"203 56 LINE",
"197 0 LINE",
"505 0 LINE",
"511 56 LINE",
"419 69 LINE",
"427 260 LINE",
"644 625 LINE",
"722 642 LINE",
"729 700 LINE",
"479 700 LINE",
"473 646 LINE",
"556 628 LINE",
"392 344 LINE",
"388 344 LINE"
);
}
);
width = 675;
}
);
leftKerningGroup = Y;
rightKerningGroup = Y;
unicode = 0059;
},
{
glyphname = Z;
lastChange = "2016-09-25 07:29:43 +0000";
layers = (
{
anchors = (
{
name = bottom;
position = "{289, -30}";
},
{
name = top;
position = "{322, 730}";
}
);
background = {
paths = (
{
closed = 1;
nodes = (
"565 0 LINE",
"584 199 LINE",
"529 199 LINE",
"491 90 OFFCURVE",
"462 55 OFFCURVE",
"376 55 CURVE SMOOTH",
"165 55 LINE",
"575 650 LINE",
"575 700 LINE",
"66 700 LINE",
"54 509 LINE",
"113 514 LINE",
"143 610 OFFCURVE",
"160 647 OFFCURVE",
"243 647 CURVE SMOOTH",
"457 647 LINE",
"45 48 LINE",
"45 0 LINE"
);
}
);
};
hints = (
{
horizontal = 1;
place = "{0, 55}";
},
{
horizontal = 1;
place = "{647, 53}";
}
);
layerId = UUID0;
paths = (
{
closed = 1;
nodes = (
"560 700 LINE",
"96 700 LINE",
"71 524 LINE",
"128 514 LINE",
"142 560 LINE SMOOTH",
"164 633 OFFCURVE",
"181 647 OFFCURVE",
"253 647 CURVE SMOOTH",
"459 647 LINE",
"44 48 LINE",
"42 0 LINE",
"533 0 LINE",
"559 199 LINE",
"504 199 LINE",
"491 154 LINE SMOOTH",
"467 70 OFFCURVE",
"437 55 OFFCURVE",
"363 55 CURVE SMOOTH",
"153 55 LINE",
"566 650 LINE"
);
}
);
width = 611;
},
{
anchors = (
{
name = bottom;
position = "{302, -30}";
},
{
name = top;
position = "{325, 730}";
}
);
background = {
paths = (
{
closed = 1;
nodes = (
"582 0 LINE",
"601 229 LINE",
"536 229 LINE",
"489 94 OFFCURVE",
"460 70 OFFCURVE",
"390 70 CURVE SMOOTH",
"213 70 LINE",
"588 631 LINE",
"588 700 LINE",
"59 700 LINE",
"47 476 LINE",
"116 481 LINE",
"146 577 OFFCURVE",
"163 631 OFFCURVE",
"246 631 CURVE SMOOTH",
"416 631 LINE",
"38 68 LINE",
"38 0 LINE"
);
}
);
};
hints = (
{
horizontal = 1;
place = "{0, 72}";
},
{
horizontal = 1;
place = "{628, 72}";
}
);
layerId = "D537FF15-C70F-4B12-AACC-84E5BB5FCF97";
paths = (
{
closed = 1;
nodes = (
"586 700 LINE",
"88 700 LINE",
"62 505 LINE",
"131 495 LINE",
"146 547 LINE SMOOTH",
"167 618 OFFCURVE",
"183 628 OFFCURVE",
"255 628 CURVE SMOOTH",
"429 628 LINE",
"43 52 LINE",
"42 0 LINE",
"569 0 LINE",
"595 212 LINE",
"528 212 LINE",
"515 167 LINE SMOOTH",
"491 83 OFFCURVE",
"459 72 OFFCURVE",
"385 72 CURVE SMOOTH",
"210 72 LINE",
"592 642 LINE"
);
}
);
width = 623;
}
);
leftKerningGroup = Z;
rightKerningGroup = Z;
unicode = 005A;
},
{
glyphname = a;
lastChange = "2016-09-25 07:29:43 +0000";
layers = (
{
anchors = (
{
name = bottom;
position = "{271, -30}";
},
{
name = top;
position = "{289, 550}";
}
);
background = {
paths = (
{
closed = 1;
nodes = (
"261 -14 OFFCURVE",
"309 18 OFFCURVE",
"345 75 CURVE",
"350 26 OFFCURVE",
"374 -14 OFFCURVE",
"440 -14 CURVE SMOOTH",
"465 -14 OFFCURVE",
"505 0 OFFCURVE",
"532 26 CURVE",
"522 64 LINE",
"459 46 OFFCURVE",
"430 59 OFFCURVE",
"430 100 CURVE",
"430 341 LINE SMOOTH",
"430 485 OFFCURVE",
"346 521 OFFCURVE",
"243 521 CURVE SMOOTH",
"144 521 OFFCURVE",
"52 463 OFFCURVE",
"52 391 CURVE SMOOTH",
"52 364 OFFCURVE",
"66 339 OFFCURVE",
"109 339 CURVE SMOOTH",
"142 339 OFFCURVE",
"163 361 OFFCURVE",
"163 384 CURVE SMOOTH",
"163 398 OFFCURVE",
"147 423 OFFCURVE",
"137 440 CURVE",
"150 454 OFFCURVE",
"186 470 OFFCURVE",
"229 470 CURVE SMOOTH",
"296 470 OFFCURVE",
"337 442 OFFCURVE",
"337 352 CURVE SMOOTH",
"337 284 LINE",
"297 282 OFFCURVE",
"245 278 OFFCURVE",
"205 272 CURVE SMOOTH",
"109 258 OFFCURVE",
"50 208 OFFCURVE",
"50 121 CURVE SMOOTH",
"50 21 OFFCURVE",
"126 -14 OFFCURVE",
"190 -14 CURVE SMOOTH"
);
},
{
closed = 1;
nodes = (
"186 55 OFFCURVE",
"147 76 OFFCURVE",
"147 132 CURVE SMOOTH",
"147 170 OFFCURVE",
"168 213 OFFCURVE",
"240 223 CURVE SMOOTH",
"264 227 OFFCURVE",
"299 232 OFFCURVE",
"337 232 CURVE",
"337 161 LINE SMOOTH",
"337 79 OFFCURVE",
"268 55 OFFCURVE",
"228 55 CURVE SMOOTH"
);
}
);
};
hints = (
{
place = "{48, 91}";
},
{
place = "{388, 84}";
},
{
horizontal = 1;
place = "{-14, 68}";
},
{
horizontal = 1;
place = "{460, 61}";
}
);
layerId = UUID0;
paths = (
{
closed = 1;
nodes = (
"477 511 LINE",
"460 519 LINE",
"390 496 LINE",
"366 508 OFFCURVE",
"323 521 OFFCURVE",
"276 521 CURVE SMOOTH",
"143 521 OFFCURVE",
"46 390 OFFCURVE",
"46 201 CURVE SMOOTH",
"46 77 OFFCURVE",
"94 -14 OFFCURVE",
"201 -14 CURVE SMOOTH",
"297 -14 OFFCURVE",
"338 59 OFFCURVE",
"374 193 CURVE SMOOTH",
"396 275 LINE",
"403 274 LINE",
"386 86 LINE SMOOTH",
"383 29 OFFCURVE",
"395 -14 OFFCURVE",
"454 -14 CURVE SMOOTH",
"495 -14 OFFCURVE",
"541 13 OFFCURVE",
"563 34 CURVE",
"538 72 LINE",
"519 56 OFFCURVE",
"502 47 OFFCURVE",
"489 47 CURVE SMOOTH",
"467 47 OFFCURVE",
"464 60 OFFCURVE",
"464 90 CURVE SMOOTH"
);
},
{
closed = 1;
nodes = (
"136 54 OFFCURVE",
"137 159 OFFCURVE",
"137 205 CURVE SMOOTH",
"137 355 OFFCURVE",
"197 460 OFFCURVE",
"285 460 CURVE SMOOTH",
"321 460 OFFCURVE",
"368 449 OFFCURVE",
"393 436 CURVE",
"360 317 LINE SMOOTH",
"313 149 OFFCURVE",
"291 54 OFFCURVE",
"214 54 CURVE SMOOTH"
);
}
);
width = 575;
},
{
anchors = (
{
name = bottom;
position = "{259, -30}";
},
{
name = top;
position = "{290, 550}";
}
);
background = {
paths = (
{
closed = 1;
nodes = (
"257 -14 OFFCURVE",
"304 12 OFFCURVE",
"337 64 CURVE",
"350 11 OFFCURVE",
"388 -14 OFFCURVE",
"435 -14 CURVE SMOOTH",
"479 -14 OFFCURVE",
"521 1 OFFCURVE",
"552 27 CURVE",
"538 77 LINE",
"475 59 OFFCURVE",
"458 74 OFFCURVE",
"458 115 CURVE SMOOTH",
"458 330 LINE SMOOTH",
"458 484 OFFCURVE",
"377 527 OFFCURVE",
"258 527 CURVE SMOOTH",
"142 527 OFFCURVE",
"39 462 OFFCURVE",
"39 387 CURVE SMOOTH",
"39 350 OFFCURVE",
"61 323 OFFCURVE",
"107 323 CURVE SMOOTH",
"167 323 OFFCURVE",
"183 354 OFFCURVE",
"183 377 CURVE SMOOTH",
"183 391 OFFCURVE",
"168 417 OFFCURVE",
"158 434 CURVE",
"176 446 OFFCURVE",
"203 458 OFFCURVE",
"241 458 CURVE SMOOTH",
"292 458 OFFCURVE",
"315 430 OFFCURVE",
"315 365 CURVE SMOOTH",
"315 289 LINE",
"275 287 OFFCURVE",
"253 285 OFFCURVE",
"213 280 CURVE SMOOTH",
"104 265 OFFCURVE",
"34 222 OFFCURVE",
"34 128 CURVE SMOOTH",
"34 29 OFFCURVE",
"105 -14 OFFCURVE",
"188 -14 CURVE SMOOTH"
);
},
{
closed = 1;
nodes = (
"206 76 OFFCURVE",
"181 99 OFFCURVE",
"181 144 CURVE SMOOTH",
"181 185 OFFCURVE",
"203 209 OFFCURVE",
"244 218 CURVE SMOOTH",
"267 223 OFFCURVE",
"295 225 OFFCURVE",
"315 225 CURVE",
"315 158 LINE SMOOTH",
"315 97 OFFCURVE",
"285 76 OFFCURVE",
"245 76 CURVE SMOOTH"
);
}
);
};
hints = (
{
place = "{32, 134}";
},
{
horizontal = 1;
place = "{456, 71}";
},
{
horizontal = 1;
origin = "{1, 0}";
target = "{0, 11}";
}
);
layerId = "D537FF15-C70F-4B12-AACC-84E5BB5FCF97";
paths = (
{
closed = 1;
nodes = (
"501 512 LINE",
"464 525 LINE",
"392 502 LINE",
"368 514 OFFCURVE",
"325 527 OFFCURVE",
"278 527 CURVE SMOOTH",
"119 527 OFFCURVE",
"30 390 OFFCURVE",
"30 201 CURVE SMOOTH",
"30 73 OFFCURVE",
"86 -14 OFFCURVE",
"189 -14 CURVE SMOOTH",
"299 -14 OFFCURVE",
"324 61 OFFCURVE",
"359 185 CURVE SMOOTH",
"381 263 LINE",
"388 262 LINE",
"372 89 LINE SMOOTH",
"367 29 OFFCURVE",
"389 -14 OFFCURVE",
"462 -14 CURVE SMOOTH",
"507 -14 OFFCURVE",
"558 13 OFFCURVE",
"580 34 CURVE",
"556 82 LINE",
"542 72 OFFCURVE",
"526 65 OFFCURVE",
"513 65 CURVE SMOOTH",
"491 65 OFFCURVE",
"487 78 OFFCURVE",
"488 108 CURVE SMOOTH"
);
},
{
closed = 1;
nodes = (
"171 68 OFFCURVE",
"164 107 OFFCURVE",
"164 187 CURVE SMOOTH",
"164 340 OFFCURVE",
"201 456 OFFCURVE",
"292 456 CURVE SMOOTH",
"321 456 OFFCURVE",
"343 451 OFFCURVE",
"368 438 CURVE",
"334 314 LINE SMOOTH",
"286 141 OFFCURVE",
"265 68 OFFCURVE",
"215 68 CURVE SMOOTH"
);
}
);
width = 579;
}
);
leftKerningGroup = a;
rightKerningGroup = n;
unicode = 0061;
},
{
glyphname = b;
lastChange = "2016-09-25 07:29:42 +0000";
layers = (
{
background = {
paths = (
{
closed = 1;
nodes = (
"201 31 LINE",
"241 2 OFFCURVE",
"290 -14 OFFCURVE",
"352 -14 CURVE SMOOTH",
"495 -14 OFFCURVE",
"585 84 OFFCURVE",
"585 271 CURVE SMOOTH",
"585 430 OFFCURVE",
"511 521 OFFCURVE",
"392 521 CURVE SMOOTH",
"296 521 OFFCURVE",
"254 475 OFFCURVE",
"221 427 CURVE",
"221 434 LINE",
"221 755 LINE",
"210 766 LINE",
"47 761 LINE",
"41 711 LINE",
"85 704 LINE SMOOTH",
"125 698 OFFCURVE",
"128 687 OFFCURVE",
"128 644 CURVE SMOOTH",
"128 -6 LINE",
"154 -14 LINE"
);
},
{
closed = 1;
nodes = (
"297 49 OFFCURVE",
"251 67 OFFCURVE",
"221 96 CURVE",
"221 303 LINE SMOOTH",
"221 414 OFFCURVE",
"291 449 OFFCURVE",
"360 449 CURVE SMOOTH",
"451 449 OFFCURVE",
"484 370 OFFCURVE",
"484 257 CURVE SMOOTH",
"484 137 OFFCURVE",
"440 49 OFFCURVE",
"345 49 CURVE SMOOTH"
);
}
);
};
hints = (
{
place = "{101, 91}";
},
{
place = "{434, 90}";
},
{
horizontal = 1;
place = "{-14, 62}";
},
{
horizontal = 1;
place = "{451, 70}";
},
{
horizontal = 1;
place = "{767, -20}";
target = down;
type = TopGhost;
}
);
layerId = UUID0;
paths = (
{
closed = 1;
nodes = (
"447 -14 OFFCURVE",
"548 100 OFFCURVE",
"548 308 CURVE SMOOTH",
"548 440 OFFCURVE",
"503 521 OFFCURVE",
"400 521 CURVE SMOOTH",
"310 521 OFFCURVE",
"264 462 OFFCURVE",
"228 326 CURVE SMOOTH",
"191 188 LINE",
"183 190 LINE",
"210 425 LINE",
"222 756 LINE",
"206 767 LINE",
"50 767 LINE",
"44 719 LINE",
"137 698 LINE",
"114 32 LINE",
"157 7 OFFCURVE",
"242 -14 OFFCURVE",
"306 -14 CURVE SMOOTH"
);
},
{
closed = 1;
nodes = (
"457 451 OFFCURVE",
"458 357 OFFCURVE",
"458 301 CURVE SMOOTH",
"458 153 OFFCURVE",
"398 48 OFFCURVE",
"305 48 CURVE SMOOTH",
"261 48 OFFCURVE",
"229 60 OFFCURVE",
"205 71 CURVE",
"238 186 LINE SMOOTH",
"288 357 OFFCURVE",
"308 451 OFFCURVE",
"387 451 CURVE SMOOTH"
);
}
);
width = 574;
},
{
background = {
paths = (
{
closed = 1;
nodes = (
"225 34 LINE",
"260 8 OFFCURVE",
"310 -14 OFFCURVE",
"377 -14 CURVE SMOOTH",
"521 -14 OFFCURVE",
"616 89 OFFCURVE",
"616 276 CURVE SMOOTH",
"616 445 OFFCURVE",
"535 527 OFFCURVE",
"418 527 CURVE SMOOTH",
"345 527 OFFCURVE",
"293 489 OFFCURVE",
"265 443 CURVE",
"262 443 LINE",
"262 755 LINE",
"251 766 LINE",
"45 760 LINE",
"37 697 LINE",
"82 687 LINE SMOOTH",
"117 679 OFFCURVE",
"119 669 OFFCURVE",
"119 634 CURVE SMOOTH",
"119 -4 LINE",
"172 -14 LINE"
);
},
{
closed = 1;
nodes = (
"309 71 OFFCURVE",
"284 84 OFFCURVE",
"262 99 CURVE",
"262 305 LINE SMOOTH",
"262 406 OFFCURVE",
"319 432 OFFCURVE",
"364 432 CURVE SMOOTH",
"434 432 OFFCURVE",
"467 385 OFFCURVE",
"467 267 CURVE SMOOTH",
"467 151 OFFCURVE",
"434 71 OFFCURVE",
"349 71 CURVE SMOOTH"
);
}
);
};
hints = (
{
place = "{76, 125}";
},
{
place = "{408, 134}";
},
{
horizontal = 1;
place = "{-14, 70}";
},
{
horizontal = 1;
place = "{438, 89}";
},
{
horizontal = 1;
place = "{767, -20}";
target = down;
type = TopGhost;
}
);
layerId = "D537FF15-C70F-4B12-AACC-84E5BB5FCF97";
paths = (
{
closed = 1;
nodes = (
"460 -14 OFFCURVE",
"566 100 OFFCURVE",
"566 308 CURVE SMOOTH",
"566 440 OFFCURVE",
"518 527 OFFCURVE",
"410 527 CURVE SMOOTH",
"314 527 OFFCURVE",
"272 467 OFFCURVE",
"234 326 CURVE SMOOTH",
"197 188 LINE",
"189 190 LINE",
"219 425 LINE",
"231 756 LINE",
"215 767 LINE",
"39 767 LINE",
"33 713 LINE",
"113 692 LINE",
"88 33 LINE",
"131 8 OFFCURVE",
"237 -14 OFFCURVE",
"304 -14 CURVE SMOOTH"
);
},
{
closed = 1;
nodes = (
"432 438 OFFCURVE",
"432 362 OFFCURVE",
"432 301 CURVE SMOOTH",
"432 180 OFFCURVE",
"396 56 OFFCURVE",
"303 56 CURVE SMOOTH",
"263 56 OFFCURVE",
"242 67 OFFCURVE",
"228 75 CURVE",
"266 203 LINE SMOOTH",
"316 374 OFFCURVE",
"332 438 OFFCURVE",
"386 438 CURVE SMOOTH"
);
}
);
width = 577;
}
);
rightKerningGroup = o;
unicode = 0062;
},
{
glyphname = c;
lastChange = "2016-09-25 07:29:43 +0000";
layers = (
{
anchors = (
{
name = bottom;
position = "{235, -30}";
},
{
name = top;
position = "{273, 550}";
}
);
background = {
paths = (
{
closed = 1;
nodes = (
"366 -14 OFFCURVE",
"433 30 OFFCURVE",
"470 80 CURVE",
"436 115 LINE",
"410 89 OFFCURVE",
"368 63 OFFCURVE",
"307 63 CURVE SMOOTH",
"210 63 OFFCURVE",
"147 139 OFFCURVE",
"147 268 CURVE SMOOTH",
"147 386 OFFCURVE",
"204 465 OFFCURVE",
"282 465 CURVE SMOOTH",
"313 465 OFFCURVE",
"339 462 OFFCURVE",
"372 441 CURVE",
"351 406 OFFCURVE",
"344 389 OFFCURVE",
"344 373 CURVE SMOOTH",
"344 347 OFFCURVE",
"360 325 OFFCURVE",
"403 325 CURVE SMOOTH",
"449 325 OFFCURVE",
"469 356 OFFCURVE",
"469 390 CURVE SMOOTH",
"469 466 OFFCURVE",
"391 521 OFFCURVE",
"290 521 CURVE SMOOTH",
"148 521 OFFCURVE",
"46 418 OFFCURVE",
"46 247 CURVE SMOOTH",
"46 101 OFFCURVE",
"124 -14 OFFCURVE",
"282 -14 CURVE SMOOTH"
);
}
);
};
hints = (
{
place = "{48, 91}";
},
{
horizontal = 1;
place = "{-14, 66}";
},
{
horizontal = 1;
place = "{465, 56}";
}
);
layerId = UUID0;
paths = (
{
closed = 1;
nodes = (
"143 521 OFFCURVE",
"47 397 OFFCURVE",
"47 225 CURVE SMOOTH",
"47 88 OFFCURVE",
"116 -14 OFFCURVE",
"243 -14 CURVE SMOOTH",
"344 -14 OFFCURVE",
"410 61 OFFCURVE",
"434 93 CURVE",
"399 129 LINE",
"367 97 OFFCURVE",
"325 52 OFFCURVE",
"261 52 CURVE SMOOTH",
"178 52 OFFCURVE",
"138 132 OFFCURVE",
"138 228 CURVE SMOOTH",
"138 387 OFFCURVE",
"197 465 OFFCURVE",
"289 465 CURVE SMOOTH",
"340 465 OFFCURVE",
"380 440 OFFCURVE",
"341 396 CURVE SMOOTH",
"320 372 LINE",
"330 348 OFFCURVE",
"354 330 OFFCURVE",
"382 330 CURVE SMOOTH",
"420 330 OFFCURVE",
"443 356 OFFCURVE",
"443 394 CURVE SMOOTH",
"443 473 OFFCURVE",
"378 521 OFFCURVE",
"291 521 CURVE SMOOTH"
);
}
);
width = 489;
},
{
anchors = (
{
name = bottom;
position = "{232, -30}";
},
{
name = top;
position = "{274, 550}";
}
);
background = {
paths = (
{
closed = 1;
nodes = (
"379 -14 OFFCURVE",
"450 40 OFFCURVE",
"499 99 CURVE",
"457 147 LINE",
"414 114 OFFCURVE",
"376 91 OFFCURVE",
"312 91 CURVE SMOOTH",
"234 91 OFFCURVE",
"182 144 OFFCURVE",
"182 262 CURVE SMOOTH",
"182 371 OFFCURVE",
"219 453 OFFCURVE",
"313 453 CURVE SMOOTH",
"342 453 OFFCURVE",
"363 447 OFFCURVE",
"380 435 CURVE",
"359 400 OFFCURVE",
"349 383 OFFCURVE",
"349 368 CURVE SMOOTH",
"349 320 OFFCURVE",
"399 314 OFFCURVE",
"423 314 CURVE SMOOTH",
"473 314 OFFCURVE",
"499 345 OFFCURVE",
"499 389 CURVE SMOOTH",
"499 446 OFFCURVE",
"452 527 OFFCURVE",
"305 527 CURVE SMOOTH",
"138 527 OFFCURVE",
"33 412 OFFCURVE",
"33 238 CURVE SMOOTH",
"33 96 OFFCURVE",
"124 -14 OFFCURVE",
"277 -14 CURVE SMOOTH"
);
}
);
};
hints = (
{
place = "{35, 134}";
},
{
horizontal = 1;
place = "{-14, 86}";
},
{
horizontal = 1;
place = "{460, 67}";
}
);
layerId = "D537FF15-C70F-4B12-AACC-84E5BB5FCF97";
paths = (
{
closed = 1;
nodes = (
"124 527 OFFCURVE",
"34 397 OFFCURVE",
"34 226 CURVE SMOOTH",
"34 78 OFFCURVE",
"109 -14 OFFCURVE",
"246 -14 CURVE SMOOTH",
"351 -14 OFFCURVE",
"418 67 OFFCURVE",
"442 99 CURVE",
"400 143 LINE",
"368 111 OFFCURVE",
"327 72 OFFCURVE",
"268 72 CURVE SMOOTH",
"193 72 OFFCURVE",
"168 137 OFFCURVE",
"168 228 CURVE SMOOTH",
"168 362 OFFCURVE",
"204 460 OFFCURVE",
"297 460 CURVE SMOOTH",
"339 460 OFFCURVE",
"373 438 OFFCURVE",
"334 391 CURVE SMOOTH",
"311 363 LINE",
"322 335 OFFCURVE",
"354 316 OFFCURVE",
"385 316 CURVE SMOOTH",
"429 316 OFFCURVE",
"458 347 OFFCURVE",
"458 391 CURVE SMOOTH",
"458 482 OFFCURVE",
"385 527 OFFCURVE",
"294 527 CURVE SMOOTH"
);
}
);
width = 494;
}
);
leftKerningGroup = o;
rightKerningGroup = c;
unicode = 0063;
},
